<svg width="24" height="24" viewBox="0 0 24 24" fill="none" xmlns="http://www.w3.org/2000/svg">
<path d="M11.9933 15.9281C12.7456 15.9281 13.4174 15.6983 14.0088 15.2385C14.2023 15.0882 14.3788 14.9251 14.5383 14.7494C15.012 14.2274 14.5421 13.5073 13.8371 13.5073H10.1573C9.45229 13.5073 8.98215 14.2273 9.4549 14.7503C9.61378 14.926 9.78954 15.0891 9.98219 15.2396C10.5706 15.6979 11.241 15.9281 11.9933 15.9281ZM9.63918 11.9739C9.98703 11.9739 10.2809 11.8524 10.5207 11.6095C10.7606 11.3659 10.8805 11.0701 10.8805 10.7221C10.8805 10.3742 10.7587 10.0802 10.5151 9.84029C10.2716 9.60037 9.97623 9.48041 9.62913 9.48041C9.28203 9.48041 8.98819 9.60224 8.7476 9.84588C8.50701 10.0895 8.38709 10.385 8.38784 10.7322C8.38858 11.0794 8.51036 11.3733 8.75319 11.614C8.99601 11.8547 9.29134 11.9746 9.63918 11.9739ZM14.3664 11.9739C14.7135 11.9739 15.0073 11.8524 15.2479 11.6095C15.4877 11.3659 15.6077 11.0701 15.6077 10.7221C15.6077 10.3749 15.4859 10.0813 15.2423 9.84141C14.9988 9.60074 14.7034 9.48041 14.3563 9.48041C14.0085 9.48041 13.7146 9.60224 13.4748 9.84588C13.2349 10.0895 13.115 10.385 13.115 10.7322C13.115 11.0794 13.2368 11.3733 13.4804 11.614C13.7239 11.8547 14.0193 11.9746 14.3664 11.9739ZM7.66831 6.57565L10.5822 2.69518C10.7594 2.45675 10.9702 2.28165 11.2145 2.16988C11.4581 2.05663 11.7188 2 11.9966 2C12.2745 2 12.5355 2.05588 12.7798 2.16765C13.0242 2.27941 13.2349 2.45488 13.4122 2.69406L16.3261 6.57341L20.8175 8.10235C21.2153 8.23647 21.5214 8.46186 21.7359 8.77853C21.9512 9.09594 22.0588 9.44614 22.0588 9.82912C22.0588 10.0057 22.0327 10.1812 21.9806 10.3555C21.9285 10.5299 21.8435 10.6972 21.7259 10.8574L18.7818 14.8507L18.8936 19.1313C18.9122 19.6573 18.7386 20.1003 18.3729 20.4602C18.0072 20.8201 17.5815 21 17.0959 21L16.5886 20.9374L11.9966 19.5839L7.40463 20.9374C7.31227 20.9747 7.22289 20.9944 7.13649 20.9966C7.04934 20.9989 6.96964 21 6.89739 21C6.40207 21 5.97378 20.8201 5.61253 20.4602C5.25127 20.1003 5.08033 19.6577 5.0997 19.1324L5.21143 14.8228L2.27411 10.8574C2.15568 10.6957 2.07039 10.5269 2.01825 10.3511C1.96686 10.1752 1.94116 9.99937 1.94116 9.82353C1.94116 9.44651 2.05177 9.09557 2.27299 8.77071C2.49347 8.44659 2.80184 8.21635 3.1981 8.08L7.66831 6.57565ZM8.37108 7.53571L3.57462 9.15071C3.35936 9.22223 3.21225 9.36902 3.13329 9.59106C3.05434 9.8131 3.08674 10.0173 3.2305 10.2035L6.34993 14.4953L6.21697 19.1447C6.20208 19.3884 6.28773 19.5821 6.47395 19.7259C6.66016 19.8689 6.86834 19.9047 7.0985 19.8332L11.9966 18.4249L16.8959 19.8611C17.1246 19.9326 17.332 19.8969 17.5182 19.7538C17.7044 19.61 17.7904 19.4163 17.7763 19.1726L17.6422 14.4964L20.7628 10.2605C20.9058 10.0743 20.9382 9.86973 20.86 9.64694C20.781 9.4249 20.6339 9.27812 20.4186 9.20659L15.6233 7.53459L12.534 3.41829C12.4052 3.23202 12.226 3.13888 11.9966 3.13888C11.7672 3.13888 11.5885 3.23202 11.4603 3.41829L8.37108 7.53571Z" fill="#778599"/>
</svg>
