<svg width="24" height="24" viewBox="0 0 24 24" fill="none" xmlns="http://www.w3.org/2000/svg">
<path fill-rule="evenodd" clip-rule="evenodd" d="M12 20.5C16.6944 20.5 20.5 16.6944 20.5 12C20.5 7.30558 16.6944 3.5 12 3.5C7.30558 3.5 3.5 7.30558 3.5 12C3.5 16.6944 7.30558 20.5 12 20.5ZM22 12C22 17.5228 17.5228 22 12 22C6.47715 22 2 17.5228 2 12C2 6.47715 6.47715 2 12 2C17.5228 2 22 6.47715 22 12Z" fill="#778599"/>
<path fill-rule="evenodd" clip-rule="evenodd" d="M13 16C13 16.5523 12.5523 17 12 17C11.4477 17 11 16.5523 11 16C11 15.4477 11.4477 15 12 15C12.5523 15 13 15.4477 13 16ZM11.9961 7.75025C12.1931 7.74956 12.3868 7.80062 12.5579 7.89832C12.729 7.99602 12.8714 8.13694 12.9709 8.30697C13.0704 8.47701 13.1236 8.6702 13.125 8.86721C13.1264 9.06422 13.076 9.25814 12.9789 9.42958C12.8819 9.60102 12.7415 9.74396 12.5718 9.84409L12.5711 9.84449C12.2925 10.0093 11.9784 10.2362 11.7264 10.5332C11.4715 10.8338 11.25 11.2442 11.25 11.75V13C11.25 13.4142 11.5858 13.75 12 13.75C12.4142 13.75 12.75 13.4142 12.75 13V11.75C12.75 11.7037 12.7675 11.6247 12.8703 11.5035C12.976 11.3789 13.1381 11.252 13.3342 11.1359C13.7301 10.9022 14.0577 10.5687 14.2842 10.1687C14.5107 9.76867 14.6282 9.31618 14.6249 8.85649C14.6216 8.39679 14.4977 7.94602 14.2655 7.54928C14.0333 7.15254 13.701 6.82373 13.3018 6.59576C12.9026 6.36779 12.4505 6.24865 11.9908 6.25026C11.5311 6.25187 11.0799 6.37418 10.6823 6.60494C10.2847 6.83571 9.95469 7.16684 9.72527 7.5652C9.49584 7.96356 9.37506 8.41519 9.375 8.87489C9.37494 9.28911 9.71069 9.62494 10.1249 9.62499C10.5391 9.62505 10.8749 9.28931 10.875 8.87509C10.875 8.67808 10.9268 8.48452 11.0251 8.3138C11.1234 8.14307 11.2649 8.00116 11.4353 7.90226C11.6057 7.80336 11.799 7.75094 11.9961 7.75025Z" fill="#778599"/>
</svg>
