<svg width="24" height="24" viewBox="0 0 24 24" fill="none" xmlns="http://www.w3.org/2000/svg">
<path d="M8.11806 8.39954C8.11806 7.72954 8.29406 7.09654 8.60506 6.55054C8.71306 6.65254 9.10006 6.96454 9.96506 7.18054C9.95108 7.21301 9.9354 7.24472 9.91806 7.27554C9.74598 7.57448 9.64493 7.90899 9.62273 8.25321C9.60052 8.59743 9.65776 8.94215 9.79002 9.26073C9.92227 9.5793 10.126 9.8632 10.3855 10.0905C10.6449 10.3178 10.9532 10.4824 11.2864 10.5715C11.6196 10.6607 11.9689 10.6721 12.3072 10.6048C12.6455 10.5375 12.9638 10.3933 13.2375 10.1833C13.5111 9.97339 13.7329 9.70334 13.8856 9.39404C14.0383 9.08474 14.1178 8.74447 14.1181 8.39954C14.1181 7.55954 13.8161 7.18054 13.8161 7.18054C13.8161 7.18054 14.9891 6.62854 15.1031 6.55054C15.3651 7.06254 15.6181 7.78754 15.6181 8.39954C15.6181 9.3941 15.223 10.3479 14.5197 11.0512C13.8165 11.7544 12.8626 12.1495 11.8681 12.1495C10.8735 12.1495 9.91967 11.7544 9.21641 11.0512C8.51315 10.3479 8.11806 9.3941 8.11806 8.39954ZM15.1041 12.8145C14.4941 12.6415 13.9161 12.8485 13.5211 13.1115C13.1611 13.3495 12.5791 13.6355 11.8681 13.6355C11.1571 13.6355 10.5741 13.3495 10.2151 13.1115C9.81906 12.8485 9.24206 12.6415 8.63206 12.8145C8.47207 12.8596 8.31304 12.9079 8.15506 12.9595L7.19506 13.2745C6.59868 13.4684 6.06098 13.8099 5.63194 14.2672C5.20291 14.7246 4.89645 15.283 4.74106 15.8905L4.73506 15.9165L4.39606 17.7985C4.18106 18.9955 4.80606 20.2845 6.13206 20.5945C7.30606 20.8685 9.17006 21.1495 11.8681 21.1495C14.5661 21.1495 16.4281 20.8685 17.6031 20.5945C18.9301 20.2845 19.5541 18.9945 19.3391 17.7985L19.0011 15.9165L18.9941 15.8905C18.8386 15.2829 18.532 14.7244 18.1028 14.267C17.6735 13.8097 17.1356 13.4683 16.5391 13.2745L15.5801 12.9595C15.4221 12.9082 15.2634 12.8595 15.1041 12.8135M14.3501 14.3595C14.5241 14.2445 14.6481 14.2425 14.6951 14.2565C14.8351 14.2965 14.9741 14.3389 15.1121 14.3835L16.0721 14.6985C16.4241 14.8131 16.7421 15.0135 16.9973 15.2816C17.2526 15.5498 17.437 15.8773 17.5341 16.2345L17.8631 18.0635C17.9631 18.6225 17.6731 19.0365 17.2631 19.1325C16.2091 19.3775 14.4611 19.6485 11.8681 19.6485C9.27406 19.6485 7.52606 19.3785 6.47306 19.1325C6.06306 19.0365 5.77206 18.6225 5.87306 18.0625L6.20106 16.2345C6.29834 15.8773 6.48302 15.55 6.73843 15.282C6.99384 15.014 7.31195 14.8139 7.66406 14.6995L8.62406 14.3845C8.76139 14.3392 8.90006 14.2969 9.04006 14.2575C9.08806 14.2435 9.21106 14.2455 9.38506 14.3605C9.88606 14.6935 10.7571 15.1355 11.8681 15.1355C12.9791 15.1355 13.8481 14.6935 14.3501 14.3605" fill="#778599"/>
<path opacity="0.5" d="M8.00489 4.18158C7.96089 3.95658 8.23489 3.76858 8.44489 3.86058C9.20489 4.19258 10.5849 4.46758 11.6379 2.82858C11.6652 2.78878 11.7017 2.75622 11.7444 2.73372C11.7871 2.71122 11.8346 2.69946 11.8829 2.69946C11.9311 2.69946 11.9787 2.71122 12.0214 2.73372C12.0641 2.75622 12.1006 2.78878 12.1279 2.82858C13.1789 4.46758 14.5599 4.19258 15.3199 3.86058C15.5299 3.76858 15.8039 3.95658 15.7599 4.18058L15.3109 6.51758C15.3109 6.51758 14.5489 7.39958 11.8829 7.39958C9.21689 7.39958 8.45289 6.51758 8.45289 6.51758L8.00489 4.18158ZM4.22489 9.54258C4.22489 8.84161 4.50335 8.16936 4.99901 7.6737C5.49467 7.17804 6.16692 6.89958 6.86789 6.89958C7.56886 6.89958 8.24112 7.17804 8.73677 7.6737C9.23243 8.16936 9.51089 8.84161 9.51089 9.54258C9.51089 10.2435 9.23243 10.9158 8.73677 11.4115C8.24112 11.9071 7.56886 12.1856 6.86789 12.1856C6.16692 12.1856 5.49467 11.9071 4.99901 11.4115C4.50335 10.9158 4.22489 10.2435 4.22489 9.54258ZM6.86789 7.89958C6.43214 7.89958 6.01424 8.07268 5.70612 8.38081C5.39799 8.68893 5.22489 9.10683 5.22489 9.54258C5.22489 9.97833 5.39799 10.3962 5.70612 10.7044C6.01424 11.0125 6.43214 11.1856 6.86789 11.1856C7.30364 11.1856 7.72155 11.0125 8.02967 10.7044C8.33779 10.3962 8.51089 9.97833 8.51089 9.54258C8.51089 9.10683 8.33779 8.68893 8.02967 8.38081C7.72155 8.07268 7.30364 7.89958 6.86789 7.89958ZM4.81889 12.6966C5.16589 12.6046 5.49389 12.7186 5.71989 12.8826C5.80989 12.9476 5.93389 13.0276 6.08489 13.1006C6.20049 13.1605 6.28817 13.2631 6.32928 13.3866C6.37039 13.5102 6.36169 13.6449 6.30503 13.7621C6.24838 13.8793 6.14823 13.9698 6.02588 14.0144C5.90354 14.0589 5.76865 14.054 5.64989 14.0006C5.46879 13.9134 5.29578 13.8103 5.13289 13.6926C5.11636 13.6809 5.09815 13.6718 5.07889 13.6656L5.07289 13.6646C4.93772 13.7006 4.80366 13.7406 4.67089 13.7846L3.98589 14.0086C3.73007 14.0919 3.49885 14.2372 3.31284 14.4316C3.12684 14.6259 2.99184 14.8633 2.91989 15.1226L2.63589 17.1716C2.58089 17.5746 2.79289 17.8766 3.09589 17.9486C3.32056 18.0032 3.59189 18.0566 3.90989 18.1086C4.04091 18.1298 4.15813 18.2022 4.23577 18.3098C4.31341 18.4175 4.34511 18.5516 4.32389 18.6826C4.30267 18.8136 4.23028 18.9308 4.12263 19.0085C4.01499 19.0861 3.88091 19.1178 3.74989 19.0966C3.4528 19.0494 3.15759 18.991 2.86489 18.9216C1.97089 18.7086 1.53289 17.8516 1.64489 17.0346L1.93689 14.9286L1.94389 14.9016C2.0534 14.4734 2.26945 14.0799 2.57193 13.7576C2.87441 13.4354 3.25349 13.1949 3.67389 13.0586L4.35889 12.8336C4.51156 12.7836 4.66489 12.7379 4.81889 12.6966ZM18.1479 12.8826C18.3739 12.7186 18.7019 12.6046 19.0479 12.6966C19.2026 12.7379 19.3559 12.7836 19.5079 12.8336L20.1939 13.0586C21.0489 13.3396 21.7039 14.0336 21.9239 14.9016L21.9299 14.9286L22.2219 17.0346C22.3349 17.8506 21.8959 18.7086 21.0019 18.9216C20.7546 18.9822 20.4596 19.0406 20.1169 19.0966C20.052 19.107 19.9857 19.1046 19.9218 19.0894C19.8579 19.0742 19.7976 19.0466 19.7443 19.0081C19.691 18.9696 19.6459 18.921 19.6114 18.8651C19.5769 18.8091 19.5538 18.747 19.5434 18.6821C19.533 18.6172 19.5354 18.5509 19.5506 18.487C19.5658 18.4231 19.5934 18.3627 19.6319 18.3095C19.6704 18.2562 19.719 18.2111 19.7749 18.1766C19.8308 18.1421 19.893 18.119 19.9579 18.1086C20.2766 18.0566 20.5476 18.0032 20.7709 17.9486C21.0739 17.8766 21.2869 17.5746 21.2309 17.1716L20.9479 15.1226C20.8759 14.8633 20.7409 14.6259 20.5549 14.4316C20.3689 14.2372 20.1377 14.0919 19.8819 14.0086L19.1959 13.7836C19.0638 13.7396 18.9304 13.6996 18.7959 13.6636H18.7939L18.7879 13.6656C18.769 13.6719 18.7511 13.681 18.7349 13.6926C18.572 13.8103 18.399 13.9134 18.2179 14.0006C18.0991 14.054 17.9642 14.0589 17.8419 14.0144C17.7196 13.9698 17.6194 13.8793 17.5627 13.7621C17.5061 13.6449 17.4974 13.5102 17.5385 13.3866C17.5796 13.2631 17.6673 13.1605 17.7829 13.1006C17.9339 13.0276 18.0579 12.9476 18.1479 12.8826ZM16.8679 6.89958C16.1669 6.89958 15.4947 7.17804 14.999 7.6737C14.5033 8.16936 14.2249 8.84161 14.2249 9.54258C14.2249 10.2435 14.5033 10.9158 14.999 11.4115C15.4947 11.9071 16.1669 12.1856 16.8679 12.1856C17.5689 12.1856 18.2411 11.9071 18.7368 11.4115C19.2324 10.9158 19.5109 10.2435 19.5109 9.54258C19.5109 8.84161 19.2324 8.16936 18.7368 7.6737C18.2411 7.17804 17.5689 6.89958 16.8679 6.89958ZM15.2249 9.54258C15.2249 9.10683 15.398 8.68893 15.7061 8.38081C16.0142 8.07268 16.4321 7.89958 16.8679 7.89958C17.3036 7.89958 17.7215 8.07268 18.0297 8.38081C18.3378 8.68893 18.5109 9.10683 18.5109 9.54258C18.5109 9.97833 18.3378 10.3962 18.0297 10.7044C17.7215 11.0125 17.3036 11.1856 16.8679 11.1856C16.4321 11.1856 16.0142 11.0125 15.7061 10.7044C15.398 10.3962 15.2249 9.97833 15.2249 9.54258Z" fill="#778599"/>
</svg>
