<svg width="24" height="24" viewBox="0 0 24 24" fill="none" xmlns="http://www.w3.org/2000/svg">
<path opacity="0.5" d="M15.9999 4.55005C15.299 4.55005 14.6267 4.82851 14.1311 5.32417C13.6354 5.81982 13.3569 6.49208 13.3569 7.19305C13.3569 7.89402 13.6354 8.56627 14.1311 9.06193C14.6267 9.55759 15.299 9.83605 15.9999 9.83605C16.7009 9.83605 17.3732 9.55759 17.8688 9.06193C18.3645 8.56627 18.6429 7.89402 18.6429 7.19305C18.6429 6.49208 18.3645 5.81982 17.8688 5.32417C17.3732 4.82851 16.7009 4.55005 15.9999 4.55005ZM14.3569 7.19305C14.3569 6.7573 14.53 6.33939 14.8382 6.03127C15.1463 5.72315 15.5642 5.55005 15.9999 5.55005C16.4357 5.55005 16.8536 5.72315 17.1617 6.03127C17.4698 6.33939 17.6429 6.7573 17.6429 7.19305C17.6429 7.6288 17.4698 8.0467 17.1617 8.35483C16.8536 8.66295 16.4357 8.83605 15.9999 8.83605C15.5642 8.83605 15.1463 8.66295 14.8382 8.35483C14.53 8.0467 14.3569 7.6288 14.3569 7.19305ZM18.1829 10.348C18.0253 10.3087 17.8608 10.3065 17.7022 10.3416C17.5436 10.3766 17.3953 10.448 17.2689 10.55C16.9989 10.76 16.5209 11.05 15.9999 11.05C15.8673 11.05 15.7401 11.1027 15.6464 11.1965C15.5526 11.2903 15.4999 11.4174 15.4999 11.55C15.4999 11.6827 15.5526 11.8098 15.6464 11.9036C15.7401 11.9974 15.8673 12.05 15.9999 12.05C16.8579 12.05 17.5559 11.593 17.8829 11.34C17.895 11.3286 17.9098 11.3203 17.9259 11.316H17.9299C18.0639 11.3514 18.1969 11.3907 18.3289 11.434L19.0139 11.659C19.5399 11.832 19.9389 12.253 20.0799 12.773L20.3629 14.822C20.4189 15.225 20.2069 15.527 19.9029 15.599C19.6796 15.6537 19.4086 15.707 19.0899 15.759C19.0251 15.7696 18.9629 15.7927 18.907 15.8273C18.8511 15.8618 18.8025 15.907 18.7641 15.9603C18.7256 16.0136 18.698 16.074 18.6829 16.1379C18.6678 16.2019 18.6654 16.2682 18.6759 16.333C18.6864 16.3979 18.7096 16.4601 18.7442 16.516C18.7787 16.5719 18.8239 16.6205 18.8772 16.6589C18.9305 16.6974 18.9908 16.7249 19.0548 16.7401C19.1188 16.7552 19.1851 16.7576 19.2499 16.747C19.5913 16.6904 19.8859 16.632 20.1339 16.572C21.0289 16.359 21.4669 15.502 21.3539 14.685L21.0629 12.579L21.0559 12.552C20.9464 12.1239 20.7304 11.7304 20.4279 11.4081C20.1254 11.0859 19.7463 10.8454 19.3259 10.709L18.6409 10.484C18.4897 10.4342 18.3369 10.3888 18.1829 10.348Z" fill="#778599"/>
<path d="M10 4.80005C8.695 4.80005 7.671 5.82605 7.671 7.05005C7.671 8.27405 8.695 9.30005 10 9.30005C11.305 9.30005 12.329 8.27405 12.329 7.05005C12.329 5.82605 11.305 4.80005 10 4.80005ZM6.171 7.05005C6.171 4.96005 7.904 3.30005 10 3.30005C12.096 3.30005 13.829 4.96005 13.829 7.05005C13.829 9.14005 12.096 10.8 10 10.8C7.904 10.8 6.171 9.14005 6.171 7.05005ZM7.471 13.016C7.289 12.899 7.151 12.892 7.087 12.909C6.94366 12.949 6.801 12.9917 6.659 13.037L5.674 13.352C4.924 13.592 4.366 14.172 4.168 14.876L3.761 17.74C3.687 18.267 3.968 18.67 4.395 18.77C5.472 19.02 7.285 19.3 10 19.3C12.714 19.3 14.528 19.02 15.605 18.77C16.032 18.67 16.313 18.267 16.238 17.74L15.832 14.876C15.634 14.172 15.076 13.592 14.326 13.352L13.341 13.037C13.1992 12.9915 13.0565 12.9488 12.913 12.909C12.848 12.892 12.711 12.899 12.529 13.016C12.017 13.348 11.129 13.786 10 13.786C8.871 13.786 7.983 13.348 7.47 13.016M6.688 11.463C7.3 11.295 7.881 11.496 8.284 11.757C8.654 11.997 9.258 12.286 9.999 12.286C10.739 12.286 11.344 11.996 11.714 11.756C12.117 11.496 12.698 11.295 13.31 11.463C13.4733 11.5084 13.636 11.5567 13.798 11.608L14.782 11.924C16.015 12.318 16.97 13.297 17.292 14.537L17.303 14.577L17.723 17.529C17.89 18.709 17.237 19.93 15.943 20.23C14.745 20.508 12.817 20.8 9.999 20.8C7.181 20.8 5.253 20.508 4.054 20.23C2.76 19.93 2.108 18.71 2.275 17.529L2.695 14.578L2.705 14.537C3.028 13.297 3.983 12.318 5.215 11.924L6.2 11.608C6.362 11.5567 6.52466 11.5084 6.688 11.463Z" fill="#778599"/>
</svg>
