<svg width="24" height="24" viewBox="0 0 24 24" fill="none" xmlns="http://www.w3.org/2000/svg">
<path fill-rule="evenodd" clip-rule="evenodd" d="M11.2502 4.1895V1.5H12.7502V4.1895L14.4692 2.469L15.5297 3.531L12.7502 6.3105V10.701L16.5527 8.5065L17.5697 4.7085L19.0187 5.0955L18.3887 7.4445L20.7182 6.1005L21.4682 7.3995L19.1387 8.7435L21.4877 9.3735L21.1007 10.8225L17.3027 9.8055L13.5002 12L17.3027 14.1945L21.1007 13.1775L21.4877 14.6265L19.1387 15.2565L21.4682 16.6005L20.7182 17.8995L18.3887 16.5555L19.0187 18.9045L17.5697 19.2915L16.5527 15.4935L12.7502 13.299V17.6895L15.5297 20.469L14.4692 21.531L12.7502 19.8105V22.5H11.2502V19.8105L9.52973 21.531L8.46923 20.469L11.2502 17.6895V13.299L7.44773 15.4935L6.43073 19.2915L4.98173 18.9045L5.61173 16.5555L3.28223 17.8995L2.53223 16.6005L4.86023 15.2565L2.51123 14.6265L2.90123 13.1775L6.69773 14.1945L10.5002 12L6.69773 9.8055L2.89973 10.8225L2.51123 9.3735L4.86023 8.7435L2.53223 7.3995L3.28223 6.1005L5.61023 7.4445L4.98023 5.0955L6.43073 4.7085L7.44773 8.5065L11.2502 10.701V6.3105L8.46923 3.531L9.52973 2.469L11.2502 4.1895Z" fill="#778599"/>
</svg>
