<svg width="24" height="24" viewBox="0 0 24 24" fill="none" xmlns="http://www.w3.org/2000/svg">
<path d="M17.6895 11.2497H3.75C3.55109 11.2497 3.36032 11.3287 3.21967 11.4694C3.07902 11.61 3 11.8008 3 11.9997C3 12.1986 3.07902 12.3894 3.21967 12.5301C3.36032 12.6707 3.55109 12.7497 3.75 12.7497H17.6895L12.219 18.2187C12.0782 18.3596 11.9991 18.5506 11.9991 18.7497C11.9991 18.9489 12.0782 19.1399 12.219 19.2807C12.3598 19.4216 12.5508 19.5007 12.75 19.5007C12.9492 19.5007 13.1402 19.4216 13.281 19.2807L20.031 12.5307C20.1008 12.4611 20.1563 12.3783 20.1941 12.2872C20.2319 12.1961 20.2513 12.0984 20.2513 11.9997C20.2513 11.9011 20.2319 11.8034 20.1941 11.7123C20.1563 11.6212 20.1008 11.5384 20.031 11.4687L13.281 4.71873C13.1402 4.5779 12.9492 4.49878 12.75 4.49878C12.5508 4.49878 12.3598 4.5779 12.219 4.71873C12.0782 4.85956 11.9991 5.05056 11.9991 5.24973C11.9991 5.44889 12.0782 5.6399 12.219 5.78073L17.6895 11.2497Z" fill="#778599"/>
</svg>
