<svg width="270" height="200" viewBox="0 0 270 200" fill="none" xmlns="http://www.w3.org/2000/svg">
<g clip-path="url(#clip0_268_1106)">
<path d="M269.5 152.5C269.5 158.017 265.876 163.367 259.096 168.315C252.327 173.254 242.5 177.723 230.312 181.485C205.942 189.007 172.244 193.667 135 193.667C97.7566 193.667 64.0586 189.007 39.6882 181.485C27.4999 177.723 17.6728 173.254 10.9038 168.315C4.12409 163.367 0.500122 158.017 0.500122 152.5C0.500122 146.983 4.12409 141.633 10.9038 136.685C17.6728 131.746 27.4999 127.277 39.6882 123.515C64.0586 115.993 97.7566 111.333 135 111.333C172.244 111.333 205.942 115.993 230.312 123.515C242.5 127.277 252.327 131.746 259.096 136.685C265.876 141.633 269.5 146.983 269.5 152.5Z" fill="#BBE0F0" stroke="#202050"/>
<path d="M269.5 144.167C269.5 149.684 265.876 155.034 259.096 159.981C252.327 164.921 242.5 169.39 230.312 173.152C205.942 180.673 172.244 185.333 135 185.333C97.7566 185.333 64.0586 180.673 39.6882 173.152C27.4999 169.39 17.6728 164.921 10.9038 159.981C4.12409 155.034 0.500122 149.684 0.500122 144.167C0.500122 138.65 4.12409 133.299 10.9038 128.352C17.6728 123.413 27.4999 118.943 39.6882 115.182C64.0586 107.66 97.7566 103 135 103C172.244 103 205.942 107.66 230.312 115.182C242.5 118.943 252.327 123.413 259.096 128.352C265.876 133.299 269.5 138.65 269.5 144.167Z" fill="#BBE0F0" stroke="#202050"/>
<path d="M269.5 135.833C269.5 141.35 265.876 146.701 259.096 151.648C252.327 156.587 242.5 161.057 230.312 164.818C205.942 172.34 172.244 177 135 177C97.7566 177 64.0586 172.34 39.6882 164.818C27.4999 161.057 17.6728 156.587 10.9038 151.648C4.12409 146.701 0.500122 141.35 0.500122 135.833C0.500122 130.316 4.12409 124.966 10.9038 120.019C17.6728 115.079 27.4999 110.61 39.6882 106.848C64.0586 99.3266 97.7566 94.6667 135 94.6667C172.244 94.6667 205.942 99.3266 230.312 106.848C242.5 110.61 252.327 115.079 259.096 120.019C265.876 124.966 269.5 130.316 269.5 135.833Z" fill="#46B2FF" stroke="#202050"/>
<ellipse cx="135" cy="132.083" rx="23.3333" ry="6.25" fill="#778599"/>
<g clip-path="url(#clip1_268_1106)">
<path d="M138.248 7.38435C131.19 8.34685 129.67 8.92393 127.031 11.783C124.392 14.6422 125.932 22.1198 126.371 26.2984C126.811 30.4771 126.152 33.9961 123.072 36.1953C119.994 38.3945 116.914 40.594 108.997 41.2536C101.08 41.9135 99.3202 42.3534 96.0212 41.9135C92.7222 41.4737 88.1037 41.2536 83.705 40.1541C79.3063 39.0544 78.4267 38.8346 76.6673 39.4942C74.9079 40.1541 77.9868 45.8721 81.7256 47.8515C85.4644 49.831 103.499 55.989 106.797 56.6487C110.096 57.3086 112.956 61.2672 113.395 63.4664C113.835 65.6656 119.114 98.4351 118.454 100.415C117.794 102.394 116.034 107.233 116.694 110.751C117.354 114.27 118.894 117.129 120.653 118.229C122.413 119.329 127.031 117.349 128.351 116.469C129.67 115.59 133.189 113.61 133.629 110.751C134.069 107.892 134.729 107.012 134.729 107.012L134.069 104.593C134.069 104.593 134.104 104.487 136.049 104.373C137.993 104.259 136.66 107.488 136.488 109.652C136.317 111.815 137.148 113.39 139.787 114.05C142.426 114.71 145.945 114.93 149.244 112.291C152.543 109.652 152.983 107.892 152.763 106.573C152.543 105.253 153.423 102.834 153.423 102.834C153.423 102.834 159.361 97.7755 161.121 90.2979C162.88 82.8203 162.221 76.6622 161.561 73.1435C160.901 69.6247 159.142 63.6864 158.702 62.3669C158.262 61.0474 162.661 57.9682 165.959 55.5492C169.258 53.1299 171.678 50.2708 178.056 47.4117C184.433 44.5526 186.853 44.1127 189.712 42.1333C192.571 40.1539 192.791 38.8343 192.131 37.9547C191.471 37.075 185.753 35.3156 182.234 35.3156C178.715 35.3156 169.258 37.7349 162.88 38.1747C156.502 38.6146 156.942 39.4942 154.083 36.8552C151.224 34.2161 151.224 34.2161 150.564 31.7968C149.904 29.3776 148.585 28.4979 149.245 24.7591C149.905 21.0203 150.784 16.1817 150.784 14.2026C150.784 12.2234 143.086 6.72445 138.248 7.38435Z" fill="white"/>
<path d="M152.323 23.6591C149.684 24.9786 147.924 25.4185 146.825 24.099C145.725 22.7794 150.376 17.2635 151.696 15.944C153.015 14.6245 153.643 15.7417 156.722 15.9615C159.801 16.1815 163.1 17.0612 163.32 17.7208C163.539 18.3807 163.98 19.2604 160.681 20.3599C157.382 21.4596 155.182 22.5591 154.522 22.5591C153.863 22.5591 152.323 23.6591 152.323 23.6591Z" fill="#F7B52C"/>
<path d="M120.653 118.229C121.533 121.088 119.554 127.026 118.894 128.346C118.234 129.665 114.715 132.305 114.495 133.624C114.275 134.944 113.916 136.163 115.815 135.604C117.611 135.075 122.092 133.382 122.852 133.405C123.613 133.427 125.272 136.703 127.251 138.243C129.231 139.783 129.45 138.023 128.571 134.724C131.21 134.944 131.848 134.062 133.189 134.944C134.53 135.826 136.928 135.604 135.828 133.625C134.729 131.645 132.529 129.446 129.45 129.006C126.371 128.566 125.272 126.367 125.492 123.068C125.711 119.769 125.271 117.79 125.271 117.79L123.512 116.25L120.213 116.91L120.653 118.229Z" fill="#F7B52C"/>
<path d="M140.007 115.15C140.227 117.789 140.208 121.323 139.347 123.068C138.487 124.812 136.708 125.267 136.048 126.367C135.388 127.466 134.729 129.006 136.488 129.006C138.247 129.006 140.667 127.466 141.986 127.906C143.306 128.346 144.625 129.006 146.165 130.545C147.705 132.084 148.804 132.964 149.464 132.084C150.124 131.205 151.003 129.665 149.464 128.565C147.924 127.466 149.603 128.551 151.223 128.126C152.682 127.743 156.029 129.824 155.622 129.005C155.215 128.187 156.062 127.466 154.522 126.586C152.983 125.706 149.244 124.387 148.144 123.727C147.045 123.067 145.945 121.528 145.725 119.768C145.505 118.009 145.065 114.71 145.065 114.71C145.065 114.71 142.206 114.93 140.887 114.49C139.567 114.05 140.007 115.15 140.007 115.15Z" fill="#F7B52C"/>
<path d="M148.781 14.5062C151.059 11.4448 149.021 8.32471 145.954 6.9721C142.512 5.4544 138.16 5.59763 134.594 6.56039C127.134 8.57445 122.025 14.5007 122.671 22.4388C122.808 24.1273 123.136 25.7948 123.285 27.4815C123.469 29.5534 122.882 30.983 121.646 32.6106C119.413 35.5507 116.9 37.7312 113.225 38.5507C106.191 40.1192 98.324 39.308 91.2157 38.7112C87.5714 38.4052 83.9126 37.7932 80.2488 37.851C78.7313 37.875 76.7714 37.9156 75.5326 38.9364C74.3782 39.888 74.1931 41.8093 75.4688 42.7927C77.1108 44.058 75.5813 41.4817 75.8441 40.7166C76.2972 39.3976 78.7884 39.5708 79.8399 39.4989C82.805 39.2963 85.7022 39.3174 88.6688 39.5229C94.5308 39.9289 100.261 40.381 106.141 40.2664C109.768 40.1958 113.642 40.1164 116.963 38.4799C119.934 37.0164 123.426 33.6013 124.445 30.3776C124.956 28.7591 124.612 26.988 124.432 25.3416C124.189 23.1237 123.971 20.926 124.397 18.7146C125.147 14.8221 127.735 11.8036 131.069 9.79606C134.574 7.68591 138.878 6.92419 142.856 7.98148C144.524 8.42497 146.058 9.30466 147.099 10.7122C147.957 11.8729 148.132 13.2604 148.781 14.5062Z" fill="#231815"/>
<path d="M160.253 21.0091C162.011 20.4323 165.614 18.6284 162.684 16.9362C160.988 15.9565 158.555 15.2242 156.621 14.8534C155.89 14.7133 154.077 14.4594 153.636 15.3242C153.084 16.4044 154.971 16.638 155.602 16.7185C157.768 16.994 159.883 16.768 161.967 17.6818C164.485 18.7857 160.786 20.0182 159.62 20.3586C157.109 21.0924 154.08 21.5604 151.895 23.0875C151.495 23.3667 150.171 24.6844 151.165 25.0034C151.79 25.2039 153.303 23.668 153.722 23.4227C155.727 22.2477 158.062 21.7203 160.253 21.0091Z" fill="#231815"/>
<path d="M148.067 21.3377C148.705 20.196 149.475 19.0143 150.426 18.102C150.993 17.5585 152.261 16.938 151.696 15.944C150.453 13.7585 148.275 19.3903 147.918 20.0091C147.54 20.6653 144.777 25.0179 147.725 24.6171C148.087 24.5679 148.434 24.4434 148.518 24.0455C148.656 23.3856 148.129 23.507 147.871 23.2841C147.532 22.9901 147.664 23.7388 147.352 23.0083C147.207 22.6695 147.921 21.6013 148.067 21.3377Z" fill="#231815"/>
<path d="M149.755 28.3263C151.232 31.0484 152.262 34.3586 154.923 36.2005C156.938 37.5945 159.783 37.4 162.1 37.1372C165.791 36.7187 169.385 35.7242 173.036 35.0734C176.238 34.5028 179.307 34.5135 182.54 34.7065C184.849 34.8442 198.974 35.5112 194.567 40.2687C192.38 42.6302 188.199 43.489 185.348 44.7955C182.155 46.2591 178.85 47.4836 175.802 49.2479C172.578 51.1145 169.64 53.4046 166.749 55.7424C165.989 56.3567 160.077 61.5109 159.403 60.6958C158.887 60.0718 172.793 50.0718 173.904 49.3924C179.643 45.8867 186.206 44.2195 192.132 41.1385C193.595 40.3776 196.186 38.6216 193.661 37.1627C191.192 35.7359 187.57 35.7481 184.801 35.7614C181.368 35.7776 177.949 35.583 174.551 36.1755C170.771 36.8349 167.081 37.9372 163.287 38.5291C159.963 39.0479 155.872 39.3841 153.058 37.1476C150.381 35.0203 149.901 31.5234 149.755 28.3263Z" fill="#231815"/>
<path d="M158.647 55.9244C158.249 57.6932 158.599 58.9676 159.171 60.6067C159.791 62.3814 160.181 64.258 160.627 66.0814C161.592 70.0174 162.808 74.233 163.094 78.2924C163.626 85.8515 161.403 94.3971 156.551 100.311C155.301 101.835 153.828 102.865 151.947 103.485C151.122 103.758 150.173 104.014 149.293 103.969C147.537 103.88 148.611 102.91 149.65 102.582C151.646 101.954 153.382 102.077 155.011 100.546C156.574 99.0773 157.79 97.1187 158.584 95.1426C160.147 91.2541 160.389 87.2119 161.013 83.1268C161.584 79.3978 162.091 75.6674 161.295 71.9393C160.403 67.7661 159.346 63.7218 157.085 60.1135C156.191 58.6851 155.027 56.7932 156.21 55.1296C156.513 54.7044 157.415 53.9624 157.987 54.0963C158.778 54.2814 158.256 55.1478 158.647 55.9244Z" fill="#231815"/>
<path d="M121.003 56.9002C119.769 63.4494 108.586 58.8565 104.841 57.7463C98.5956 55.8953 92.3454 53.4651 86.5034 50.5984C83.9311 49.3362 80.7149 47.9526 78.8191 45.7166C78.2519 45.0479 77.4279 43.6226 78.8212 44.4492C79.9678 45.1294 80.9605 46.2765 82.0771 47.0429C87.6006 50.8343 94.4402 53.9799 100.941 55.6429C104.222 56.4823 107.587 57.1896 110.904 57.882C114.479 58.6284 117.77 58.8794 121.003 56.9002Z" fill="#231815"/>
<path d="M152.753 99.2073C154.69 100.525 154.535 101.687 154.267 103.646C153.897 106.349 152.953 109.207 150.984 111.164C148.945 113.191 146.248 114.659 143.363 114.953C141.404 115.153 136.656 114.524 136.316 111.815C136.118 110.236 137.132 111.592 137.584 112.089C138.435 113.024 139.484 113.672 140.713 113.992C143.451 114.703 146.609 113.855 148.81 112.141C152.747 109.075 152.48 103.651 152.753 99.2073Z" fill="#231815"/>
<path d="M140.804 102.646C141.102 103.645 141.284 104.369 140.495 104.781C139.741 105.174 138.334 105.001 137.553 104.919C135.984 104.754 134.051 104.747 132.656 104.667C132.234 104.643 131.393 104.458 131.827 103.745C132.281 103 134.002 103.89 134.632 103.992C136.816 104.345 138.87 103.547 140.804 102.646Z" fill="#231815"/>
<path d="M133.527 105.226C137.416 106.214 134.162 111.404 132.641 113.296C130.536 115.916 126.364 119.526 122.928 116.565C122.519 116.213 121.811 115.319 122.714 115.286C123.198 115.268 124.154 116.133 124.62 116.325C126.505 117.098 128.469 116.589 129.983 115.283C132.62 113.009 133.839 108.582 133.527 105.226Z" fill="#231815"/>
<path d="M116.409 108.295C115.582 109.025 115.03 110.141 113.941 109.288C113.544 108.978 113.308 108.537 113.136 108.074C112.639 106.732 112.782 105.1 112.794 103.7C112.846 97.0998 112.461 90.6319 111.162 84.1397C111.165 84.1563 111.163 84.1722 111.157 84.1873C111.291 84.0717 110.412 80.9764 110.36 80.7181C109.814 77.9803 109.338 75.2274 108.926 72.4662C108.468 69.398 108.077 66.3118 107.888 63.2139C107.794 61.6756 107.269 58.8983 108.057 57.528C108.549 56.6722 109.909 55.9071 110.658 55.3043C112.388 53.9116 114.145 52.5532 115.906 51.1998C120.152 47.936 124.434 44.7194 128.735 41.5277C132.014 39.0941 135.256 36.5337 138.687 34.3139C130.327 44.1295 124.471 56.0379 122.262 68.7678C121.504 73.1384 121.154 77.603 121.372 82.0376C121.499 84.6126 121.667 87.5134 122.678 89.9264C123.393 91.6319 124.03 90.9834 124.172 89.4181C123.73 94.2827 121.454 98.8936 118.367 102.627C117.939 103.144 117.24 103.678 116.983 104.281C116.506 105.401 116.583 107.08 116.409 108.295Z" fill="#231815"/>
<path d="M115.707 100.827C117.577 101.368 117.697 101.968 117.617 103.656C117.532 105.42 117.234 107.176 117.162 108.934C117.082 110.915 117.405 113.305 118.403 115.045C118.688 115.542 121.356 117.992 119.498 117.545C116.432 116.808 116.641 110.529 116.241 108.216C115.835 105.867 115.842 103.214 115.707 100.827Z" fill="#231815"/>
<path d="M125.069 117.904C125.57 118.355 126.408 119.082 126.535 119.809C126.649 120.467 126.269 121.331 126.239 122.021C126.153 124.088 126.794 126.366 128.329 127.822C130.04 129.445 132.558 129.702 134.458 131.024C135.133 131.493 137.733 134.71 135.945 135.442C135.145 135.77 135.405 134.842 135.347 134.282C135.238 133.233 134.906 132.486 134.09 131.791C132.318 130.282 129.844 129.793 127.964 128.402C124.674 125.97 123.985 121.731 125.069 117.904Z" fill="#231815"/>
<path d="M120.784 133.18C122.04 132.45 122.774 132.364 123.613 133.427C124.476 134.519 125.385 135.583 126.281 136.649C126.65 137.086 128.287 138.95 129.002 138.433C129.437 138.118 128.968 136.006 128.834 135.605C128.589 134.872 128.085 134.528 127.725 133.911C127.258 133.108 127.479 132.735 128.363 133.184C129.012 133.513 129.413 134.492 129.601 135.12C129.891 136.088 129.882 137.139 129.739 138.132C129.621 138.951 129.676 139.095 129.001 139.161C127.843 139.274 125.679 137.673 124.871 136.968C123.479 135.752 122.141 134.438 120.784 133.18Z" fill="#231815"/>
<path d="M131.212 135.41C131.418 134.568 131.5 133.652 132.186 133.699C132.872 133.746 133.343 134.497 133.888 134.81C134.408 135.108 135.718 135.232 136.053 135.718C136.217 135.956 136.341 136.38 135.924 136.584C135.478 136.801 134.932 136.054 134.531 135.826C133.567 135.278 132.293 135.336 131.212 135.41Z" fill="#231815"/>
<path d="M120.277 118.194C122.374 118.98 122.15 119.982 121.724 121.782C121.287 123.632 120.636 125.582 120.025 127.32C119.565 128.628 118.463 129.726 117.556 130.735C116.772 131.609 115.141 132.814 114.783 133.966C114.585 134.601 115.582 136.439 114.254 135.655C111.959 134.3 116.432 130.89 117.27 130.092C118.82 128.617 118.926 127.307 119.342 125.316C119.856 122.855 120.267 120.711 120.277 118.194Z" fill="#231815"/>
<path d="M121.544 133.425C121.116 135.269 121.207 135.365 119.489 135.022C118.774 134.879 118.313 134.748 117.611 135.075C117.077 135.323 116.525 136.348 116.068 136.453C115.483 136.588 115.221 136.254 115.38 135.767C115.589 135.129 116.913 134.657 117.449 134.44C118.82 133.884 120.024 133.477 121.544 133.425Z" fill="#231815"/>
<path d="M144.621 114.431C146.317 115.105 146.57 115.756 146.403 117.401C146.225 119.154 146.312 121.489 147.533 122.899C149.097 124.706 156.705 124.754 156.182 128.21C156.011 129.341 155.612 128.749 155.214 128.187C154.723 127.492 154.542 126.889 153.762 126.382C151.9 125.172 149.506 125.141 147.632 123.889C144.509 121.801 144.632 117.854 144.621 114.431Z" fill="#231815"/>
<path d="M146.993 128.711C147.839 126.795 149.204 127.39 150.083 128.812C150.487 129.466 151.465 132.307 150.343 132.92C149.438 133.414 146.706 131.222 146.044 130.768C145.192 130.183 144.34 129.543 143.377 129.148C142.902 128.954 141.925 128.93 141.569 128.527C140.232 127.018 144.006 128.443 144.395 128.687C145.368 129.295 147.715 131.97 148.985 131.704C149.51 131.594 149.364 131.539 149.393 131.059C149.469 129.811 148.005 128.945 146.993 128.711Z" fill="#231815"/>
<path d="M139.079 114.827C141.091 115.754 141.079 116.56 140.992 118.508C140.884 120.931 140.521 123.275 138.487 124.812C137.595 125.486 135.372 126.575 136.007 128.09C136.691 129.721 140.239 126.645 141.609 127.664C142.72 128.49 140.975 128.499 140.409 128.592C139.264 128.78 138.165 129.221 136.999 129.292C136.297 129.336 135.687 129.438 135.39 128.91C135 128.217 135.397 126.727 135.756 126.18C136.263 125.409 137.133 125.079 137.787 124.476C138.468 123.848 138.83 123.057 139.082 122.168C139.784 119.697 139.102 117.308 139.079 114.827Z" fill="#231815"/>
<path d="M150.093 128.722C150.058 127.796 149.919 126.937 150.669 126.832C151.408 126.729 152.087 127.436 152.682 127.743C153.247 128.035 154.629 128.112 155.007 128.622C155.184 128.861 155.356 129.269 154.935 129.506C154.493 129.756 153.844 128.961 153.429 128.749C152.422 128.234 151.133 128.347 150.093 128.722Z" fill="#231815"/>
<path d="M115.815 37.9543C118.83 37.0499 122.171 36.115 122.953 32.6666C124.112 27.5564 121.581 22.3038 123.58 17.2926C125.52 12.4306 130.502 8.86606 135.514 7.72908C138.306 7.09548 141.322 7.12673 144.066 7.97804C146.336 8.68246 149.353 10.3124 150.165 12.7434C150.709 14.37 149.427 15.2101 148.021 15.5991C147.599 15.7161 146.793 15.9939 146.352 15.884C145.867 15.7629 145.988 15.6486 145.543 15.2736C143.043 13.1689 138.025 13.9637 135.949 16.3033C134.232 18.2369 134.648 20.9666 135.278 23.2611C135.688 24.7567 136.169 26.2898 136.901 27.6616C137.562 28.9015 138.438 30.0538 138.923 31.3819C139.98 34.2773 136.658 36.758 135.143 38.9523C133.293 41.6322 131.657 44.4567 130.217 47.377C127.226 53.4452 125.096 59.9049 123.527 66.4765C122.884 69.1713 122.336 71.8874 121.84 74.6127C121.763 75.033 121.262 79.1835 120.967 79.2015C120.67 79.2197 120.082 75.6293 120.019 75.3567C119.357 72.4892 118.519 69.6465 117.291 66.9663C115.978 64.1012 114.178 61.3137 111.569 59.4692C109.609 58.0838 107.33 57.6103 105.071 56.9494C96.4009 54.4114 86.2355 51.6658 79.3735 45.5059C77.9691 44.2452 74.8329 41.0981 77.4332 39.4739C80.6175 37.4845 86.1777 39.2861 89.5009 39.8025C94.1384 40.5228 98.9866 40.2004 103.639 39.8028C107.669 39.4585 111.922 39.1223 115.815 37.9543Z" fill="#231815"/>
<path d="M151.838 32.6863C150.02 41.4261 161.492 40.4154 166.671 39.2902C173.431 37.8217 181.631 34.9131 188.439 37.4759C187.652 38.5417 186.47 38.6766 186.278 40.1636C186.136 41.2589 186.589 43.1014 188.059 42.9785C188.6 42.9332 189.463 42.2806 189.934 42.047C191.104 41.4673 192.275 40.8878 193.449 40.3162C194.261 39.9204 195.559 39.6087 195.308 38.4967C195.05 37.3548 193.242 36.5212 192.272 36.205C190.381 35.5881 188.265 35.3957 186.303 35.1287C183.825 34.7915 181.278 34.4597 178.771 34.5407C177.023 34.5972 175.294 35.0902 173.594 35.4665C169.412 36.3923 165.23 37.5483 160.998 38.2207C156.599 38.9196 152.405 37.7834 151.838 32.6863Z" fill="#231815"/>
<path d="M141.744 20.6134C143.077 20.8839 143.961 19.1886 142.748 18.4217C141.616 17.7066 139.927 19.4256 141.744 20.6134Z" fill="#231815"/>
</g>
</g>
<defs>
<clipPath id="clip0_268_1106">
<rect width="270" height="200" fill="white"/>
</clipPath>
<clipPath id="clip1_268_1106">
<rect width="133.333" height="133.333" fill="white" transform="translate(68.3334 5.83333)"/>
</clipPath>
</defs>
</svg>
