<svg width="40" height="40" viewBox="0 0 40 40" fill="none" xmlns="http://www.w3.org/2000/svg">
<path d="M22.8146 35.1633L16.6813 35.3983C11.4088 35.9469 11.1935 37.5141 16.0356 38.1409C20.8777 38.7677 27.5491 38.1409 27.9795 36.9654C28.4099 35.7902 25.2894 35.32 22.8146 35.1633Z" fill="#778599"/>
<path d="M18.3153 1.32877C7.64003 1.13301 5.34696 11.1106 5.74647 15.5581C6.4791 23.7142 19.8656 37.5823 19.8656 37.5823L20.2441 37.6909C20.2441 37.6909 29.7142 25.3873 31.3249 15.5293C31.884 12.1062 30.9922 1.56123 18.3153 1.32877Z" fill="#46B2FF"/>
<path d="M23.218 13.0577C23.218 15.5852 21.1672 17.6341 18.6373 17.6341C16.1075 17.6341 14.0566 15.5852 14.0566 13.0577C14.0566 10.5301 16.1075 8.4812 18.6373 8.4812C21.1671 8.4812 23.218 10.5301 23.218 13.0577Z" fill="#0A61F5"/>
<path d="M20.9244 37.0184C21.1541 36.7518 21.4122 36.385 21.7436 35.9585C22.1371 35.4474 22.6297 34.8457 23.1413 34.114C23.4315 33.7077 23.7109 33.2505 24.0253 32.7748C24.5508 31.9995 25.1264 31.1436 25.7068 30.1919C25.9882 29.7154 26.279 29.2204 26.567 28.7012C26.8493 28.1788 27.1408 27.6394 27.4411 27.084C27.7878 26.4121 28.1185 25.7715 28.4362 25.1559C28.7317 24.5283 29.0153 23.9264 29.2897 23.3439C29.5243 22.7793 29.7406 22.2277 29.953 21.6901C30.0644 21.4234 30.153 21.1508 30.2439 20.8822C30.3363 20.6142 30.4277 20.3488 30.5186 20.0854C30.5926 19.8753 30.6663 19.6665 30.7397 19.4586C30.8017 19.2465 30.8635 19.0353 30.9251 18.8244C31.0482 18.4027 31.1705 17.9831 31.2933 17.5626C31.3949 17.1358 31.48 16.7031 31.5739 16.2692C31.6196 16.0519 31.6654 15.8336 31.7115 15.6139C31.7485 15.3864 31.7771 15.1545 31.7966 14.9238C31.8639 14.1128 31.8185 13.2868 31.7386 12.431C31.6157 11.277 31.4137 10.2925 31.1325 9.39843C30.8522 8.50471 30.5081 7.69549 30.0577 6.90928C29.6917 6.2592 29.2164 5.65104 28.6594 5.02461C28.5692 4.926 28.4826 4.82111 28.3864 4.72257C28.2886 4.62543 28.1894 4.52682 28.0883 4.42657C27.8926 4.21931 27.6633 4.03497 27.4346 3.83285C27.2053 3.6313 26.9427 3.45422 26.6818 3.25373C26.5435 3.16507 26.4024 3.07478 26.2585 2.98244C26.1141 2.89101 25.9686 2.79443 25.8094 2.71515C24.939 2.22771 23.8987 1.82005 22.6874 1.50863C22.5506 1.4707 22.3525 1.43163 22.1121 1.3769C21.8716 1.32192 21.5873 1.25855 21.2705 1.21703C20.9545 1.17111 20.611 1.10798 20.2507 1.08538C19.8911 1.05732 19.5188 1.01254 19.1474 1.01328C17.662 0.945658 16.2088 1.15365 15.7939 1.24705C15.6957 1.26132 15.597 1.27584 15.4976 1.29036C15.3991 1.31059 15.3 1.3309 15.2004 1.35145C15.0011 1.39223 14.7999 1.43342 14.5974 1.47486C14.1978 1.58245 13.7886 1.67714 13.3935 1.82054C12.599 2.0875 11.8234 2.42812 11.1526 2.8508C10.175 3.44239 9.41419 4.16605 8.89657 4.75634C8.3535 5.37094 7.92862 5.9645 7.57406 6.51466C7.23613 7.07412 6.94991 7.58122 6.74143 8.0605C6.2792 9.07918 6.0283 9.90047 5.83866 10.6268C5.65301 11.355 5.53115 11.9928 5.43189 12.6909C5.3566 13.205 5.30269 13.7538 5.27944 14.4014C5.27316 14.5634 5.27014 14.7315 5.27455 14.9073C5.27398 15.0827 5.28262 15.2658 5.29502 15.4573C5.30032 15.6489 5.338 15.8474 5.36076 16.0554C5.37438 16.1593 5.38833 16.2654 5.40252 16.3739C5.41859 16.4819 5.44616 16.5889 5.46851 16.7001C5.6796 17.7406 6.0659 18.7863 6.52169 19.8402C6.90293 20.6979 7.30171 21.5831 7.78898 22.4467C7.97618 22.792 8.18988 23.1255 8.39543 23.4677C8.60864 23.8045 8.82365 24.1443 9.04021 24.4864C9.55358 25.2812 10.0581 26.1012 10.6233 26.8906C11.4913 28.1178 12.4364 29.3147 13.3842 30.5071C13.9698 31.2401 14.5384 31.9872 15.1403 32.7006C15.7205 33.3922 16.2876 33.9969 16.7856 34.5491C17.4918 35.3337 18.081 35.9956 18.5692 36.4837C19.5362 37.4488 20.0175 37.8114 19.8187 37.4681C19.6683 37.2025 19.1326 36.5244 18.2184 35.3978C17.6087 34.6456 16.8074 33.7131 15.8719 32.543C15.0776 31.5472 14.1944 30.3745 13.198 29.0425C12.5126 28.1271 11.7593 27.1448 11.0089 26.0456C10.3348 25.0514 9.79689 24.1677 9.32879 23.3841C8.68246 22.3061 8.15994 21.416 7.75097 20.5842C7.15815 19.3683 6.74869 18.3076 6.40652 17.0749C6.35073 16.8397 6.29371 16.5988 6.23466 16.3497C6.18295 16.1001 6.15008 15.8404 6.10342 15.5702C6.03605 15.0269 6.01492 14.4265 6.04681 13.7625C6.08458 12.9538 6.23083 12.0548 6.46035 11.0419C6.83768 9.40732 7.41247 7.98318 8.14347 6.78693C8.93164 5.52127 9.89192 4.52731 10.926 3.76222C11.7466 3.15227 12.611 2.66205 13.5263 2.32013C14.5781 1.92902 15.6772 1.72674 16.8131 1.61719L17.3249 1.57306L17.8391 1.55488C18.0106 1.55015 18.1823 1.54101 18.3546 1.54134L18.8729 1.56091C19.0809 1.572 19.2898 1.58041 19.4984 1.59835C19.7063 1.62372 19.9148 1.64908 20.1245 1.6747C20.5452 1.71532 20.961 1.80863 21.3866 1.87559C22.4526 2.08261 23.5492 2.36474 24.6328 2.85985C25.4088 3.21687 26.1669 3.68775 26.8991 4.26181C28.0183 5.17551 28.7979 6.11173 29.3267 7.00985C29.8517 7.89297 30.1538 8.71735 30.396 9.47388C30.4888 9.74027 30.551 10.0071 30.6275 10.2632C30.6863 10.5241 30.7587 10.7762 30.8038 11.0324C30.9133 11.5409 30.9792 12.0501 31.0262 12.5802C31.067 13.0713 31.0721 13.5828 31.0495 14.13C31.0377 14.4033 31.0176 14.6865 30.9816 14.9774C30.9672 15.1241 30.9422 15.27 30.9196 15.42C30.8921 15.5716 30.8531 15.7304 30.82 15.8912C30.7258 16.3504 30.6251 16.8412 30.5161 17.3717C30.3697 17.8956 30.2123 18.4587 30.0417 19.0689C29.8554 19.6402 29.6447 20.1789 29.4561 20.7011C29.4081 20.8315 29.3605 20.9606 29.3134 21.0883C29.26 21.2141 29.2072 21.3386 29.1547 21.462C29.0516 21.7094 28.9502 21.9523 28.8508 22.1909C28.5263 23.0266 28.1805 23.7974 27.8506 24.5331C27.3005 25.6853 26.7458 26.7302 26.1938 27.7447C25.7857 28.5332 25.3672 29.2987 24.9361 30.0731C24.4218 30.9465 23.8725 31.8198 23.2893 32.7471C23.0675 33.1053 22.8409 33.4714 22.6078 33.8477C22.3766 34.2256 22.1329 34.6095 21.8712 34.9991C21.516 35.5393 21.1851 35.9732 20.9471 36.3506C20.4578 37.104 20.2149 37.5359 20.2142 37.6489C20.2134 37.7627 20.462 37.5598 20.9244 37.0184Z" fill="#30343B"/>
<path d="M21.64 15.8989C21.8805 15.5962 22.0338 15.2694 22.1998 14.998C22.2837 14.8179 22.4034 14.6706 22.4698 14.5066C22.5033 14.4361 22.5357 14.3679 22.5671 14.3018C22.596 14.2344 22.6177 14.1674 22.644 14.1041C22.6969 13.9775 22.7479 13.8604 22.789 13.7525C22.9002 13.5166 22.9843 13.3268 23.076 13.2051C23.1681 13.0839 23.2613 13.0306 23.3444 13.0708C23.4932 13.1427 23.7066 13.6308 23.4696 14.5887C23.3743 14.9083 23.1631 15.4765 22.694 16.107C22.4699 16.4215 22.181 16.7459 21.8126 17.0462C21.4334 17.3547 20.9523 17.6017 20.4285 17.7971C19.9625 17.9752 19.4455 18.0971 18.8988 18.1136C18.4834 18.1383 18.0558 18.0644 17.6313 17.9856C17.2176 17.8804 16.7921 17.774 16.3999 17.5601C16.208 17.4744 16.0377 17.3445 15.8583 17.2311C15.7718 17.1693 15.6908 17.0995 15.6066 17.0343C15.5228 16.9684 15.4382 16.9037 15.3623 16.8284C15.1203 16.6134 14.8842 16.3902 14.6853 16.1278L14.5032 15.8737C14.4471 15.7855 14.3981 15.6925 14.3459 15.6017C14.2356 15.4234 14.1622 15.2257 14.0712 15.0387C13.908 14.6253 13.7559 14.206 13.7117 13.7646C13.6745 13.5555 13.685 13.3421 13.6807 13.1319C13.6873 12.9216 13.7104 12.7123 13.7317 12.5065C13.7716 12.2956 13.7887 12.0826 13.8499 11.8786C13.8768 11.776 13.9004 11.6725 13.9312 11.5712L14.0434 11.2737C14.1644 10.976 14.3348 10.6989 14.509 10.4361C14.6946 10.1504 14.8967 9.88051 15.1327 9.63696C15.3357 9.44055 15.5613 9.26665 15.7898 9.10841L15.9107 9.01828L16.0382 8.93867L16.2915 8.77823C16.4687 8.68769 16.6422 8.58655 16.8295 8.51706C17.2715 8.33043 17.7488 8.2549 18.213 8.19919C18.5833 8.16836 18.9536 8.14414 19.3231 8.19234L19.6219 8.23443L19.9148 8.30743C20.1121 8.34919 20.2974 8.42782 20.4878 8.48826C20.9573 8.66714 21.3958 8.88932 21.7613 9.18141C22.2107 9.54087 22.5457 9.97635 22.7997 10.3902C23.1042 10.8805 23.2802 11.3633 23.3609 11.7779C23.3811 11.8958 23.4004 12.0075 23.406 12.1138C23.4085 12.2201 23.4107 12.3191 23.4127 12.4096C23.4247 12.5632 23.413 12.6947 23.4064 12.8011C23.399 12.9078 23.39 12.9897 23.3753 13.0467C23.2883 13.0909 23.2216 13.0055 23.1393 12.7063C23.1171 12.6042 23.0657 12.4801 23.0197 12.3293C22.9806 12.1768 22.9053 12.0057 22.8401 11.8034C22.7105 11.4901 22.5774 11.0922 22.2798 10.6699C22.1984 10.548 22.0928 10.4321 21.9925 10.3038C21.8757 10.1892 21.765 10.0583 21.6332 9.93867C21.4436 9.75817 21.2419 9.56673 20.9897 9.40058C20.7489 9.24544 20.4692 9.11126 20.1692 8.99732L19.959 8.91282C19.8883 8.88541 19.8143 8.86697 19.7414 8.84291C19.6679 8.82024 19.5939 8.7974 19.5193 8.7744C19.4426 8.76045 19.3652 8.74634 19.2872 8.73214C18.942 8.66591 18.5756 8.68467 18.2126 8.70343C18.0502 8.72268 17.8865 8.73957 17.7223 8.76249C17.5617 8.8014 17.3935 8.82285 17.2343 8.88231C16.9641 8.97073 16.7043 9.1058 16.4545 9.24805C16.2059 9.39014 15.9599 9.53843 15.74 9.73174C15.4115 10.0062 15.1508 10.3611 14.9172 10.7189C14.6733 11.0878 14.4823 11.4914 14.3656 11.9211C14.2541 12.2896 14.2455 12.6812 14.2317 13.0578C14.2434 13.2255 14.2402 13.3923 14.255 13.5576C14.2814 13.7209 14.2879 13.8884 14.336 14.0477C14.425 14.4452 14.6124 14.81 14.7954 15.1547C14.8773 15.2803 14.9475 15.4104 15.028 15.5331C15.1164 15.6502 15.1962 15.7734 15.2942 15.8817C15.5844 16.2158 15.9426 16.4714 16.2907 16.6915C16.6807 16.94 17.0933 17.1121 17.5055 17.216C17.9269 17.3277 18.3524 17.3269 18.7378 17.3119C18.9225 17.2974 19.101 17.2931 19.2705 17.2589C19.3555 17.2445 19.4402 17.2359 19.5214 17.2173C19.6017 17.1949 19.6807 17.173 19.7586 17.1512C20.1904 17.0148 20.5508 16.8174 20.8263 16.62C21.252 16.3295 21.5195 16.0644 21.64 15.8989Z" fill="#30343B"/>
<path d="M14.8947 35.9073C15.6484 35.7673 16.2319 35.6437 16.5074 35.532C16.7826 35.4199 16.7503 35.321 16.274 35.2972C16.1027 35.2898 15.8775 35.304 15.586 35.3285C15.313 35.3521 14.9802 35.381 14.5926 35.4579C14.1567 35.5459 13.7338 35.662 13.3136 35.8289C13.1622 35.8916 13.0098 35.9573 12.8592 36.0455C12.7097 36.1318 12.5557 36.2404 12.4263 36.4177C12.3903 36.473 12.3542 36.5261 12.3332 36.6012C12.3052 36.6686 12.2979 36.747 12.2989 36.8267C12.2992 36.9036 12.3248 36.9789 12.3482 37.047C12.3803 37.1048 12.4116 37.1747 12.4523 37.2175C12.6107 37.4102 12.7909 37.5161 12.9678 37.6073C13.3306 37.7946 13.7055 37.9128 14.0916 38.0087C14.3737 38.0734 14.6607 38.1214 14.9545 38.1662C15.2902 38.2217 15.635 38.2721 15.9894 38.3103C16.2653 38.3368 16.5464 38.351 16.8361 38.3711C17.1392 38.3925 17.452 38.4215 17.7737 38.436C18.1162 38.4521 18.4684 38.4525 18.8351 38.4619C19.278 38.4707 19.742 38.4898 20.2268 38.4879C20.5266 38.4876 20.8241 38.4749 21.1234 38.4681C21.4722 38.4621 21.8231 38.4609 22.17 38.4457C22.4185 38.4349 22.6635 38.4112 22.9101 38.3953C23.1753 38.379 23.4424 38.3686 23.705 38.3465C23.9634 38.3232 24.2169 38.2872 24.4717 38.2578C24.7602 38.2241 25.0498 38.1957 25.3328 38.1516C25.677 38.0962 26.0122 38.0224 26.3448 37.9457C26.6116 37.8788 26.8806 37.8209 27.1373 37.7269C27.3292 37.657 27.5118 37.5716 27.6907 37.4629C27.7893 37.4052 27.888 37.3389 27.9774 37.2479C28.0695 37.1674 28.1443 37.0199 28.1685 36.9024C28.2234 36.6784 28.1364 36.4286 28.0036 36.2736C27.8697 36.1152 27.7118 36.0095 27.5561 35.9186C27.2373 35.7398 26.9142 35.6178 26.6007 35.5249C26.2262 35.4147 25.8652 35.3498 25.5242 35.2849C25.1775 35.2201 24.8497 35.1597 24.5453 35.1188C24.2678 35.0818 24.0206 35.0709 23.8052 35.0603C23.5678 35.0492 23.3686 35.0396 23.2138 35.0503C22.7748 35.0816 22.6834 35.1645 23.0129 35.2709C23.106 35.3019 23.2339 35.3453 23.3954 35.3795C23.6118 35.4249 23.8902 35.4608 24.2353 35.5162C24.5515 35.5712 24.9256 35.6361 25.3567 35.711C25.6826 35.7677 26.0411 35.8238 26.426 35.9179C26.7102 35.9916 27.0126 36.0882 27.2992 36.2223C27.4691 36.302 27.6208 36.3948 27.7224 36.5032C27.8177 36.6133 27.8602 36.7262 27.8257 36.8585C27.8018 36.989 27.6749 37.0982 27.5199 37.1913C27.3687 37.2847 27.196 37.356 27.0226 37.4217C26.679 37.5493 26.3218 37.6537 25.9394 37.7352C25.5433 37.8186 25.1195 37.874 24.6595 37.9342C24.3084 37.9809 23.9361 38.0322 23.5279 38.0687C22.994 38.1161 22.4017 38.144 21.7366 38.1718C21.2713 38.192 20.7711 38.2156 20.2247 38.2205C19.6678 38.2249 19.1058 38.2066 18.5478 38.1857C18.2491 38.1746 17.9519 38.173 17.6549 38.1532C17.126 38.1191 16.6005 38.0608 16.086 37.9956C15.6761 37.9413 15.2716 37.8926 14.8785 37.811C14.5735 37.7457 14.2744 37.6645 13.9894 37.574C13.6247 37.4586 13.2602 37.336 12.9852 37.1369C12.836 37.0309 12.7226 36.8842 12.7513 36.7984C12.7515 36.7083 12.8861 36.5868 13.0251 36.4976C13.2851 36.3373 13.587 36.2189 13.8833 36.1311C14.2287 36.0313 14.5718 35.9667 14.8947 35.9073Z" fill="#30343B"/>
</svg>
