<svg width="320" height="320" viewBox="0 0 320 320" fill="none" xmlns="http://www.w3.org/2000/svg">
<g clip-path="url(#clip0_288_10064)">
<g clip-path="url(#clip1_288_10064)">
<path d="M149.712 169.796C147.5 169.066 145.377 168.221 143.282 167.488C140.253 166.43 137.322 165.474 134.599 164.441C131.428 163.23 128.536 161.934 125.896 160.814C123.352 159.705 121.031 158.786 119.092 157.816C114.022 155.324 111.259 153.345 111.452 153.005C111.648 152.646 114.282 153.657 118.804 155.264C120.951 156.03 123.518 156.944 126.427 157.979C128.326 158.607 130.368 159.282 132.531 159.996C134.343 160.622 136.239 161.279 138.208 161.96C140.106 162.573 142.07 163.206 144.09 163.858C146.302 164.611 148.581 165.385 150.909 166.177C153.287 166.941 155.155 167.541 156.732 168.049C159.053 168.855 160.739 169.44 162.498 170.052C163.343 170.322 164.205 170.6 165.161 170.906C165.576 171.036 166.013 171.171 166.477 171.315L166.557 171.32C166.696 171.248 166.838 171.174 166.988 171.096C168.218 170.46 169.634 169.729 171.328 168.855C173.324 167.772 175.279 166.71 177.182 165.677C179.53 164.471 181.801 163.306 183.973 162.192C186.396 160.931 188.695 159.734 190.843 158.617C193.13 157.464 195.278 156.463 197.204 155.528C198.717 154.792 200.082 154.08 201.335 153.497C205.817 151.413 208.528 150.359 208.711 150.7C208.872 151 207.007 152.229 203.712 154.296C201.777 155.511 199.382 157.081 196.521 158.747C194.107 160.154 191.346 161.599 188.404 163.25C186.13 164.526 183.769 165.964 181.241 167.349C178.585 168.804 175.752 170.211 172.88 171.751C171.807 172.33 170.862 172.876 170.005 173.376C169.576 173.626 169.168 173.862 168.782 174.088C168.573 174.206 168.369 174.321 168.17 174.436C167.808 174.633 167.456 174.825 167.11 175.015C166.905 175.213 166.667 175.037 166.444 174.992C166.218 174.924 165.997 174.857 165.777 174.79C165.491 174.703 165.21 174.619 164.937 174.537C164.505 174.402 164.093 174.276 163.696 174.152C162.905 173.903 162.172 173.671 161.454 173.443C160.017 172.985 158.631 172.545 156.918 171.998C155.063 171.418 152.793 170.816 149.712 169.796Z" fill="#30343B"/>
<path d="M70.4135 246.062C66.3303 222.115 86.2042 164.573 105.8 149.335C105.8 149.335 108.354 148.182 109.575 151.356C110.796 154.531 111.471 156.132 111.471 156.132C126.9 176.129 154.611 206.099 164.325 205.528C174.039 204.957 216.613 146.419 216.613 146.419C241.314 159.261 265.291 207.298 263.658 240.225L263.01 245.344H221.963C221.963 245.344 212.123 245.521 204.583 245.521C195.047 245.521 188.616 245.743 182.406 245.743C176.197 245.743 169.544 246.062 160.673 246.062C152.468 246.062 146.258 246.062 146.258 246.062H132.952C132.952 246.062 125.634 246.062 122.529 246.062C119.424 246.062 106.34 246.062 106.34 246.062H96.3603H86.6026H77.9341H70.4135Z" fill="#30343B"/>
<path d="M54.7812 99.5696C55.6253 98.549 56.5669 97.5958 57.662 96.8321C58.184 96.4231 58.77 96.1025 59.3399 95.7725C59.9258 95.4713 60.6958 95.1373 61.2644 94.991C63.0332 94.4521 64.641 94.1806 66.228 93.9393C67.8123 93.6927 69.3438 93.5317 70.8332 93.4253C74.2995 93.1787 77.5191 93.2252 80.4269 93.2057C83.2372 93.1862 85.7609 93.1263 87.9453 93.2071C93.6363 93.4381 97.0041 93.8772 97.0063 94.3159C97.0103 94.7315 94.1504 95.1431 89.2817 95.5857C86.9739 95.7636 84.2152 95.9765 81.0904 96.2182C79.0724 96.3806 76.9123 96.6378 74.6281 96.8507C72.7125 97.0521 70.6971 97.1882 68.6475 97.4779C66.7035 97.7546 64.6472 98.1206 62.8265 98.6608L62.1005 98.8865C61.9106 98.9761 61.7226 99.0604 61.5279 99.1371C61.1265 99.3775 60.6563 99.6135 60.2616 99.9346C59.4149 100.51 58.6786 101.294 57.9769 102.125C56.6068 103.886 55.8794 105.578 55.3002 107.001C54.461 109.137 53.99 110.789 53.6351 112.542C53.3091 114.22 53.1495 116.009 53.0794 118.507C53.0404 119.852 53.0066 121.474 53.0457 123.384C53.0976 125.667 53.2329 127.906 53.3158 130.085C53.4156 132.743 53.4701 135.315 53.5961 137.772C53.7376 140.52 53.9518 143.121 54.1208 145.55C54.2973 148.119 54.43 150.497 54.6353 152.633C54.7963 154.313 55.0327 155.833 55.2066 157.199C55.5313 159.635 55.8612 161.55 56.1912 162.808C56.4951 164.081 56.8197 164.686 56.6587 164.845C56.5443 164.967 55.9925 164.614 55.4093 163.655C54.8234 162.707 54.2224 161.219 53.6445 159.3C52.9574 157.043 52.2251 154.194 51.6809 150.852C51.2276 148.032 50.9447 144.866 50.608 141.448C50.3468 138.804 49.999 136.011 49.8172 133.083C49.6265 130.005 49.6003 126.788 49.5222 123.468C49.4508 120.982 49.2951 119.024 49.3351 117.278C49.544 113.041 49.9702 110.688 51.087 106.983C51.7514 105.008 52.5139 102.504 54.7812 99.5696Z" fill="#30343B"/>
<path d="M52.3673 183.499C52.5531 181.307 52.8946 179.174 53.1789 177.076C53.3763 175.564 53.5972 174.067 53.8815 172.573C54.0505 171.812 54.2141 171.059 54.545 170.191C54.7517 169.696 55.1841 168.96 55.6086 168.644C56.0384 168.259 56.4775 167.997 56.8878 167.803C58.8163 166.931 60.4476 166.847 62.0097 166.733C63.5643 166.65 65.0125 166.691 66.3825 166.733C69.0269 166.822 71.3723 166.938 73.3891 167.172C76.0152 167.487 78.0812 167.819 79.4903 168.068C80.9061 168.335 81.6308 168.447 81.6841 168.661C81.7346 168.865 81.0361 169.179 79.7826 169.335C78.5305 169.506 76.7151 169.59 74.4513 169.637C72.3046 169.688 69.7459 169.639 66.8926 169.769C65.0577 169.862 63.0715 170.044 61.1417 170.41C59.5756 170.693 57.7717 171.285 58.013 171.872C57.5934 173.293 57.3961 175.307 57.161 177.203C56.9024 179.336 56.6376 181.562 56.4429 183.847C56.2429 186.167 56.1648 188 56.0468 189.543C55.8455 191.835 55.6973 193.498 55.5443 195.233C55.4197 196.891 55.3638 198.619 55.2445 201.024C55.1846 202.316 55.0573 203.803 55.0041 205.585C54.9637 207.707 54.9233 209.787 54.8861 211.81C54.8054 214.276 54.7278 216.661 54.6537 218.941C54.6288 221.492 54.6058 223.912 54.5836 226.174C54.5574 228.562 54.4643 230.776 54.4665 232.768C54.4625 234.336 54.5237 235.768 54.5432 237.047C54.5756 239.334 54.6107 241.151 54.7016 242.363C54.7677 243.584 54.9211 244.154 54.7548 244.306C54.643 244.428 54.1392 243.993 53.7755 243.028C53.4065 242.074 53.0339 240.64 52.7287 238.822C52.3522 236.682 51.9237 233.999 51.6922 230.88C51.4975 228.248 51.4882 225.309 51.4039 222.133C51.3427 219.678 51.191 217.077 51.2025 214.364C51.2127 211.511 51.383 208.539 51.482 205.473C51.4975 203.177 51.5103 201.362 51.521 199.825C51.639 196.048 51.8275 193.965 51.9978 190.587C52.1011 188.761 52.1051 186.552 52.3673 183.499Z" fill="#30343B"/>
<path d="M262.039 102.694C260.712 101.18 259.239 99.8486 257.502 99.4139C254.664 98.6204 251.577 98.2971 248.753 97.8868C245.439 97.4207 242.326 96.939 239.494 96.6063C236.753 96.2843 234.274 96.1322 232.138 95.8661C226.567 95.1986 223.254 94.6495 223.271 94.1988C223.288 93.7939 226.136 93.4821 231.003 93.3965C233.31 93.3548 236.068 93.4355 239.194 93.5379C241.217 93.604 243.398 93.6484 245.707 93.8121C247.65 93.9495 249.676 94.186 251.797 94.4432C253.827 94.6872 255.929 94.9276 258.174 95.4846C258.475 95.5472 258.81 95.6691 259.128 95.7636C259.45 95.8661 259.762 95.9543 260.136 96.1313C260.904 96.4351 261.442 96.8259 262.047 97.1989C263.18 98.0221 264.259 98.9517 265.145 100.03C266.997 102.188 267.953 104.155 268.66 105.811C269.631 108.304 269.995 110.189 270.321 112.132C270.616 113.985 270.901 115.916 270.969 118.606C270.997 120.097 270.915 121.588 270.986 123.504C271.089 125.773 271.19 127.994 271.287 130.158C271.382 132.804 271.4 135.37 271.446 137.825C271.498 140.574 271.572 143.185 271.535 145.631C271.494 148.215 271.339 150.611 271.178 152.775C271.048 154.476 270.939 156.041 270.734 157.439C270.346 159.937 269.835 161.918 269.199 163.208C268.582 164.522 267.823 164.998 267.7 164.849C267.554 164.709 267.816 164.249 268.047 163.286C268.284 162.321 268.497 160.848 268.596 158.942C268.718 156.701 268.604 153.868 268.529 150.584C268.469 147.81 268.466 144.704 268.308 141.34C268.186 138.739 267.918 135.986 267.77 133.106C267.616 130.075 267.57 126.904 267.464 123.615C267.409 122.375 267.36 121.263 267.316 120.254C267.251 119.274 267.229 118.436 267.155 117.653C266.856 113.831 266.511 111.717 265.447 108.538C264.815 106.857 263.849 104.866 262.039 102.694Z" fill="#30343B"/>
<path d="M267.838 183.419C267.644 181.256 267.572 179.121 267.32 177.089C267.146 175.622 266.913 174.186 266.614 172.903C266.531 172.606 266.468 172.232 266.375 172.014L266.251 171.64C266.211 171.498 266.201 171.612 266.23 171.552C266.232 171.5 265.868 171.222 265.406 171.035C264.293 170.565 262.817 170.285 261.441 170.088C260.043 169.893 258.66 169.773 257.339 169.71C254.78 169.592 252.45 169.693 250.425 169.654C247.787 169.607 245.663 169.538 244.192 169.365C242.726 169.216 241.892 168.874 241.948 168.651C241.996 168.454 242.621 168.345 243.837 168.114C245.051 167.893 246.834 167.606 249.107 167.311C251.266 167.039 253.86 166.81 256.843 166.67C258.777 166.592 260.867 166.488 263.172 166.719C264.144 166.818 265.153 166.988 266.24 167.33C266.785 167.503 267.357 167.731 267.958 168.085C268.553 168.442 269.239 169.005 269.676 169.922C269.865 170.301 269.907 170.508 270.027 170.815C270.142 171.111 270.209 171.365 270.275 171.619C270.419 172.134 270.553 172.651 270.652 173.147C270.883 174.16 271.046 175.157 271.203 176.18C271.535 178.424 271.701 180.72 271.914 183.064C272.118 185.442 272.302 187.302 272.388 188.877C272.518 191.215 272.507 192.915 272.563 194.685C272.632 196.37 272.702 198.123 272.801 200.565C272.826 201.876 272.854 203.388 272.887 205.194C272.958 207.345 273.064 209.452 273.089 211.504C273.126 214.007 273.063 216.428 273.037 218.742C273.011 221.332 273.004 223.793 272.91 226.089C272.798 228.52 272.609 230.765 272.424 232.795C272.286 234.389 272.189 235.854 271.999 237.163C271.664 239.504 271.287 241.355 270.814 242.604C270.375 243.867 269.751 244.458 269.605 244.311C269.446 244.17 269.604 243.744 269.69 242.788C269.775 241.838 269.892 240.433 269.908 238.612C269.944 236.478 269.828 233.797 269.804 230.69C269.786 228.068 269.855 225.139 269.797 221.965C269.751 219.511 269.568 216.914 269.499 214.202C269.425 211.354 269.465 208.374 269.365 205.306C269.283 203.012 269.071 201.202 268.991 199.668C268.788 195.898 268.744 193.809 268.508 190.444C268.372 188.625 268.102 186.438 267.838 183.419Z" fill="#30343B"/>
<path d="M319.589 288.054C319.599 287.179 319.537 286.301 319.542 285.432C319.549 284.593 319.624 283.764 319.628 282.932C319.632 282.182 319.565 281.428 319.569 280.683C319.575 279.778 319.651 278.885 319.659 277.989C319.669 276.925 319.612 275.863 319.633 274.814C319.648 273.954 319.74 273.105 319.767 272.256C319.782 271.754 319.744 270.926 319.783 270.012C319.813 269.282 319.919 268.503 319.952 267.771C320.007 266.519 319.986 265.42 320.004 265.065C320.034 264.428 320.136 263.8 320.164 263.17C320.202 262.343 320.165 261.517 320.196 260.703C320.229 259.816 320.326 258.946 320.344 258.074C320.356 257.546 320.294 257.011 320.298 256.489C320.309 255.106 320.344 253.697 320.214 252.386C320.142 251.679 319.973 250.994 319.838 250.368C319.663 249.552 319.498 248.83 319.186 248.236C318.584 247.09 317.697 246.441 316.402 246.615C315.837 246.693 315.519 247.179 315.168 247.932C314.903 248.5 314.563 249.222 314.399 250.038C314.257 250.752 314.277 251.539 314.197 252.36C314.1 253.36 313.916 254.409 313.893 255.439C313.872 256.375 314.007 257.293 314.03 258.141C314.065 259.389 314.009 260.482 314.095 261.25C314.119 261.78 314.282 262.442 314.322 263.212C314.357 263.881 314.269 264.633 314.311 265.449C314.344 266.113 314.509 266.821 314.543 267.563C314.581 268.402 314.487 269.285 314.521 270.199C314.549 271.035 314.707 271.897 314.726 272.775C314.74 273.375 314.622 273.981 314.63 274.593C314.644 275.674 314.794 276.767 314.817 277.854C314.835 278.714 314.728 279.571 314.75 280.418C314.771 281.176 314.922 281.926 314.946 282.659C314.974 283.589 314.874 284.494 314.904 285.36C314.936 286.28 315.099 287.158 315.129 287.975C315.157 288.712 315.054 289.471 315.08 290.245C315.106 291.063 315.262 291.901 315.285 292.749C315.311 293.708 315.206 294.679 315.225 295.655C315.242 296.421 315.386 297.193 315.398 297.962C315.408 298.658 315.286 299.351 315.293 300.039C315.299 300.805 315.435 301.564 315.443 302.311C315.45 302.914 315.325 303.507 315.332 304.09C315.338 304.836 315.474 305.563 315.48 306.27C315.485 306.975 315.36 307.658 315.362 308.313C315.364 309.007 315.436 309.664 315.433 310.29C315.431 310.926 315.355 311.529 315.345 312.082C315.366 312.918 315.598 313.671 315.761 314.32C315.902 314.886 315.958 315.374 316.169 315.773C316.986 317.307 318.132 317.517 318.781 315.746C318.981 315.203 319.197 314.481 319.261 313.547C319.3 312.987 319.239 312.345 319.215 311.632C319.178 310.615 319.219 309.31 319.194 307.978C319.168 306.6 319.077 305.195 319.064 304.086C319.051 302.938 319.113 302.106 319.113 301.919C319.112 301.228 319.04 300.532 319.038 299.831C319.037 298.626 319.158 297.392 319.229 296.05C319.255 295.557 319.212 295.044 319.241 294.521C319.278 293.87 319.387 293.203 319.423 292.494C319.457 291.823 319.419 291.117 319.448 290.382C319.477 289.64 319.571 288.872 319.589 288.054Z" fill="#30343B"/>
<path d="M1.75852 276.384C1.74699 277.241 1.81041 278.102 1.80376 278.951C1.79844 279.775 1.72304 280.585 1.71816 281.401C1.71417 282.136 1.78158 282.875 1.77804 283.603C1.77271 284.491 1.69509 285.366 1.68711 286.243C1.67691 287.284 1.73368 288.326 1.71328 289.353C1.69776 290.194 1.6055 291.025 1.57933 291.858C1.56381 292.349 1.60151 293.16 1.56381 294.056C1.53276 294.771 1.42764 295.536 1.39482 296.254C1.33894 297.48 1.35978 298.554 1.34293 298.903C1.31188 299.526 1.21031 300.141 1.18192 300.76C1.14422 301.567 1.18059 302.378 1.15088 303.175C1.1185 304.044 1.01959 304.897 1.0014 305.75C0.989873 306.268 1.0533 306.79 1.04798 307.304C1.03777 308.657 1.0014 310.036 1.13358 311.322C1.20366 312.015 1.37397 312.685 1.50748 313.298C1.68268 314.098 1.84767 314.804 2.16081 315.389C2.76224 316.508 3.64931 317.144 4.94399 316.973C5.51039 316.898 5.82707 316.423 6.17924 315.684C6.4427 315.127 6.78334 314.42 6.947 313.622C7.09115 312.922 7.06897 312.152 7.1497 311.348C7.24727 310.369 7.43134 309.341 7.45352 308.333C7.47436 307.415 7.33909 306.515 7.31602 305.686C7.28098 304.463 7.33687 303.392 7.25127 302.64C7.22909 302.122 7.06409 301.473 7.02418 300.718C6.98914 300.063 7.07873 299.327 7.03571 298.526C7.002 297.877 6.83833 297.184 6.80463 296.456C6.76559 295.636 6.85918 294.771 6.8268 293.875C6.79709 293.056 6.64096 292.211 6.62011 291.351C6.60592 290.764 6.7239 290.169 6.71636 289.569C6.7035 288.512 6.5527 287.441 6.52919 286.376C6.51101 285.534 6.62012 284.692 6.59661 283.865C6.57576 283.121 6.42407 282.387 6.4019 281.669C6.37351 280.758 6.47197 279.872 6.44226 279.022C6.40988 278.121 6.24888 277.263 6.21738 276.461C6.19033 275.74 6.29279 274.997 6.26795 274.238C6.24089 273.437 6.08477 272.616 6.06126 271.785C6.03509 270.847 6.14198 269.897 6.12114 268.941C6.10561 268.188 5.96013 267.433 5.94949 266.681C5.93929 265.998 6.05993 265.319 6.05328 264.645C6.04795 263.895 5.91046 263.152 5.90247 262.42C5.89715 261.83 6.02045 261.248 6.01558 260.676C6.00892 259.947 5.87143 259.234 5.8661 258.542C5.86078 257.851 5.98675 257.183 5.98409 256.54C5.98142 255.862 5.91001 255.218 5.91268 254.605C5.91534 253.982 5.99207 253.393 6.00094 252.85C5.98142 252.031 5.74768 251.294 5.58535 250.657C5.44519 250.102 5.3893 249.624 5.17774 249.233C4.36074 247.731 3.2142 247.526 2.56487 249.26C2.36616 249.791 2.14927 250.499 2.08452 251.413C2.04549 251.962 2.1067 252.591 2.13242 253.288C2.16879 254.286 2.12843 255.565 2.15327 256.87C2.17944 258.218 2.26903 259.594 2.28189 260.68C2.29609 261.804 2.23266 262.62 2.23266 262.805C2.23532 263.481 2.30673 264.163 2.30806 264.848C2.31072 266.03 2.18875 267.238 2.11734 268.552C2.09117 269.035 2.13419 269.539 2.10448 270.051C2.06811 270.687 1.96033 271.343 1.92396 272.036C1.88892 272.693 1.92795 273.385 1.89912 274.104C1.87029 274.83 1.77537 275.583 1.75852 276.384Z" fill="#30343B"/>
<path d="M151.545 81.5563C150.274 81.6082 149.022 81.5381 147.808 81.5825C146.054 81.6526 144.378 81.8318 142.787 81.881C140.928 81.9356 139.201 81.8366 137.671 81.9018C136.185 81.9564 134.895 82.1799 133.763 82.2953C130.822 82.5978 129.063 83.1016 128.838 82.6705C128.648 82.329 129.863 81.1137 132.492 80.059C133.731 79.5564 135.274 79.1745 137.01 78.829C138.132 78.6055 139.335 78.3589 140.601 78.1952C141.663 78.0604 142.778 77.9899 143.934 77.8785C145.038 77.7654 146.179 77.6058 147.357 77.5175C148.656 77.4239 149.996 77.4057 151.364 77.3485C152.752 77.2873 153.842 77.1977 154.763 77.1862C156.131 77.1693 157.126 77.2487 158.162 77.2669C159.15 77.2602 160.176 77.2527 161.604 77.2434C162.373 77.2474 163.258 77.3046 164.315 77.3046C165.574 77.2966 166.808 77.2487 168.009 77.2709C169.473 77.2993 170.887 77.4137 172.239 77.4785C173.752 77.5539 175.19 77.5876 176.529 77.6967C177.948 77.8147 179.275 78.0213 180.476 78.2187C181.421 78.3717 182.293 78.4942 183.062 78.7044C185.828 79.4522 187.223 80.491 187.065 80.8653C186.927 81.2352 185.732 80.9602 183.65 80.8524C182.422 80.7926 180.892 80.8786 179.108 80.9043C177.582 80.8915 175.883 80.8782 174.041 80.8626C172.607 80.8822 171.09 81.0197 169.511 81.0303C167.848 81.0445 166.116 80.9225 164.328 80.9327C162.99 80.9456 161.934 81.1039 161.039 81.1301C158.841 81.2082 157.622 81.1585 155.657 81.2507C154.595 81.2995 153.318 81.4787 151.545 81.5563Z" fill="#30343B"/>
<path d="M105.173 79.4448C105.207 80.0396 105.13 80.6237 105.169 81.1861C105.242 81.9912 105.43 82.7394 105.522 83.4468C105.612 84.2807 105.625 85.0737 105.743 85.7803C105.869 86.458 106.108 87.0178 106.222 87.5513C106.52 88.9409 106.722 89.8901 106.343 90.1797C106.026 90.425 105.177 90.0799 104.179 89.0035C103.721 88.4881 103.291 87.7917 102.848 86.9778C102.574 86.4491 102.236 85.8832 102.008 85.2445C101.806 84.7083 101.696 84.125 101.547 83.5329C101.401 82.9669 101.223 82.385 101.127 81.776C101.028 81.1072 101.011 80.4113 100.97 79.7154C100.922 79.0039 100.857 78.4557 100.86 77.9882C100.869 77.2972 100.967 76.7987 101.009 76.2833C101.044 75.7896 101.026 75.2822 101.054 74.5783C101.07 74.1991 101.144 73.768 101.155 73.2473C101.166 72.6228 101.13 71.985 101.191 71.3503C101.266 70.5737 101.457 69.8077 101.66 69.0727C101.894 68.2429 102.149 67.4716 102.501 66.8262C102.872 66.1405 103.326 65.5941 103.71 65.1097C104.011 64.7279 104.256 64.3695 104.535 64.0892C105.538 63.101 106.3 62.6974 106.653 62.9333C106.968 63.1436 106.801 63.7694 106.483 64.7904C106.297 65.3905 106.137 66.1667 105.865 66.9513C105.64 67.6135 105.288 68.2824 105.124 69.047C104.994 69.6378 105.037 70.2703 104.989 70.952C104.937 71.6674 104.797 72.4516 104.781 73.3165C104.781 73.9685 104.918 74.4879 104.93 74.923C104.965 75.9879 104.888 76.5747 104.94 77.511C104.966 78.0162 105.121 78.619 105.173 79.4448Z" fill="#30343B"/>
<path d="M114.683 69.0698C114.165 68.7021 113.705 68.2648 113.194 67.9295C112.455 67.454 111.684 67.1063 110.998 66.6987C110.21 66.205 109.501 65.6652 108.818 65.239C108.154 64.8442 107.541 64.626 107.045 64.3506C105.773 63.6196 104.866 63.3118 104.805 62.8443C104.744 62.4429 105.631 61.8521 107.277 61.8575C108.046 61.8561 108.92 62.0495 109.852 62.2833C110.449 62.4416 111.105 62.5795 111.774 62.8053C112.325 63.0182 112.877 63.295 113.463 63.5611C114.012 63.8285 114.626 64.0374 115.194 64.3661C115.819 64.7245 116.43 65.1476 117.049 65.5854C117.692 66.0085 118.204 66.3318 118.6 66.6552C119.196 67.1227 119.546 67.5653 119.963 67.9565C120.365 68.3229 120.784 68.703 121.368 69.2317C121.681 69.516 121.97 69.9187 122.388 70.3223C122.891 70.7987 123.378 71.2715 123.822 71.7625C124.348 72.3741 124.782 73.0284 125.217 73.6298C125.696 74.3102 126.186 74.9298 126.545 75.5778C126.947 76.2453 127.198 76.9386 127.467 77.528C127.684 77.9902 127.88 78.4111 128.018 78.8098C128.48 80.2513 128.481 81.1925 128.106 81.3717C127.766 81.538 127.277 81.0577 126.506 80.2292C126.028 79.7537 125.406 79.1904 124.786 78.4945C124.287 77.8931 123.804 77.1727 123.189 76.4635C122.706 75.9206 122.1 75.4301 121.554 74.8535C120.986 74.2432 120.475 73.5264 119.83 72.8953C119.345 72.4278 118.864 72.163 118.514 71.8823C117.672 71.1708 117.236 70.741 116.445 70.1498C116.001 69.8486 115.423 69.5528 114.683 69.0698Z" fill="#30343B"/>
<path d="M198.226 73.7391C197.612 74.1742 196.925 74.4882 196.382 74.8453C195.581 75.3802 194.91 75.9878 194.237 76.4815C193.451 77.0514 192.669 77.5176 192.077 78.0552C191.503 78.5772 191.14 79.1409 190.744 79.5849C189.728 80.7483 189.24 81.7055 188.762 81.6522C188.379 81.6225 187.948 80.5953 188.348 78.8593C188.527 78.0414 188.965 77.1415 189.548 76.2105C189.927 75.6144 190.333 74.9495 190.865 74.3654C191.305 73.8615 191.836 73.4304 192.357 72.9563C192.857 72.511 193.35 72.0173 193.906 71.5982C194.533 71.124 195.163 70.7501 195.768 70.319C196.392 69.867 196.852 69.4696 197.28 69.1751C197.911 68.7427 198.432 68.4908 198.927 68.1767C199.407 67.8769 199.86 67.5065 200.545 67.0484C200.921 66.8133 201.357 66.5405 201.875 66.2172C202.475 65.8003 203.051 65.3629 203.654 64.9952C204.4 64.5561 205.158 64.1991 205.892 63.8549C206.698 63.4548 207.48 63.0756 208.255 62.8162C209.068 62.5319 209.885 62.4187 210.593 62.2826C211.166 62.2112 211.672 62.0919 212.146 62.0812C213.861 62.071 214.814 62.5385 214.801 62.9306C214.801 63.3347 214.11 63.5072 213.036 63.9822C212.719 64.1148 212.374 64.2834 212.005 64.5029C211.637 64.699 211.237 64.9119 210.81 65.1403C210.085 65.4885 209.239 65.8207 208.379 66.3259C207.715 66.7166 207.08 67.2542 206.362 67.7296C205.602 68.214 204.746 68.6491 203.926 69.2102C203.317 69.6333 202.92 70.1061 202.519 70.4046C201.543 71.1631 200.945 71.5135 200.06 72.2071C199.578 72.5833 199.066 73.1315 198.226 73.7391Z" fill="#30343B"/>
<path d="M213.458 73.5833C213.524 72.9979 213.675 72.4275 213.737 71.8642C213.813 71.0512 213.753 70.2657 213.831 69.5267C213.908 68.6672 214.131 67.8582 214.213 67.1192C214.309 66.4051 214.263 65.7687 214.367 65.2054C214.628 63.7382 214.963 62.8187 215.425 62.7628C215.841 62.7123 216.348 63.4095 216.814 64.6833C217.016 65.2883 217.183 66.0233 217.332 66.8624C217.434 67.4053 217.605 67.9921 217.664 68.6179C217.715 69.144 217.719 69.6957 217.732 70.2697C217.749 70.8174 217.838 71.3892 217.82 71.9733C217.797 72.6173 217.725 73.2768 217.654 73.951C217.584 74.6354 217.597 75.1809 217.515 75.6298C217.399 76.2973 217.24 76.771 217.123 77.27C217.006 77.7455 216.953 78.2502 216.816 78.9412C216.732 79.3125 216.581 79.7267 216.482 80.2386C216.371 80.8489 216.271 81.4503 216.13 82.0265C215.956 82.7277 215.672 83.3744 215.472 84.0095C215.225 84.7147 215.03 85.3951 214.772 86.0054C214.482 86.6441 214.151 87.2132 213.865 87.7246C213.638 88.1273 213.477 88.5114 213.266 88.8308C212.494 89.9631 211.835 90.5188 211.446 90.3499C211.099 90.2017 211.116 89.5706 211.222 88.5291C211.271 87.9109 211.273 87.124 211.427 86.2773C211.549 85.5606 211.84 84.8128 212.007 83.9594C212.152 83.3039 212.159 82.5738 212.317 81.8544C212.471 81.0973 212.761 80.3353 212.925 79.5169C213.029 78.9 212.995 78.3926 213.042 77.9796C213.165 76.9644 213.33 76.4162 213.407 75.5021C213.462 75.0119 213.381 74.4043 213.458 73.5833Z" fill="#30343B"/>
<path d="M128.489 108.564C127.62 108.498 126.775 108.324 125.944 108.257C124.743 108.189 123.588 108.244 122.5 108.185C121.236 108.116 120.037 107.914 118.961 107.846C117.928 107.784 117.054 107.873 116.299 107.87C114.341 107.836 113.141 108.179 112.847 107.771C112.589 107.445 113.307 106.279 115.272 105.426C116.186 105.021 117.329 104.787 118.567 104.573C119.369 104.433 120.197 104.261 121.106 104.17C121.867 104.083 122.665 104.107 123.492 104.065C124.284 104.019 125.105 103.964 125.949 103.959C126.876 103.977 127.828 104.072 128.801 104.143C129.788 104.223 130.57 104.221 131.222 104.317C132.189 104.446 132.88 104.628 133.605 104.774C134.297 104.906 135.025 104.969 136.027 105.16C136.562 105.276 137.179 105.411 137.915 105.569C138.798 105.73 139.674 105.843 140.508 106.051C141.528 106.279 142.483 106.639 143.41 106.912C144.44 107.252 145.436 107.505 146.327 107.882C147.274 108.257 148.11 108.712 148.866 109.109C149.466 109.404 150.021 109.66 150.488 109.956C152.167 111.005 152.974 111.914 152.775 112.296C152.593 112.657 151.725 112.478 150.266 112.166C149.401 111.992 148.304 111.854 147.091 111.571C146.067 111.335 144.975 110.92 143.733 110.657C142.783 110.429 141.731 110.36 140.679 110.127C139.565 109.912 138.432 109.539 137.224 109.326C136.323 109.159 135.579 109.212 134.972 109.128C133.476 108.954 132.661 108.756 131.315 108.655C130.588 108.589 129.699 108.651 128.489 108.564Z" fill="#30343B"/>
<path d="M153.061 161.758C151.679 161.626 150.37 161.205 149.073 160.979C147.2 160.636 145.404 160.257 143.737 159.799C141.814 159.182 140.071 158.479 138.518 157.782C136.996 157.177 135.637 156.608 134.515 155.996C133.038 155.237 131.965 154.423 131.243 153.861C130.526 153.28 130.193 152.871 130.298 152.666C130.5 152.277 132.144 152.652 134.796 153.438C136.078 153.752 137.526 154.325 139.249 154.728C140.354 155.014 141.545 155.297 142.817 155.557C143.88 155.787 144.959 156.154 146.129 156.346C147.243 156.538 148.388 156.767 149.579 156.926C150.889 157.105 152.212 157.453 153.599 157.583C155.004 157.733 156.107 157.863 157.042 157.916C158.426 158.027 159.428 158.234 160.481 158.299C161.486 158.351 162.534 158.354 163.99 158.385C164.773 158.369 165.677 158.407 166.757 158.369C168.045 158.351 169.29 158.123 170.514 158.053C172.006 157.962 173.441 157.785 174.82 157.655C176.353 157.441 177.794 157.143 179.153 156.936C180.574 156.644 181.926 156.496 183.12 156.243C184.055 156.032 184.898 155.791 185.677 155.64C188.437 155.029 190.127 154.75 190.295 155.164C190.437 155.513 189.309 156.17 187.267 157.244C186.049 157.815 184.53 158.617 182.668 159.244C181.092 159.757 179.293 160.186 177.334 160.596C175.833 160.978 174.228 161.331 172.533 161.602C171.645 161.765 170.72 161.778 169.786 161.848C168.85 161.898 167.899 161.982 166.932 161.996C165.485 162.046 164.342 162.262 163.371 162.263C160.981 162.273 159.663 162.192 157.531 162.049C156.377 162.013 154.978 161.998 153.061 161.758Z" fill="#30343B"/>
<path d="M151.99 147.143C151.414 147.267 150.824 147.238 150.264 147.269C149.45 147.305 148.661 147.332 147.91 147.188C147.03 147.015 146.278 146.618 145.63 146.249C145.007 145.888 144.446 145.538 144.066 145.098C143.07 143.93 143.105 142.944 143.389 142.834C143.681 142.691 144.186 143.123 145.027 143.522C145.425 143.714 145.882 143.944 146.452 144.091C146.82 144.188 147.235 144.222 147.657 144.271C148.017 144.312 148.373 144.384 148.783 144.376C149.168 144.382 149.565 144.306 149.972 144.274C150.42 144.218 150.89 144.21 151.366 144.104C151.851 144.006 152.217 143.857 152.538 143.776C153.012 143.641 153.379 143.589 153.744 143.467C154.092 143.353 154.434 143.183 154.916 142.95C155.176 142.831 155.492 142.714 155.838 142.511C156.248 142.272 156.623 141.982 157.002 141.737C157.461 141.437 157.91 141.178 158.286 140.878C158.707 140.542 159.033 140.171 159.359 139.821C159.701 139.452 160.043 139.103 160.31 138.748C160.518 138.469 160.665 138.186 160.835 137.946C161.44 137.084 161.845 136.521 162.16 136.603C162.422 136.671 162.477 137.206 162.357 138.143C162.282 138.689 162.198 139.411 161.859 140.169C161.576 140.808 161.102 141.441 160.551 142.101C160.127 142.615 159.677 143.171 159.119 143.614C158.532 144.081 157.864 144.419 157.192 144.815C156.695 145.12 156.331 145.425 155.983 145.615C155.121 146.072 154.595 146.228 153.769 146.54C153.323 146.709 152.791 146.972 151.99 147.143Z" fill="#30343B"/>
<path d="M167.399 146.56C166.859 146.215 166.414 145.766 165.955 145.377C165.287 144.813 164.642 144.268 164.131 143.652C163.552 142.921 163.157 142.138 162.812 141.443C162.474 140.772 162.168 140.175 162.012 139.61C161.641 138.119 161.803 137.193 162.108 137.121C162.435 137.035 162.856 137.65 163.55 138.572C163.878 139.008 164.217 139.542 164.682 140.087C164.974 140.445 165.352 140.779 165.71 141.15C166.017 141.461 166.305 141.811 166.666 142.12C166.99 142.434 167.407 142.676 167.772 142.98C168.195 143.294 168.607 143.653 169.08 143.951C169.558 144.255 169.963 144.443 170.29 144.626C170.776 144.896 171.111 145.14 171.498 145.319C171.857 145.514 172.269 145.616 172.821 145.818C173.124 145.898 173.459 146.06 173.886 146.145C174.393 146.243 174.906 146.306 175.377 146.353C175.951 146.42 176.484 146.486 176.965 146.441C177.507 146.392 177.942 146.22 178.369 146.032C178.818 145.834 179.251 145.59 179.602 145.299C179.874 145.068 180.083 144.808 180.289 144.582C181.037 143.772 181.42 143.128 181.744 143.209C182.002 143.268 182.078 143.881 181.794 144.935C181.618 145.543 181.352 146.354 180.7 147.106C180.153 147.737 179.331 148.268 178.344 148.641C177.588 148.925 176.753 149.145 175.915 149.148C175.027 149.156 174.196 148.935 173.33 148.761C172.684 148.623 172.148 148.592 171.72 148.466C170.671 148.153 170.125 147.879 169.24 147.47C168.76 147.257 168.149 147.035 167.399 146.56Z" fill="#30343B"/>
<path d="M116.585 130.394C115.927 130.324 115.291 130.191 114.665 130.116C113.761 130.005 112.888 129.95 112.07 129.83C111.117 129.694 110.237 129.495 109.434 129.355C108.659 129.219 107.956 129.142 107.353 129.012C105.787 128.67 104.868 128.36 104.888 128.147C104.906 127.95 105.726 127.839 107.109 127.82C107.765 127.809 108.545 127.851 109.43 127.882C110.003 127.903 110.621 127.903 111.272 127.942C111.819 127.987 112.388 128.036 112.982 128.085C113.551 128.124 114.14 128.163 114.745 128.202C115.408 128.277 116.091 128.355 116.79 128.433C117.499 128.503 118.057 128.557 118.527 128.603C119.223 128.69 119.725 128.794 120.252 128.869C120.756 128.928 121.278 128.988 122.007 129.073C122.398 129.125 122.848 129.186 123.388 129.259C124.03 129.32 124.662 129.381 125.276 129.441C126.02 129.543 126.741 129.644 127.429 129.739C128.201 129.838 128.933 129.933 129.618 130.02C130.338 130.131 131.002 130.269 131.603 130.378C132.075 130.462 132.51 130.518 132.897 130.599C134.277 130.893 135.074 131.157 135.051 131.357C135.031 131.531 134.389 131.569 133.275 131.588C132.62 131.601 131.798 131.646 130.855 131.605C130.059 131.573 129.18 131.464 128.221 131.396C127.48 131.343 126.69 131.339 125.873 131.266C125.015 131.19 124.125 131.043 123.203 130.946C122.512 130.878 121.96 130.885 121.498 130.845C120.361 130.724 119.736 130.657 118.72 130.548C118.17 130.498 117.502 130.49 116.585 130.394Z" fill="#30343B"/>
<path d="M118.162 135.544C117.468 135.506 116.793 135.406 116.133 135.359C115.18 135.295 114.263 135.279 113.398 135.201C112.393 135.11 111.458 134.953 110.61 134.851C109.791 134.753 109.049 134.71 108.413 134.609C106.753 134.344 105.775 134.079 105.787 133.863C105.797 133.666 106.651 133.518 108.099 133.431C108.787 133.389 109.605 133.392 110.534 133.382C111.135 133.375 111.782 133.344 112.465 133.352C113.04 133.357 113.64 133.397 114.265 133.414C114.862 133.43 115.482 133.42 116.116 133.445C116.815 133.474 117.534 133.536 118.268 133.578C119.015 133.618 119.604 133.627 120.099 133.664C120.831 133.717 121.362 133.796 121.917 133.846C122.447 133.892 122.998 133.912 123.766 133.965C124.179 133.993 124.652 134.05 125.22 134.082C125.897 134.121 126.562 134.131 127.208 134.172C127.994 134.224 128.753 134.31 129.479 134.368C130.292 134.433 131.066 134.474 131.785 134.544C132.548 134.619 133.249 134.726 133.885 134.804C134.384 134.867 134.843 134.901 135.251 134.964C136.715 135.189 137.566 135.416 137.555 135.617C137.545 135.793 136.876 135.86 135.711 135.934C135.028 135.977 134.169 136.061 133.18 136.068C132.345 136.073 131.416 136.007 130.408 135.985C129.629 135.97 128.802 136.002 127.942 135.97C127.038 135.933 126.098 135.832 125.126 135.778C124.399 135.744 123.82 135.778 123.333 135.759C122.135 135.713 121.476 135.643 120.404 135.597C119.828 135.573 119.127 135.598 118.162 135.544Z" fill="#30343B"/>
<path d="M125.644 142.192C125.112 142.252 124.584 142.237 124.076 142.281C123.341 142.339 122.641 142.439 121.972 142.469C121.194 142.5 120.463 142.457 119.806 142.452C119.168 142.451 118.598 142.488 118.102 142.457C116.806 142.373 116.033 142.205 116.021 141.992C116.008 141.795 116.643 141.559 117.733 141.321C118.248 141.203 118.87 141.122 119.572 141.003C120.024 140.923 120.513 140.838 121.027 140.748C121.465 140.699 121.92 140.646 122.395 140.591C122.845 140.525 123.314 140.457 123.795 140.387C124.327 140.338 124.874 140.286 125.433 140.233C126.001 140.164 126.446 140.112 126.822 140.065C127.381 140.013 127.792 140.017 128.217 139.985C128.621 139.94 129.04 139.894 129.623 139.829C129.938 139.792 130.302 139.777 130.734 139.721C131.247 139.644 131.748 139.569 132.236 139.496C132.835 139.434 133.416 139.374 133.97 139.316C134.59 139.238 135.175 139.164 135.725 139.095C136.307 139.034 136.852 139.015 137.341 138.979C137.725 138.948 138.073 138.898 138.391 138.885C139.526 138.834 140.209 138.893 140.246 139.092C140.277 139.264 139.794 139.457 138.94 139.747C138.438 139.916 137.813 140.156 137.073 140.339C136.447 140.492 135.738 140.594 134.975 140.743C134.387 140.861 133.77 141.03 133.117 141.141C132.428 141.254 131.701 141.306 130.957 141.403C130.403 141.481 129.97 141.607 129.599 141.66C128.685 141.794 128.174 141.823 127.354 141.929C126.914 141.992 126.385 142.112 125.644 142.192Z" fill="#30343B"/>
<path d="M208.823 128.417C209.48 128.347 210.132 128.342 210.761 128.284C211.669 128.201 212.535 128.072 213.361 128.015C214.321 127.949 215.223 127.957 216.038 127.926C216.824 127.895 217.528 127.823 218.143 127.824C219.745 127.828 220.706 127.937 220.727 128.151C220.745 128.347 219.965 128.628 218.615 128.939C217.975 129.088 217.204 129.212 216.332 129.367C215.768 129.466 215.165 129.596 214.52 129.697C213.976 129.767 213.409 129.839 212.818 129.916C212.255 129.998 211.671 130.085 211.072 130.172C210.409 130.238 209.726 130.307 209.028 130.376C208.319 130.459 207.763 130.522 207.294 130.576C206.597 130.639 206.085 130.642 205.555 130.68C205.051 130.728 204.527 130.779 203.798 130.849C203.404 130.88 202.952 130.916 202.412 130.958C201.771 131.033 201.142 131.106 200.529 131.179C199.781 131.233 199.055 131.288 198.363 131.34C197.587 131.405 196.854 131.467 196.165 131.524C195.438 131.569 194.76 131.572 194.15 131.593C193.67 131.61 193.233 131.648 192.838 131.649C191.425 131.654 190.587 131.562 190.564 131.363C190.544 131.187 191.162 131.017 192.245 130.763C192.882 130.613 193.675 130.397 194.605 130.237C195.389 130.102 196.274 130.023 197.225 129.888C197.96 129.783 198.734 129.62 199.549 129.52C200.405 129.414 201.306 129.368 202.229 129.271C202.919 129.191 203.458 129.067 203.919 129.01C205.057 128.891 205.685 128.823 206.701 128.714C207.249 128.649 207.906 128.514 208.823 128.417Z" fill="#30343B"/>
<path d="M207.349 133.56C208.041 133.522 208.723 133.548 209.384 133.521C210.339 133.482 211.253 133.396 212.12 133.378C213.129 133.357 214.075 133.412 214.93 133.418C215.755 133.426 216.496 133.387 217.14 133.417C218.818 133.498 219.821 133.655 219.832 133.869C219.844 134.066 219.013 134.308 217.582 134.555C216.904 134.67 216.089 134.757 215.168 134.871C214.572 134.944 213.931 135.045 213.252 135.113C212.68 135.17 212.078 135.196 211.456 135.251C210.86 135.3 210.245 135.378 209.612 135.422C208.914 135.471 208.192 135.487 207.457 135.528C206.711 135.569 206.126 135.625 205.631 135.643C204.896 135.671 204.359 135.651 203.802 135.662C203.27 135.674 202.719 135.715 201.95 135.748C201.537 135.765 201.061 135.759 200.493 135.791C199.815 135.827 199.153 135.89 198.508 135.918C197.721 135.955 196.957 135.952 196.228 135.975C195.413 135.999 194.64 136.045 193.917 136.053C193.152 136.064 192.441 136.035 191.801 136.026C191.298 136.02 190.839 136.035 190.426 136.018C188.945 135.955 188.075 135.822 188.063 135.622C188.054 135.446 188.711 135.306 189.861 135.104C190.536 134.986 191.379 134.808 192.363 134.693C193.191 134.596 194.122 134.56 195.127 134.469C195.902 134.402 196.722 134.277 197.579 134.215C198.481 134.15 199.428 134.15 200.399 134.095C201.125 134.05 201.697 133.952 202.184 133.917C203.379 133.83 204.042 133.829 205.111 133.755C205.689 133.716 206.383 133.614 207.349 133.56Z" fill="#30343B"/>
<path d="M200.181 140.216C200.707 140.276 201.218 140.386 201.719 140.447C202.445 140.533 203.146 140.562 203.802 140.651C204.567 140.754 205.275 140.919 205.92 141.021C206.545 141.125 207.111 141.167 207.596 141.266C208.859 141.527 209.606 141.78 209.593 141.996C209.581 142.192 208.924 142.35 207.806 142.443C207.275 142.483 206.643 142.486 205.928 142.49C205.465 142.493 204.964 142.522 204.438 142.506C203.994 142.479 203.533 142.451 203.053 142.422C202.593 142.396 202.114 142.397 201.625 142.358C201.089 142.298 200.537 142.238 199.973 142.176C199.399 142.113 198.947 142.091 198.568 142.036C198.007 141.958 197.603 141.862 197.178 141.792C196.773 141.738 196.351 141.681 195.764 141.6C195.448 141.554 195.088 141.473 194.653 141.417C194.135 141.352 193.627 141.289 193.134 141.228C192.532 141.137 191.958 141.006 191.405 140.907C190.787 140.794 190.198 140.706 189.652 140.589C189.077 140.462 188.549 140.31 188.071 140.185C187.696 140.086 187.349 140.019 187.043 139.925C185.95 139.59 185.331 139.294 185.367 139.097C185.399 138.923 185.919 138.909 186.817 138.929C187.344 138.938 188.009 138.92 188.764 138.981C189.401 139.033 190.101 139.161 190.868 139.244C191.46 139.31 192.095 139.321 192.747 139.403C193.43 139.509 194.143 139.619 194.878 139.733C195.43 139.8 195.876 139.794 196.246 139.831C197.155 139.941 197.656 140 198.469 140.099C198.91 140.143 199.448 140.137 200.181 140.216Z" fill="#30343B"/>
<path d="M158.077 92.8157C158.031 92.1624 158.057 91.5183 158.025 90.8952C157.976 89.9939 157.874 89.1317 157.852 88.3138C157.825 87.3606 157.879 86.4674 157.885 85.6597C157.89 84.8804 157.843 84.1818 157.874 83.5729C157.957 81.9872 158.129 81.0367 158.369 81.0212C158.592 81.007 158.868 81.7858 159.15 83.1302C159.284 83.7676 159.386 84.534 159.516 85.4002C159.602 85.9613 159.718 86.5623 159.797 87.2027C159.849 87.743 159.903 88.3067 159.959 88.8935C160.024 89.4519 160.092 90.0334 160.16 90.6282C160.202 91.2864 160.245 91.9645 160.289 92.6565C160.345 93.3603 160.389 93.9108 160.427 94.3783C160.46 95.0702 160.441 95.5767 160.456 96.1027C160.485 96.6026 160.516 97.1233 160.56 97.8454C160.581 98.2348 160.576 98.6868 160.613 99.2217C160.665 99.8581 160.716 100.483 160.767 101.09C160.792 101.835 160.816 102.554 160.839 103.239C160.875 104.008 160.908 104.738 160.939 105.42C160.952 106.142 160.922 106.813 160.916 107.418C160.91 107.894 160.931 108.327 160.913 108.718C160.848 110.117 160.704 110.945 160.479 110.963C160.282 110.98 160.121 110.365 159.89 109.286C159.754 108.652 159.55 107.862 159.416 106.938C159.303 106.157 159.259 105.279 159.154 104.334C159.073 103.603 158.929 102.835 158.856 102.026C158.779 101.175 158.773 100.282 158.709 99.3649C158.655 98.6806 158.542 98.1443 158.5 97.6848C158.421 96.5578 158.378 95.9342 158.307 94.9243C158.259 94.3792 158.141 93.7263 158.077 92.8157Z" fill="#30343B"/>
<path d="M132.043 98.7421C131.531 98.7293 131.027 98.7151 130.537 98.7018C129.831 98.7018 129.153 98.7435 128.511 98.7301C127.764 98.7199 127.067 98.6521 126.435 98.6264C125.824 98.6002 125.275 98.6162 124.798 98.5798C123.558 98.4835 122.817 98.346 122.811 98.1771C122.805 98.0227 123.424 97.8448 124.489 97.6785C124.994 97.6031 125.601 97.5472 126.286 97.4812C126.73 97.4395 127.209 97.3747 127.715 97.3397C128.142 97.3215 128.588 97.302 129.051 97.2825C129.495 97.2576 129.954 97.2319 130.426 97.2044C130.946 97.2004 131.482 97.1977 132.028 97.1955C132.584 97.1866 133.02 97.18 133.388 97.1733C133.935 97.1822 134.332 97.2186 134.746 97.2332C135.141 97.2372 135.551 97.2412 136.122 97.2474C136.43 97.2576 136.783 97.2683 137.206 97.2825C137.71 97.2811 138.202 97.2811 138.683 97.2798C139.267 97.3068 139.835 97.3317 140.375 97.3565C140.98 97.38 141.554 97.4031 142.092 97.4253C142.658 97.4656 143.183 97.5291 143.655 97.5761C144.028 97.6111 144.365 97.6408 144.674 97.6697C145.763 97.8151 146.399 97.9788 146.392 98.1358C146.388 98.2733 145.892 98.3412 145.032 98.4214C144.526 98.4707 143.892 98.5541 143.161 98.5851C142.542 98.6113 141.854 98.5825 141.109 98.5966C140.532 98.6055 139.921 98.6601 139.284 98.6627C138.615 98.6472 137.917 98.6317 137.197 98.6148C136.658 98.6162 136.232 98.6654 135.871 98.672C134.985 98.6734 134.495 98.6734 133.702 98.6747C133.275 98.6814 132.758 98.7355 132.043 98.7421Z" fill="#30343B"/>
<path d="M131.286 92.2539C130.886 92.2694 130.491 92.2096 130.108 92.2175C129.556 92.2291 129.028 92.2956 128.527 92.293C127.941 92.285 127.392 92.2122 126.894 92.1852C126.414 92.1657 125.985 92.1954 125.608 92.1581C125.256 92.1204 124.954 92.0725 124.712 92.0166L125.022 91.2959C125.175 91.723 125.201 92.006 125.079 92.1009C124.957 92.1971 124.689 92.1036 124.311 91.8503L123.783 91.4959L124.624 91.1194C124.801 91.0413 125.019 90.961 125.269 90.8803C125.662 90.7517 126.137 90.6661 126.675 90.5516C127.023 90.4776 127.397 90.3813 127.795 90.3166C128.132 90.2647 128.486 90.2531 128.852 90.2101C129.203 90.1684 129.564 90.105 129.938 90.0753C130.351 90.0416 130.777 90.0571 131.211 90.0389C131.653 90.0247 131.998 89.9897 132.29 89.9923C132.725 89.9963 133.041 90.0495 133.369 90.0651C133.684 90.0677 134.008 90.0717 134.462 90.0766C134.706 90.0806 134.986 90.1196 135.321 90.1218C135.72 90.1218 136.112 90.0997 136.494 90.1139C136.957 90.1294 137.406 90.1933 137.834 90.2256C138.313 90.262 138.769 90.2802 139.193 90.3307C139.641 90.3893 140.052 90.4864 140.424 90.5565C140.716 90.6124 140.985 90.6381 141.224 90.6993C142.078 90.9189 142.565 91.1615 142.546 91.3864C142.531 91.5837 142.136 91.672 141.453 91.7785C141.052 91.8445 140.551 91.9576 139.975 91.9967C139.49 92.0277 138.952 91.9865 138.369 92.0033C137.917 92.0122 137.438 92.0929 136.94 92.0929C136.417 92.1031 135.871 92.0317 135.309 92.0304C134.888 92.033 134.554 92.1071 134.274 92.1186C133.58 92.1266 133.199 92.1315 132.579 92.1368C132.245 92.155 131.843 92.2357 131.286 92.2539Z" fill="#30343B"/>
<path d="M140.163 110.963C141.058 112.605 141.054 114.423 140.522 115.979C139.419 119.203 136.049 121.289 133.728 118.299C129.012 112.225 136.852 104.896 140.163 110.963Z" fill="#30343B"/>
<path d="M182.059 111.145C179.308 116.187 185.052 122.914 188.494 118.48C190.4 116.026 190.255 113.366 189.188 111.469C187.614 108.671 184.033 107.53 182.059 111.145Z" fill="#30343B"/>
<path d="M192.507 104.145C193.478 104.067 194.441 104.172 195.368 104.147C196.71 104.125 197.997 104.003 199.219 104.081C200.638 104.148 201.967 104.434 203.149 104.603C204.301 104.773 205.398 104.874 206.325 105.19C207.536 105.6 208.445 106.166 208.959 106.667C209.477 107.177 209.627 107.587 209.497 107.779C209.227 108.162 208.128 107.846 206.328 107.849C205.468 107.841 204.44 107.821 203.203 107.901C202.395 107.946 201.52 108.08 200.61 108.124C199.838 108.149 199.032 108.176 198.194 108.204C197.394 108.278 196.565 108.355 195.713 108.434C194.776 108.504 193.806 108.488 192.817 108.568C191.813 108.633 191.03 108.758 190.365 108.805C189.377 108.861 188.651 108.836 187.9 108.883C187.183 108.919 186.449 109.044 185.422 109.171C184.869 109.234 184.223 109.257 183.469 109.389C182.566 109.532 181.697 109.75 180.845 109.91C179.8 110.08 178.789 110.246 177.823 110.405C176.754 110.628 175.746 110.882 174.803 111.094C173.803 111.311 172.853 111.443 172.019 111.642C171.354 111.778 170.775 111.978 170.235 112.107C168.281 112.516 167.081 112.731 166.862 112.304C166.687 111.963 167.398 111.326 168.78 110.402C169.593 109.862 170.616 109.158 171.904 108.588C172.991 108.12 174.258 107.755 175.614 107.339C176.658 106.989 177.752 106.574 178.929 106.273C180.17 105.99 181.494 105.834 182.84 105.622C183.845 105.431 184.623 105.179 185.299 105.064C186.957 104.779 187.891 104.764 189.382 104.571C190.189 104.481 191.15 104.232 192.507 104.145Z" fill="#30343B"/>
<path d="M190.34 96.6171C190.858 96.6251 191.363 96.7133 191.857 96.7364C192.568 96.7701 193.255 96.7572 193.901 96.8171C194.651 96.8899 195.348 97.0407 195.979 97.1378C196.589 97.2274 197.14 97.2664 197.613 97.3715C198.843 97.647 199.558 97.9441 199.54 98.1832C199.522 98.4054 198.881 98.578 197.808 98.6897C197.297 98.7496 196.691 98.7523 196.005 98.7886C195.561 98.8121 195.08 98.8405 194.578 98.8694C194.153 98.864 193.71 98.8592 193.249 98.8538C192.81 98.864 192.353 98.876 191.885 98.8875C191.369 98.8694 190.839 98.8512 190.296 98.833C189.745 98.8317 189.313 98.8303 188.948 98.829C188.407 98.8108 188.013 98.7496 187.603 98.7279C187.211 98.7084 186.804 98.7199 186.237 98.711C185.933 98.707 185.581 98.6746 185.161 98.6786C184.662 98.6942 184.172 98.7097 183.695 98.7239C183.115 98.7137 182.551 98.7017 182.013 98.6915C181.41 98.6955 180.84 98.6982 180.306 98.7004C179.74 98.6915 179.215 98.6356 178.742 98.6121C178.369 98.5939 178.03 98.6041 177.723 98.5757C176.626 98.4795 175.975 98.3225 175.959 98.0967C175.946 97.8993 176.429 97.7499 177.279 97.5396C177.779 97.419 178.405 97.2332 179.136 97.1294C179.755 97.0411 180.449 97.0256 181.198 96.9604C181.777 96.9072 182.39 96.8034 183.031 96.7683C183.705 96.7346 184.411 96.7785 185.137 96.7683C185.68 96.7581 186.109 96.6774 186.474 96.6672C187.368 96.6437 187.862 96.6827 188.662 96.6752C189.094 96.6663 189.618 96.6038 190.34 96.6171Z" fill="#30343B"/>
<path d="M191.14 90.0202C191.549 90.0357 191.947 90.1191 192.336 90.1488C192.898 90.1905 193.441 90.1772 193.949 90.2438C194.541 90.3165 195.085 90.4802 195.582 90.576C196.06 90.6758 196.495 90.7099 196.862 90.8199C197.206 90.921 197.497 91.0253 197.727 91.1251L198.562 91.4928L198.035 91.8458C197.657 92.1004 197.39 92.194 197.268 92.0977C197.146 92.0028 197.171 91.7198 197.325 91.2914L197.638 92.0223C197.451 92.0667 197.224 92.1053 196.965 92.139C196.562 92.1882 196.086 92.1989 195.546 92.2246C195.196 92.2401 194.818 92.2893 194.422 92.296C194.088 92.2893 193.743 92.2818 193.382 92.2738C193.037 92.2712 192.677 92.3062 192.309 92.2987C191.907 92.2765 191.491 92.2556 191.067 92.2339C190.635 92.2197 190.295 92.2392 190.01 92.2224C189.585 92.1962 189.278 92.1394 188.956 92.1106C188.65 92.0844 188.33 92.0991 187.886 92.0844C187.647 92.0765 187.371 92.0427 187.042 92.0441C186.651 92.0556 186.267 92.0689 185.893 92.0791C185.437 92.0636 184.995 92.0481 184.573 92.0325C184.102 92.0237 183.654 92.0481 183.234 92.0299C182.79 92.0144 182.377 91.9571 182.004 91.9288C181.712 91.9079 181.444 91.9146 181.203 91.8844C180.34 91.778 179.823 91.6169 179.805 91.3899C179.79 91.1925 180.168 91.0483 180.834 90.843C181.226 90.7285 181.717 90.5467 182.293 90.4482C182.78 90.3653 183.329 90.356 183.919 90.2961C184.377 90.2469 184.86 90.1493 185.366 90.1169C185.899 90.0921 186.456 90.1351 187.03 90.1338C187.458 90.1236 187.797 90.0495 188.086 90.0428C188.793 90.022 189.182 90.0699 189.814 90.0637C190.155 90.0632 190.569 90.002 191.14 90.0202Z" fill="#30343B"/>
<path d="M129.524 76.7013C129.524 69.3479 129.831 39.0322 128.101 32.3708C126.372 25.708 126.593 11.05 145.806 12.0488C165.021 13.0486 184.525 19.3778 188.767 29.0389C193.007 38.7 192.294 73.4838 192.567 76.5092C192.841 79.5337 189.514 83.3525 182.979 83.5357C176.442 83.7202 147.007 81.2892 137.554 83.5357C128.101 85.7831 129.524 82.0561 129.524 76.7013Z" fill="#30343B"/>
<path d="M159.22 90.9524C158.794 90.9422 158.377 90.8717 157.97 90.8562C157.383 90.8367 156.82 90.8797 156.287 90.8473C155.666 90.8123 155.087 90.7005 154.561 90.6499C154.053 90.5994 153.596 90.6096 153.199 90.5475C152.165 90.3825 151.541 90.1722 151.531 89.9292C151.523 89.7083 152.035 89.467 152.926 89.2501C153.349 89.1512 153.856 89.0851 154.432 89.0075C154.804 88.9556 155.204 88.8727 155.63 88.8363C155.988 88.8039 156.362 88.8053 156.752 88.7844C157.125 88.7662 157.511 88.7143 157.908 88.7063C158.344 88.6997 158.794 88.7272 159.254 88.7361C159.72 88.7449 160.088 88.7219 160.395 88.7401C160.854 88.7684 161.186 88.831 161.532 88.8647C161.863 88.8957 162.207 88.8957 162.686 88.9246C162.943 88.9414 163.238 88.992 163.593 89.0075C164.015 89.023 164.431 89.0204 164.833 89.0492C165.323 89.0829 165.794 89.165 166.246 89.2129C166.751 89.2701 167.233 89.3011 167.68 89.3686C168.151 89.444 168.584 89.5531 168.976 89.6373C169.282 89.7034 169.567 89.7385 169.817 89.8076C170.716 90.0543 171.226 90.3115 171.203 90.5346C171.183 90.732 170.761 90.8087 170.036 90.893C169.608 90.9449 169.073 91.0438 168.461 91.062C167.945 91.0775 167.376 91.0141 166.755 91.0101C166.274 91.0034 165.763 91.0633 165.234 91.0464C164.678 91.0309 164.102 90.9427 163.504 90.9138C163.056 90.901 162.7 90.9582 162.4 90.9569C161.664 90.9333 161.257 90.9205 160.599 90.8996C160.243 90.8979 159.813 90.9613 159.22 90.9524Z" fill="#30343B"/>
<path d="M108.897 78.1933C108.836 77.8296 108.775 77.4685 108.718 77.1208C108.58 76.6298 108.449 76.1601 108.323 75.7117C108.206 75.1755 108.156 74.6898 108.061 74.1988C107.967 73.7286 107.85 73.274 107.878 72.8433C107.907 72.2823 108.111 71.8099 108.341 71.5762C108.572 71.3384 108.772 71.3114 108.86 71.3814C109.034 71.5398 108.93 71.9554 109.16 72.5373C109.261 72.8243 109.386 73.18 109.598 73.6084C109.735 73.8772 109.925 74.2108 110.078 74.5629C110.21 74.8614 110.294 75.1914 110.419 75.5214C110.534 75.8381 110.67 76.1641 110.778 76.5083C110.885 76.8888 110.967 77.2889 111.055 77.6952C111.15 78.1081 111.248 78.4261 111.291 78.7042C111.36 79.1145 111.361 79.421 111.391 79.7354C111.434 80.0326 111.478 80.3404 111.538 80.7702C111.558 81.0026 111.58 81.2714 111.607 81.5907C111.657 81.97 111.723 82.3386 111.75 82.7023C111.786 83.1462 111.764 83.5773 111.773 83.9876C111.773 84.4471 111.803 84.8809 111.774 85.289C111.751 85.7201 111.673 86.1175 111.624 86.4732C111.589 86.7535 111.566 87.0108 111.518 87.2392C111.335 88.0584 111.095 88.521 110.874 88.5064C110.676 88.4948 110.58 88.1231 110.45 87.4911C110.367 87.1185 110.235 86.6564 110.161 86.125C110.105 85.6784 110.107 85.1772 110.046 84.6396C109.998 84.224 109.881 83.7876 109.827 83.3321C109.769 82.8531 109.779 82.3439 109.712 81.8272C109.66 81.4404 109.539 81.1468 109.491 80.8895C109.374 80.261 109.349 79.9066 109.223 79.3482C109.157 79.0449 109.013 78.6945 108.897 78.1933Z" fill="#30343B"/>
<path d="M206.46 81.4989C206.348 81.9017 206.179 82.2831 206.072 82.6703C205.923 83.2287 205.845 83.7791 205.707 84.2883C205.552 84.8791 205.335 85.4207 205.194 85.9245C205.059 86.4102 204.994 86.8582 204.873 87.2387C204.553 88.2256 204.28 88.819 204.033 88.7995C203.815 88.7813 203.629 88.2385 203.552 87.3141C203.51 86.875 203.536 86.3583 203.553 85.7689C203.571 85.387 203.557 84.9714 203.606 84.538C203.643 84.1743 203.722 83.8004 203.787 83.4084C203.841 83.0318 203.886 82.6397 203.966 82.2423C204.058 81.8059 204.197 81.3685 204.319 80.9166C204.446 80.4584 204.522 80.0907 204.626 79.7922C204.772 79.3469 204.931 79.0417 205.063 78.7131C205.179 78.3937 205.297 78.0651 205.465 77.6056C205.557 77.3603 205.701 77.0915 205.828 76.7527C205.983 76.3526 206.114 75.9503 206.278 75.5737C206.483 75.1165 206.719 74.6933 206.932 74.283C207.161 73.8249 207.384 73.3609 207.65 72.9587C207.932 72.5302 208.262 72.1665 208.578 71.8547C208.826 71.6081 209.058 71.3819 209.304 71.2209C210.216 70.6416 210.896 70.7352 210.939 70.9339C211.002 71.1313 210.639 71.3327 210.226 71.8365C209.981 72.135 209.768 72.5635 209.511 73.0469C209.292 73.4545 209.015 73.9091 208.788 74.4609C208.618 74.8894 208.486 75.3892 208.296 75.8722C208.092 76.3801 207.823 76.8888 207.61 77.4397C207.461 77.8566 207.405 78.207 207.318 78.4891C207.096 79.1788 206.937 79.55 206.759 80.1732C206.664 80.5098 206.613 80.9356 206.46 81.4989Z" fill="#30343B"/>
<path d="M169.216 115.466C169.14 115.035 169.157 114.559 169.3 114.13C169.438 113.676 169.64 113.288 169.965 113.056C170.762 112.454 171.53 112.334 172.077 112.489C172.627 112.654 172.956 113.05 172.873 113.7C172.871 113.959 172.825 114.284 172.787 114.666C172.803 115.053 172.752 115.497 172.835 115.968C172.901 116.389 173.047 116.812 173.178 117.251C173.336 117.959 173.505 118.715 173.806 119.369C174.009 119.835 174.256 120.252 174.52 120.605C174.753 120.977 175.017 121.271 175.222 121.527C175.531 121.967 175.851 122.388 176.237 122.803C176.713 123.216 177.27 123.593 177.913 123.975C178.165 124.162 178.442 124.336 178.748 124.501C179.048 124.677 179.365 124.879 179.746 124.982C180.378 125.233 181.131 125.286 181.952 125.407C183.074 125.508 183.876 125.6 184.542 125.616C185.062 125.619 185.502 125.507 186.068 125.49C186.649 125.431 187.383 125.482 188.402 125.25C189.113 125.099 189.785 124.806 190.436 124.578C191.236 124.308 192.013 124.079 192.641 123.764C193.4 123.397 193.93 122.94 194.322 122.725C194.806 122.435 195.496 122.065 196.109 121.447C196.548 121.011 196.906 120.438 197.27 119.878C197.615 119.356 198.015 118.838 198.231 118.242C198.406 117.847 198.417 117.377 198.535 116.977C198.608 116.603 198.8 116.269 198.835 115.914C198.983 114.879 198.862 113.986 198.845 113.419C198.825 113.035 198.891 112.659 198.838 112.318C198.729 111.567 198.474 110.984 198.423 110.535C198.371 110.081 198.423 109.779 198.711 109.601C199.122 109.318 199.932 109.128 200.638 109.464C201.106 109.671 201.409 110.106 201.538 110.708C201.673 111.321 201.86 112.006 201.882 112.865C201.908 113.518 201.77 114.256 201.671 115.1C201.565 115.85 201.503 116.715 201.202 117.651C200.906 118.572 200.495 119.185 200.218 119.717C199.786 120.476 199.511 121.026 199.035 121.625C198.56 122.166 197.934 122.751 196.915 123.561C196.391 124.004 195.871 124.454 195.313 124.809C194.883 125.046 194.435 125.223 194.026 125.402C193.552 125.633 193.149 125.94 192.731 126.093C191.64 126.553 190.8 126.649 190.628 126.727C190.458 126.754 189.739 127.114 188.616 127.332C187.946 127.49 187.126 127.506 186.254 127.633C185.663 127.685 185.048 127.882 184.402 127.909C183.773 127.945 183.135 127.903 182.453 127.863L181.414 127.876C181.07 127.85 180.723 127.824 180.384 127.774C179.697 127.71 179.103 127.351 178.49 127.205C177.91 126.982 177.313 126.843 176.819 126.606C175.49 125.912 174.712 125.114 174.435 124.899C174.066 124.517 173.276 123.92 172.641 123.052C172.23 122.543 171.971 121.893 171.631 121.35C171.004 120.229 170.531 119.196 170.393 118.848C170.321 118.551 170.08 117.929 169.809 117.217C169.603 116.65 169.281 116.035 169.216 115.466Z" fill="#30343B"/>
<path d="M117.322 112.568C117.213 112.19 117.175 111.768 117.214 111.373C117.252 110.952 117.401 110.565 117.626 110.28C118.801 108.817 120.343 108.579 120.609 110.136C120.721 110.726 120.76 111.667 120.983 112.685C121.068 113.144 121.279 113.591 121.402 114.064C121.585 114.828 121.731 115.622 121.996 116.318C122.175 116.812 122.388 117.263 122.617 117.646C122.822 118.047 123.05 118.373 123.228 118.65C123.493 119.125 123.76 119.581 124.093 120.039C124.518 120.51 125.032 120.939 125.62 121.414C125.845 121.637 126.117 121.826 126.39 122.053C126.658 122.288 126.967 122.508 127.331 122.69C127.927 123.05 128.689 123.251 129.502 123.561C130.644 123.958 131.358 124.236 131.987 124.42C132.471 124.573 132.949 124.562 133.505 124.69C134.088 124.828 134.791 125.023 135.842 125.133C136.572 125.189 137.308 125.134 138 125.119C138.848 125.115 139.657 125.16 140.342 125.056C141.168 124.95 141.807 124.706 142.221 124.595C142.754 124.477 143.496 124.32 144.194 123.876C144.695 123.568 145.106 123.08 145.526 122.612C145.9 122.154 146.339 121.708 146.601 121.134C146.804 120.758 146.847 120.299 146.993 119.917C147.106 119.535 147.327 119.192 147.417 118.831C147.701 117.774 147.768 116.843 147.857 116.264C147.923 115.87 148.066 115.509 148.092 115.16C148.154 114.39 148.046 113.764 148.1 113.321C148.155 112.873 148.273 112.605 148.594 112.499C149.058 112.321 149.887 112.291 150.503 112.791C150.908 113.103 151.103 113.6 151.089 114.208C151.076 114.83 151.105 115.527 150.949 116.345C150.833 116.968 150.574 117.641 150.337 118.423C150.134 119.124 149.949 119.922 149.606 120.786C149.235 121.676 148.781 122.269 148.457 122.772C147.946 123.495 147.611 124.04 147.024 124.575C146.468 125.078 145.696 125.548 144.486 126.123C144.159 126.256 143.842 126.41 143.524 126.558C143.202 126.677 142.877 126.796 142.554 126.887C142.068 127.001 141.576 126.983 141.133 127.061C140.611 127.11 140.129 127.281 139.685 127.297C138.508 127.358 137.692 127.209 137.508 127.211C137.334 127.223 136.556 127.274 135.431 127.193C134.762 127.105 133.97 126.953 133.117 126.809C132.538 126.719 131.913 126.746 131.271 126.602C130.65 126.477 130.035 126.271 129.41 126.073C129.088 125.985 128.758 125.92 128.427 125.854C128.104 125.76 127.78 125.667 127.468 125.551C126.833 125.347 126.302 124.941 125.744 124.681C125.195 124.411 124.659 124.152 124.193 123.879C122.987 123.024 122.302 122.157 122.06 121.905C121.736 121.489 121.033 120.804 120.499 119.888C120.154 119.341 119.958 118.687 119.677 118.126C119.159 116.983 118.733 115.983 118.616 115.643C118.527 115.368 118.341 114.765 118.029 114.113C117.809 113.6 117.472 113.057 117.322 112.568Z" fill="#30343B"/>
<path d="M124.022 156.178C123.935 156.031 123.733 155.627 123.359 155.074C123.122 154.736 122.837 154.323 122.552 153.838C122.278 153.36 122.032 152.796 121.713 152.214C121.51 151.849 121.284 151.47 121.089 151.06C120.922 150.696 120.804 150.297 120.622 149.918C120.44 149.539 120.195 149.176 120.002 148.782C119.787 148.272 119.628 147.727 119.411 147.199C119.195 146.672 118.92 146.16 118.712 145.62C118.578 145.289 118.519 144.93 118.427 144.585C118.29 144.11 118.103 143.653 117.978 143.179C117.827 142.605 117.743 142.02 117.596 141.466C117.442 140.927 117.292 140.402 117.147 139.891C117.09 139.667 117.092 139.426 117.032 139.203C116.919 138.778 116.739 138.371 116.619 137.947C116.458 137.346 116.313 136.739 116.2 136.126C116.126 135.777 115.992 135.441 115.923 135.089C115.879 134.862 115.897 134.621 115.857 134.393C115.774 133.937 115.635 133.492 115.558 133.035C115.479 132.54 115.443 132.04 115.401 131.541C115.352 131.089 115.235 130.647 115.174 130.196C115.133 129.887 115.152 129.57 115.11 129.261C115.045 128.787 114.916 128.321 114.85 127.846C114.774 127.391 114.796 126.926 114.77 126.47C114.741 126.072 114.648 125.68 114.617 125.283C114.59 124.907 114.622 124.527 114.591 124.153C114.567 123.852 114.479 123.553 114.453 123.25C114.425 122.912 114.458 122.57 114.43 122.231C114.426 121.966 114.36 121.704 114.356 121.439C114.352 121.075 114.409 120.711 114.403 120.347C114.397 119.782 114.319 119.219 114.301 118.652L114.308 117.054C114.329 116.507 114.289 115.955 114.316 115.406C114.33 115.128 114.407 114.856 114.425 114.578C114.451 114.128 114.409 113.671 114.426 113.218C114.44 112.825 114.514 112.437 114.525 112.043C114.532 111.62 114.545 111.196 114.585 110.776C114.625 110.42 114.73 110.072 114.776 109.719C114.815 109.417 114.794 109.107 114.838 108.807C114.921 108.246 115.08 107.7 115.185 107.144C115.228 106.913 115.211 106.67 115.256 106.437C115.342 106.13 115.495 105.836 115.585 105.53C115.716 105.078 115.786 104.613 115.912 104.16C116.002 103.831 116.151 103.517 116.233 103.187C116.3 102.924 116.206 102.616 116.273 102.351C116.333 102.116 116.462 101.868 116.538 101.577C116.579 101.421 116.56 101.242 116.604 101.072C116.724 100.712 116.934 100.346 117.082 99.9355C117.215 99.5771 117.295 99.1797 117.439 98.7903C117.593 98.3774 117.81 97.9724 117.971 97.5387C118.118 97.1466 118.215 96.7256 118.374 96.326C118.511 95.996 118.684 95.6794 118.867 95.3675C119.089 94.9466 119.254 94.5053 119.47 94.0924C119.679 93.6896 119.94 93.3184 120.13 92.9316C120.342 92.4979 120.452 92.116 120.589 91.8135C120.879 91.2098 121.061 90.8319 121.239 90.4616C121.384 90.1578 121.517 89.8526 121.776 89.4747C121.968 89.2033 122.262 88.9137 122.581 88.5087C122.859 88.1543 123.039 87.8399 123.228 87.5933C123.459 87.2908 123.677 87.0752 123.775 86.814C123.873 86.5532 123.852 86.244 123.819 85.8843C123.792 85.5818 123.771 85.2532 123.653 84.787C123.485 84.1155 122.791 84.2091 122.404 84.8846C122.22 85.2053 121.95 85.5144 121.72 85.8675C121.561 86.1127 121.449 86.3948 121.287 86.6441C121.066 86.9816 120.794 87.2881 120.602 87.6128C120.422 87.9166 120.318 88.2373 120.197 88.506C120.087 88.7646 119.82 89.115 119.589 89.6149C119.47 89.9085 119.392 90.2642 119.244 90.6173C119.122 90.9109 118.935 91.1939 118.794 91.5199C118.714 91.7093 118.687 91.9301 118.602 92.1288C118.468 92.438 118.272 92.7312 118.128 93.0572C117.965 93.4311 117.858 93.84 117.696 94.2299C117.563 94.5572 117.356 94.857 117.239 95.1959C117.148 95.4971 117.114 95.8217 117.023 96.1207C116.927 96.4347 116.771 96.723 116.673 97.0308C116.594 97.2801 116.574 97.5489 116.492 97.7906C116.327 98.2865 116.11 98.7491 115.963 99.2086C115.86 99.5332 115.823 99.8632 115.731 100.159C115.607 100.52 115.459 100.847 115.405 101.167C115.368 101.351 115.332 101.525 115.301 101.686C115.225 102.06 115.225 102.379 115.181 102.594C115.072 103.138 114.894 103.665 114.774 104.208C114.714 104.48 114.714 104.766 114.652 105.036C114.568 105.401 114.421 105.753 114.333 106.117C114.256 106.517 114.269 106.934 114.201 107.335C114.161 107.589 114.056 107.834 114.009 108.09C113.951 108.412 113.948 108.742 113.883 109.064C113.825 109.351 113.703 109.63 113.641 109.919C113.552 110.35 113.524 110.791 113.437 111.222C113.373 111.51 113.268 111.793 113.249 112.087C113.219 112.423 113.252 112.767 113.223 113.104C113.197 113.419 113.107 113.728 113.081 114.045C113.044 114.513 113.068 114.986 113.031 115.452C112.99 115.944 112.888 116.431 112.848 116.922C112.829 117.306 112.905 117.692 112.905 118.071C112.91 118.53 112.854 118.988 112.862 119.444C112.872 120.02 112.946 120.591 112.953 121.161C112.963 121.608 112.88 122.056 112.906 122.501C112.937 123.023 113.025 123.541 113.049 124.064C113.066 124.438 113.021 124.816 113.037 125.191C113.062 125.732 113.152 126.266 113.186 126.812C113.202 127.226 113.19 127.647 113.261 128.061C113.319 128.44 113.447 128.811 113.517 129.193C113.577 129.518 113.578 129.853 113.643 130.182C113.691 130.417 113.801 130.645 113.85 130.881C113.954 131.371 113.988 131.878 114.108 132.377C114.21 132.747 114.374 133.11 114.475 133.489C114.605 133.969 114.664 134.464 114.776 134.949C114.832 135.193 114.948 135.421 115.001 135.665C115.082 136.029 115.098 136.408 115.173 136.776C115.265 137.179 115.442 137.564 115.543 137.966C115.679 138.487 115.754 139.025 115.892 139.545C115.974 139.862 116.12 140.161 116.206 140.475C116.312 140.904 116.416 141.545 116.659 142.293C116.807 142.706 116.971 143.163 117.145 143.649C117.297 144.137 117.404 144.675 117.58 145.209C117.683 145.531 117.884 145.828 118.011 146.155C118.126 146.438 118.186 146.744 118.31 147.032C118.5 147.471 118.755 147.889 118.954 148.331C119.12 148.692 119.217 149.084 119.411 149.435C119.653 149.9 119.949 150.336 120.175 150.79C120.301 151.045 120.365 151.323 120.484 151.572C120.585 151.789 120.741 151.976 120.837 152.188C121.029 152.598 121.189 153.008 121.373 153.382C121.583 153.798 121.833 154.161 122.01 154.523C122.281 155.111 122.485 155.639 122.706 156.019C122.947 156.459 123.163 156.729 123.232 156.846C123.424 157.168 123.528 157.406 123.664 157.527C123.912 157.745 124.088 157.685 124.282 157.561C124.486 157.431 124.541 157.197 124.403 156.807C124.337 156.624 124.176 156.439 124.022 156.178Z" fill="#30343B"/>
<path d="M207.174 152.33C207.25 152.168 207.484 151.748 207.752 151.094C207.917 150.689 208.059 150.181 208.288 149.634C208.527 149.107 208.741 148.501 208.979 147.847C209.119 147.431 209.213 146.976 209.37 146.53C209.508 146.135 209.706 145.748 209.846 145.33C209.999 144.917 210.054 144.465 210.157 144.02C210.314 143.465 210.475 142.9 210.639 142.328C210.784 141.752 210.875 141.158 211.032 140.578C211.137 140.223 211.291 139.877 211.363 139.513C211.478 139.012 211.54 138.502 211.663 138.008C211.835 137.416 212.005 136.822 212.171 136.248C212.312 135.68 212.393 135.113 212.451 134.562C212.482 134.323 212.573 134.092 212.603 133.851C212.658 133.395 212.648 132.93 212.696 132.474L212.963 130.54C213.015 130.171 212.958 129.792 212.985 129.42C212.999 129.179 213.078 128.943 213.096 128.701C213.133 128.218 213.114 127.732 213.156 127.251C213.202 126.73 213.309 126.212 213.35 125.691C213.401 125.216 213.342 124.739 213.337 124.264C213.335 123.938 213.392 123.613 213.389 123.286L213.314 121.782L213.358 120.338C213.366 119.92 213.254 119.508 213.226 119.091C213.195 118.699 213.224 118.303 213.192 117.91C213.166 117.594 213.078 117.282 213.05 116.967C213.021 116.612 213.05 116.253 213.019 115.899C212.995 115.622 212.91 115.351 212.885 115.076C212.862 114.697 212.84 114.315 212.791 113.938C212.702 113.354 212.545 112.777 212.445 112.196L212.218 110.543C212.132 109.975 211.95 109.426 211.809 108.871C211.743 108.588 211.738 108.295 211.673 108.012C211.57 107.552 211.4 107.105 211.287 106.648C211.188 106.252 211.147 105.843 211.045 105.446C210.941 105.02 210.767 104.61 210.621 104.194C210.504 103.841 210.449 103.472 210.338 103.116C210.243 102.817 210.093 102.532 210.003 102.231C209.838 101.667 209.743 101.083 209.598 100.513C209.535 100.275 209.425 100.055 209.356 99.8209C209.253 99.5056 209.209 99.1716 209.107 98.8549C208.956 98.3901 208.747 97.9448 208.59 97.4813C208.475 97.1464 208.416 96.7902 208.295 96.4567C208.197 96.1893 207.949 95.9804 207.853 95.7138C207.764 95.4787 207.741 95.1829 207.605 94.8995C207.538 94.7464 207.41 94.6098 207.336 94.4435C207.177 94.0838 207.06 93.6669 206.878 93.2513C206.717 92.8862 206.495 92.5279 206.322 92.1331C206.156 91.7047 205.985 91.2607 205.81 90.8087C205.636 90.406 205.353 90.0503 205.156 89.648C204.987 89.3158 204.873 88.9521 204.704 88.6168C204.481 88.1715 204.207 87.7585 203.988 87.3234C203.766 86.9052 203.626 86.443 203.382 86.0611C203.102 85.638 202.818 85.3288 202.619 85.0432C202.229 84.4591 201.983 84.0914 201.743 83.7317C201.538 83.4447 201.295 83.1914 201.052 82.7758C200.883 82.4694 200.722 82.0693 200.414 81.6253C200.156 81.2279 199.904 80.9369 199.719 80.662C199.496 80.3271 199.349 80.0361 199.124 79.8441C198.901 79.652 198.6 79.5584 198.255 79.4675C197.964 79.3895 197.653 79.2985 197.197 79.2688C196.547 79.2271 196.458 79.9532 196.953 80.5231C197.191 80.7972 197.393 81.1503 197.645 81.4776C197.82 81.7034 198.044 81.8985 198.222 82.1283C198.463 82.4428 198.658 82.7892 198.896 83.0721C199.126 83.3267 199.371 83.5485 199.555 83.772C199.735 83.9809 199.952 84.3526 200.281 84.7824C200.47 85.0277 200.73 85.2721 200.956 85.5759C201.143 85.8265 201.291 86.129 201.498 86.4097C201.617 86.5747 201.793 86.7109 201.917 86.8839C202.128 87.1447 202.226 87.4902 202.412 87.7891C202.618 88.1373 202.884 88.462 203.103 88.8204C203.286 89.1202 203.42 89.4515 203.607 89.754C203.771 90.0201 203.99 90.2579 204.154 90.524C204.318 90.8056 204.454 91.1006 204.59 91.3902C204.705 91.6239 204.872 91.8302 204.981 92.059C205.206 92.5345 205.372 93.0162 205.584 93.446C205.733 93.7525 205.935 94.0213 206.074 94.2989C206.245 94.6431 206.352 94.9846 206.497 95.2716C206.583 95.4406 206.669 95.5989 206.726 95.7519C206.872 96.1023 207.049 96.3662 207.133 96.5698C207.346 97.0839 207.5 97.6241 207.705 98.1448C207.807 98.4056 207.967 98.6473 208.067 98.9095C208.203 99.2612 208.28 99.6342 208.414 99.9873C208.557 100.372 208.71 100.755 208.829 101.148C208.901 101.4 208.911 101.67 208.977 101.923C209.06 102.241 209.197 102.545 209.274 102.867C209.344 103.155 209.352 103.459 209.419 103.748C209.519 104.179 209.68 104.596 209.784 105.027C209.835 105.318 209.829 105.623 209.884 105.911C209.949 106.246 210.075 106.566 210.143 106.899C210.205 107.212 210.209 107.537 210.273 107.848L210.615 109.222C210.726 109.705 210.749 110.204 210.804 110.695C210.856 111.078 210.97 111.449 211.028 111.827C211.095 112.285 211.107 112.749 211.178 113.201C211.268 113.772 211.419 114.333 211.504 114.902C211.55 115.348 211.518 115.803 211.549 116.251C211.581 116.777 211.669 117.296 211.695 117.823C211.714 118.2 211.671 118.579 211.69 118.955C211.714 119.497 211.82 120.036 211.806 120.586C211.806 121.002 211.75 121.422 211.761 121.846C211.77 122.229 211.846 122.615 211.867 123.004C211.884 123.336 211.844 123.67 211.866 124.006C211.883 124.248 211.961 124.492 211.979 124.736C212.025 125.241 211.941 125.749 211.957 126.267C211.961 126.654 212.025 127.048 212.027 127.445C212.029 127.949 211.961 128.45 211.946 128.954C211.939 129.207 211.992 129.464 211.981 129.717C211.976 130.096 211.859 130.467 211.816 130.844C211.766 131.261 211.773 131.685 211.72 132.104C211.651 132.647 211.521 133.181 211.455 133.722C211.415 134.052 211.434 134.389 211.397 134.719C211.36 135.167 211.13 135.791 210.976 136.572C210.902 137.012 210.821 137.495 210.735 138.012C210.631 138.52 210.464 139.045 210.356 139.607C210.299 139.944 210.246 140.292 210.164 140.638C210.087 140.936 209.955 141.227 209.882 141.534C209.772 142.005 209.725 142.5 209.62 142.983C209.535 143.379 209.392 143.759 209.306 144.155C209.208 144.681 209.072 145.193 208.926 145.689C208.838 145.965 208.691 146.217 208.6 146.481C208.521 146.712 208.498 146.959 208.419 147.183C208.264 147.62 208.052 148.019 207.903 148.416C207.752 148.865 207.612 149.288 207.425 149.657C207.131 150.25 206.817 150.733 206.613 151.127C206.381 151.579 206.275 151.914 206.215 152.039C206.052 152.383 205.914 152.604 205.885 152.788C205.834 153.124 205.972 153.25 206.168 153.357C206.376 153.47 206.591 153.386 206.845 153.036C206.963 152.873 207.036 152.622 207.174 152.33Z" fill="#30343B"/>
<path d="M100.721 138.024C100.237 137.167 99.8288 136.259 99.442 135.356C99.0588 134.487 98.8654 133.553 98.5434 132.669C98.307 131.85 98.0692 131.026 97.8342 130.213C97.6563 129.195 97.4651 128.193 97.3512 127.177L97.1046 125.372C97.0602 124.767 97.015 124.163 96.9706 123.564C96.889 122.58 97.007 121.601 96.9955 120.63C97.0043 120.056 97.0385 119.102 97.1046 118.054C97.1915 117.222 97.3658 116.337 97.4656 115.503C97.7149 114.087 97.8683 112.838 97.9823 112.443C98.1548 111.732 98.3394 111.035 98.5367 110.342C98.8015 109.433 98.9665 108.498 99.277 107.619C99.5755 106.649 99.9538 105.73 100.314 104.807C100.512 104.237 100.697 103.66 100.93 103.115C101.221 102.385 101.546 101.664 101.889 100.967C102.205 100.252 102.553 99.5726 102.868 98.9038C103.19 98.1728 103.503 97.4623 103.789 96.8121C104.159 95.9552 104.571 95.2601 104.767 94.558C105.229 93.2984 105.237 92.2556 104.385 91.7686C104.011 91.5597 103.45 91.8622 102.635 92.4335C102.027 92.8659 101.304 93.4709 100.603 94.2564C100.046 94.9705 99.4824 95.8084 98.959 96.7003C98.264 97.7652 97.5836 98.9078 97.0136 100.079C96.559 101.167 96.1736 102.263 95.8591 103.277C95.3331 104.754 94.933 106.063 94.7135 106.998C94.5485 107.639 94.4837 108.476 94.2783 109.413C94.108 110.229 93.8863 111.139 93.7133 112.141C93.5975 112.962 93.6068 113.854 93.4951 114.767C93.4108 115.806 93.225 116.891 93.177 118.029C93.1682 119.071 93.1886 120.144 93.2431 121.236C93.2742 121.98 93.1562 122.737 93.2263 123.499C93.2768 124.171 93.3536 124.844 93.4316 125.517L93.755 127.53C93.8743 128.595 94.0668 129.655 94.2655 130.691C94.485 131.616 94.8629 132.491 95.1069 133.371C95.4941 134.467 95.7589 135.578 96.2002 136.575C96.6832 137.628 97.1977 138.599 97.7286 139.482C98.1664 140.292 98.5505 141.169 99.1182 141.968C99.4078 142.393 99.7063 142.818 100.031 143.23C100.378 143.627 100.726 144.025 101.057 144.44C101.767 145.406 102.597 146.301 103.426 147.203C104.123 147.868 104.931 148.414 105.644 149.053C106.322 149.593 106.976 150.165 107.666 150.681C108.435 151.255 109.331 151.609 110.114 152.107C110.74 152.517 111.376 152.891 112.024 153.22C112.854 153.631 113.702 153.949 114.524 154.238C115.34 154.543 116.083 154.974 116.854 155.223C117.678 155.454 118.459 155.672 119.202 155.879C119.948 156.132 120.666 156.308 121.328 156.471C122.34 156.66 123.27 156.746 124.078 156.715C124.778 156.711 125.371 156.755 125.873 156.667C127.8 156.332 128.09 155.511 126.108 154.732C125.502 154.483 124.688 154.24 123.635 153.987C123.008 153.819 122.274 153.704 121.462 153.546C120.293 153.36 118.886 152.811 117.407 152.398C115.93 151.834 114.384 151.335 113.264 150.728C112.062 150.182 111.29 149.618 111.107 149.505C110.445 149.08 109.701 148.759 109.08 148.253C108.531 147.837 107.976 147.417 107.437 146.949C106.928 146.451 106.404 145.939 105.859 145.407C105.46 145.016 105.068 144.586 104.674 144.143C104.437 143.861 104.194 143.578 103.968 143.272C103.752 142.957 103.533 142.633 103.307 142.303C103.079 142.002 102.843 141.693 102.604 141.376C102.381 141.046 102.165 140.701 101.95 140.348C101.74 139.987 101.524 139.618 101.304 139.242C101.116 138.845 100.921 138.441 100.721 138.024Z" fill="#30343B"/>
<path d="M228.278 129.181C228.417 128.301 228.504 127.408 228.626 126.533C228.714 125.684 228.868 124.851 228.941 124.006C228.972 123.243 229.002 122.476 229.031 121.717C229.05 120.798 229.135 119.889 229.138 118.975C229.109 117.892 229.07 116.809 228.991 115.742C228.951 114.867 228.953 113.996 228.86 113.132C228.813 112.62 228.701 111.781 228.565 110.85C228.471 110.108 228.425 109.302 228.278 108.558C228.075 107.283 227.754 106.187 227.67 105.829C227.534 105.182 227.418 104.535 227.225 103.902C227 103.068 226.679 102.26 226.372 101.458C226.078 100.575 225.72 99.7124 225.34 98.8657C225.113 98.3489 224.761 97.8801 224.498 97.3851C223.778 96.0865 222.903 94.8038 221.894 93.7597C221.377 93.1791 220.7 92.7573 220.164 92.3315C219.413 91.8161 218.699 91.4174 218.053 91.212C216.734 90.894 215.87 91.1339 215.55 92.0702C215.407 92.4792 215.665 92.9285 216.081 93.5051C216.411 93.9127 216.704 94.5736 217.176 95.0841C217.535 95.6088 218.053 96.0501 218.462 96.6475C218.702 97.0161 218.947 97.3953 219.195 97.7746C219.411 98.1835 219.634 98.5849 219.881 98.9668C220.303 99.6795 220.798 100.348 221.155 101.029C221.399 101.541 221.629 102.022 221.834 102.455C222.01 102.904 222.171 103.299 222.33 103.615C222.538 104.055 222.842 104.6 223.09 105.275C223.322 105.856 223.444 106.552 223.662 107.285C223.86 107.875 224.125 108.496 224.286 109.18C224.492 109.946 224.561 110.783 224.715 111.635C224.88 112.409 225.065 113.214 225.179 114.043C225.266 114.609 225.204 115.194 225.253 115.775C225.353 116.798 225.475 117.837 225.522 118.877C225.55 119.699 225.433 120.519 225.445 121.326C225.437 122.051 225.493 122.772 225.472 123.475C225.441 124.367 225.251 125.219 225.198 126.048C225.111 126.922 225.097 127.768 225.009 128.552C224.899 129.249 224.685 129.947 224.565 130.681C224.417 131.448 224.332 132.252 224.161 133.049C223.922 133.934 223.61 134.814 223.324 135.7C223.084 136.391 222.971 137.133 222.7 137.816C222.45 138.432 222.126 139.015 221.867 139.616C221.551 140.269 221.342 140.971 221.023 141.607C220.744 142.106 220.389 142.553 220.121 143.036C219.774 143.646 219.459 144.259 219.103 144.827C218.735 145.384 218.243 145.816 217.878 146.311C217.491 146.835 217.083 147.292 216.7 147.737C216.316 148.196 215.834 148.501 215.461 148.855C214.923 149.417 214.455 149.941 214.046 150.417C213.698 150.843 213.324 151.108 213.083 151.438C212.173 152.715 212.301 153.637 214.147 153.071C214.725 152.92 215.433 152.598 216.244 152.023C216.752 151.702 217.209 151.193 217.748 150.67C218.144 150.306 218.574 149.874 218.999 149.383C219.438 148.903 219.916 148.399 220.313 147.831C221.206 146.7 221.928 145.433 222.517 144.455C223.082 143.419 223.563 142.703 223.629 142.522C223.918 141.875 224.209 141.223 224.503 140.569C224.973 139.431 225.551 138.304 226.026 137.017C226.215 136.55 226.352 136.043 226.513 135.536C226.719 134.907 227.012 134.279 227.208 133.583C227.373 132.918 227.546 132.22 227.727 131.492C227.891 130.755 228.109 129.998 228.278 129.181Z" fill="#30343B"/>
<path d="M143.711 138.094C143.51 138.421 143.311 138.73 143.212 139.059C143.073 139.546 143.105 140.048 143.143 140.522C143.189 141.075 143.274 141.627 143.469 142.094C143.659 142.548 143.948 142.88 144.169 143.197C144.762 144.023 145.349 144.405 145.263 144.649C145.213 144.836 144.502 144.929 143.5 144.345C143.024 144.075 142.551 143.616 142.108 143.02C141.823 142.634 141.531 142.189 141.341 141.661C141.166 141.221 141.099 140.722 141.04 140.205C141.013 139.707 140.975 139.173 141.105 138.632C141.233 138.03 141.501 137.462 141.815 136.946C142.139 136.421 142.423 136.042 142.692 135.758C143.097 135.341 143.44 135.11 143.772 134.857C144.089 134.616 144.405 134.354 144.865 134.042C145.119 133.887 145.411 133.706 145.759 133.492C146.167 133.226 146.562 132.957 146.97 132.731C147.469 132.463 147.973 132.246 148.454 132.04C148.989 131.806 149.494 131.578 149.988 131.417C150.507 131.244 151.008 131.145 151.453 131.047C151.804 130.97 152.118 130.879 152.411 130.843C153.458 130.705 154.092 130.788 154.138 131.004C154.183 131.201 153.759 131.406 153.045 131.765C152.624 131.978 152.119 132.284 151.52 132.57C151.016 132.814 150.432 133.026 149.834 133.336C149.372 133.575 148.922 133.898 148.425 134.177C147.907 134.477 147.338 134.744 146.795 135.094C146.393 135.361 146.12 135.644 145.868 135.837C145.255 136.315 144.905 136.551 144.455 137.026C144.217 137.284 143.992 137.641 143.711 138.094Z" fill="#30343B"/>
<path d="M176.881 135.108C176.576 134.884 176.303 134.619 175.994 134.422C175.55 134.134 175.079 133.934 174.656 133.696C174.168 133.414 173.719 133.113 173.285 132.883C172.864 132.669 172.462 132.533 172.129 132.359C171.263 131.902 170.738 131.557 170.791 131.318C170.837 131.105 171.379 130.986 172.277 131.044C172.703 131.074 173.199 131.175 173.76 131.305C174.124 131.389 174.527 131.466 174.932 131.603C175.273 131.72 175.615 131.884 175.973 132.046C176.319 132.195 176.685 132.343 177.038 132.542C177.426 132.761 177.799 133.031 178.18 133.309C178.568 133.588 178.878 133.806 179.113 134.023C179.466 134.34 179.674 134.621 179.912 134.889C180.139 135.148 180.39 135.402 180.698 135.792C180.847 136.013 181.02 136.268 181.225 136.573C181.476 136.93 181.726 137.279 181.916 137.652C182.158 138.101 182.315 138.571 182.47 139.015C182.643 139.511 182.794 139.989 182.872 140.451C182.95 140.94 182.951 141.402 182.943 141.812C182.938 142.135 182.946 142.428 182.9 142.691C182.742 143.631 182.425 144.116 182.215 144.079C182.007 144.047 181.978 143.646 181.838 142.991C181.755 142.606 181.595 142.143 181.445 141.625C181.331 141.185 181.222 140.69 181.022 140.179C180.859 139.787 180.617 139.402 180.394 138.997C180.165 138.568 179.96 138.094 179.655 137.66C179.428 137.335 179.171 137.138 178.995 136.943C178.563 136.464 178.331 136.193 177.887 135.808C177.642 135.606 177.308 135.414 176.881 135.108Z" fill="#30343B"/>
<path d="M161.368 132.958C157.495 132.526 154.212 127.741 157.14 126.694C160.069 125.649 165.964 126.163 166.86 128.149C167.756 130.134 164.182 133.272 161.368 132.958Z" fill="#30343B"/>
<path d="M154.8 122.592C154.804 122.411 154.904 122.242 154.918 122.073C154.937 121.829 154.866 121.608 154.906 121.395C154.947 121.15 155.102 120.904 155.16 120.691C155.226 120.478 155.192 120.307 155.271 120.133C155.471 119.684 155.726 119.336 156.07 119.232C156.379 119.135 156.76 119.272 157.127 119.645C157.289 119.821 157.419 120.059 157.551 120.325C157.639 120.499 157.776 120.686 157.84 120.889C157.895 121.06 157.904 121.248 157.939 121.432C157.974 121.608 158.057 121.797 158.074 121.982C158.093 122.187 158.06 122.405 158.056 122.613C158.054 122.826 158.093 123 158.073 123.137C158.047 123.341 157.963 123.491 157.926 123.642C157.893 123.787 157.907 123.938 157.885 124.147C157.874 124.257 157.817 124.382 157.815 124.534C157.809 124.717 157.854 124.885 157.839 125.054C157.823 125.261 157.76 125.451 157.732 125.639C157.705 125.845 157.72 126.037 157.68 126.221C157.643 126.41 157.542 126.597 157.49 126.761C157.451 126.891 157.454 127.005 157.402 127.116C157.228 127.511 156.989 127.802 156.664 127.88C156.381 127.947 156.176 127.807 155.885 127.511C155.723 127.337 155.47 127.114 155.337 126.828C155.229 126.586 155.228 126.303 155.163 126.01C155.105 125.781 154.974 125.545 154.946 125.291C154.919 125.029 155.006 124.757 155.01 124.483C155.006 124.28 154.899 124.115 154.89 123.979C154.865 123.649 154.928 123.469 154.91 123.184C154.901 123.026 154.798 122.842 154.8 122.592Z" fill="#30343B"/>
<path d="M156.548 179.003C156.851 178.644 157.197 178.333 157.515 178.022C157.963 177.562 158.344 177.073 158.77 176.671C159.287 176.23 159.84 175.893 160.297 175.549C160.732 175.209 161.109 174.891 161.488 174.677C162.479 174.118 163.155 173.911 163.345 174.136C163.52 174.347 163.285 174.918 162.745 175.705C162.496 176.084 162.122 176.456 161.768 176.941C161.533 177.25 161.305 177.603 161.024 177.936C160.788 178.216 160.508 178.478 160.266 178.79C160.027 179.087 159.807 179.415 159.546 179.719C159.25 180.047 158.946 180.384 158.65 180.741C158.359 181.109 158.132 181.4 157.939 181.645C157.653 182.006 157.398 182.234 157.17 182.5C156.945 182.751 156.761 183.044 156.492 183.444C156.344 183.656 156.143 183.88 155.947 184.179C155.732 184.545 155.559 184.923 155.347 185.267C155.093 185.686 154.847 186.093 154.612 186.482C154.388 186.937 154.179 187.368 153.982 187.77C153.77 188.196 153.53 188.575 153.362 188.938C153.217 189.219 153.143 189.492 153.025 189.726C152.613 190.563 152.339 191.066 152.062 191.057C151.818 191.049 151.693 190.575 151.675 189.762C151.662 189.283 151.64 188.67 151.773 187.995C151.894 187.431 152.128 186.833 152.373 186.189C152.542 185.679 152.705 185.134 152.955 184.597C153.216 184.033 153.618 183.522 153.945 182.948C154.209 182.529 154.347 182.153 154.519 181.869C154.938 181.166 155.271 180.854 155.677 180.25C155.893 179.923 156.134 179.511 156.548 179.003Z" fill="#30343B"/>
<path d="M171.663 178.653C171.404 178.357 171.181 178.037 170.926 177.762C170.559 177.36 170.144 177.044 169.799 176.695C169.41 176.274 169.098 175.817 168.755 175.466C168.417 175.131 168.12 174.834 167.852 174.567C167.204 173.835 166.881 173.259 167.039 173.008C167.186 172.777 167.744 172.83 168.601 173.137C169.015 173.271 169.437 173.538 169.936 173.82C170.254 174.007 170.638 174.164 170.972 174.417C171.26 174.624 171.532 174.875 171.836 175.11C172.133 175.33 172.437 175.561 172.727 175.824C173.04 176.121 173.348 176.44 173.646 176.78C173.957 177.118 174.225 177.362 174.421 177.595C174.711 177.941 174.859 178.244 175.061 178.52C175.249 178.785 175.484 179.029 175.754 179.414C175.902 179.619 176.044 179.876 176.254 180.151C176.501 180.482 176.759 180.795 176.982 181.121C177.254 181.517 177.448 181.946 177.674 182.328C177.921 182.757 178.164 183.161 178.357 183.556C178.547 183.985 178.687 184.398 178.813 184.769C178.914 185.06 179.039 185.308 179.1 185.558C179.328 186.441 179.303 187.026 179.047 187.132C178.821 187.226 178.539 186.932 178.07 186.415C177.795 186.114 177.405 185.763 177.057 185.309C176.759 184.93 176.511 184.456 176.163 183.991C175.906 183.624 175.542 183.298 175.259 182.896C174.953 182.482 174.696 182.003 174.368 181.554C174.108 181.228 173.836 181.024 173.658 180.811C173.215 180.291 172.998 179.982 172.594 179.525C172.368 179.285 172.031 179.055 171.663 178.653Z" fill="#30343B"/>
<path d="M158.438 179.53C156.23 194.981 156.476 201.85 156.476 201.85C156.476 201.85 159.91 206.509 164.325 205.528C168.741 204.547 173.155 199.642 173.155 199.642C173.155 199.642 172.666 181.002 172.175 177.814C171.684 174.625 166.288 171.437 165.306 171.683C164.325 171.927 157.947 178.059 158.438 179.53Z" fill="#30343B"/>
<path d="M22.6458 279.698C20.5874 279.805 17.8769 279.972 15.217 279.952C11.6302 279.922 8.15064 279.815 6.50113 279.598C5.54531 279.468 4.91549 279.364 4.54514 279.291C4.15305 279.216 4.07233 279.258 4.10604 278.985C4.41119 278.489 5.6868 278.16 7.47114 277.886C11.0607 277.349 16.8728 277.105 21.9597 276.926C26.7583 276.759 33.1989 276.543 40.1353 276.185C43.1261 276.029 46.2082 275.741 49.2952 275.59C53.1278 275.404 56.9653 275.36 60.6267 275.22C64.5826 275.068 68.3344 274.824 71.6645 274.776C76.8907 274.699 82.0437 274.801 87.8088 274.788C90.4088 274.781 93.1334 274.648 96.0479 274.645C99.865 274.681 104.008 274.72 108.617 274.763C114.552 274.708 121.261 274.647 129.051 274.576C134.759 274.605 138.92 274.629 142.367 274.647C149.116 274.564 153.126 274.514 160.653 274.421C163.663 274.448 167.236 274.479 171.77 274.519C174.665 274.471 177.572 274.421 180.44 274.372C185.421 274.411 190.29 274.449 194.789 274.484C197.799 274.439 200.645 274.396 203.249 274.358C207.959 274.366 211.875 274.515 214.541 274.55C217.697 274.592 221.459 274.483 225.587 274.494C229.744 274.543 234.271 274.595 238.921 274.647C242.551 274.616 246.255 274.582 249.916 274.55C252.576 274.561 255.212 274.707 257.782 274.73C260.076 274.75 262.317 274.644 264.471 274.675C270.983 274.769 276.709 275.047 280.765 275.273C285.827 275.553 291.218 275.57 296.256 275.701C299.014 275.773 301.664 275.969 304.099 276.05C311.241 276.293 316.466 276.491 317.207 277.48L317.331 277.739C317.359 277.87 317.308 277.922 317.276 277.922L317.011 277.88C316.825 277.926 316.494 277.977 315.999 278.012C314.765 278.104 312.547 278.146 309.562 278.184C307.129 278.214 304.188 278.112 300.852 278.159C298.5 278.194 296.437 278.349 294.544 278.358C290.118 278.384 286.613 278.197 282.442 278.085C280.541 278.036 278.501 278.104 276.175 278.037C273.27 277.956 269.917 277.734 265.823 277.647C254.008 277.401 248.903 277.566 242.836 277.59C240.814 277.556 238.686 277.521 236.166 277.478C233.001 277.48 229.218 277.6 224.254 277.563C218.966 277.472 213.674 277.381 208.721 277.296C204.525 277.295 200.573 277.293 197.072 277.293C189.439 277.204 183.954 277.002 182.769 277.005C181.69 277.008 176.68 277.226 169.433 277.348C167.258 277.384 164.883 277.295 162.353 277.336C159.869 277.418 157.234 277.504 154.493 277.592C150.866 277.605 147.053 277.618 143.153 277.631C139.926 277.715 136.639 277.802 133.352 277.888C129.265 277.896 125.175 277.905 121.193 277.915C116.392 278.031 111.746 278.143 107.45 278.248C102.423 278.283 97.8735 278.314 94.111 278.342C89.0214 278.431 85.372 278.627 83.9265 278.646C80.568 278.689 74.19 278.713 67.395 278.904C62.7406 279.089 57.8883 279.281 53.6729 279.447C48.3895 279.615 44.1041 279.629 42.4599 279.665C40.8197 279.702 37.1947 279.73 33.1248 279.689C29.6306 279.652 25.8082 279.53 22.6458 279.698Z" fill="#30343B"/>
<path d="M314.112 246.128C313.059 245.956 311.761 245.982 310.218 245.875C307.931 245.722 305.097 245.436 301.767 245.326C299.807 245.267 297.675 245.346 295.381 245.301C292.888 245.255 290.204 245.083 287.339 245.057C284.293 245.036 281.043 245.156 277.602 245.156C273.704 245.158 270.106 244.997 266.714 244.962C263.089 244.925 259.701 244.997 256.427 244.935C254.697 244.904 252.999 244.741 251.318 244.707C248.236 244.647 245.206 244.72 242.12 244.683C238.273 244.637 234.339 244.483 230.112 244.512C227.437 244.529 224.712 244.702 221.92 244.761C219.598 244.812 217.229 244.746 214.804 244.817C213.104 244.867 211.375 245.05 209.615 245.104C207.097 245.142 204.514 245.18 201.858 245.219C198.458 245.325 194.937 245.556 191.275 245.652C188.225 245.731 185.075 245.672 181.815 245.731C178.638 245.785 175.358 245.959 171.96 245.985C168.516 246.011 165.564 245.821 162.952 245.939C160.656 245.993 158.585 246.137 156.669 246.131C154.609 246.123 152.73 245.962 150.948 245.931C148.367 245.885 145.989 245.97 143.552 246.001C137.52 246.079 132.8 245.977 128.839 245.98C126.059 245.981 123.654 246.099 121.428 246.082C117.006 246.047 113.297 245.863 108.798 245.846C106.289 245.837 103.535 245.969 100.273 245.994C95.2794 245.98 90.4445 245.964 85.5496 245.949C82.1636 246.009 78.7493 246.068 75.2312 246.129C72.8946 246.143 70.5115 246.029 68.0623 246.049C65.0312 246.12 61.8972 246.193 58.6194 246.27C55.5324 246.304 52.3168 246.215 48.9415 246.267L38.8493 246.424C36.0257 246.364 32.8935 246.182 29.9205 246.141C26.0852 246.091 22.5165 246.188 20.2217 246.186C17.1919 246.187 13.9709 246.184 11.2228 246.409C7.03978 246.71 3.92394 247.258 4.25793 247.993C4.59058 248.724 7.36445 249.253 11.2179 249.575C13.7425 249.761 16.7257 249.721 19.7737 249.718C21.9918 249.718 24.5985 249.871 27.3635 249.884C29.3257 249.897 31.3686 249.78 33.4115 249.787C36.4271 249.796 39.4414 249.923 42.1869 249.874C41.8804 249.872 44.1114 249.768 47.457 249.798C50.2934 249.822 53.9326 249.98 57.5013 249.996C60.7999 250.011 64.039 249.881 66.5299 249.86C70.543 249.868 73.9627 249.873 76.969 249.878C81.0016 249.819 84.29 249.621 87.2665 249.542C91.4783 249.458 95.0679 249.387 99.2562 249.303C102.191 249.211 105.42 248.985 109.365 248.892C111.903 248.876 114.737 248.858 117.98 248.838C123.962 248.728 129.317 248.58 134.259 248.598C138.32 248.615 142.103 248.785 145.723 248.822C150.11 248.865 154.259 248.77 158.38 248.74C161.011 248.72 163.63 248.806 166.292 248.72C169.967 248.667 173.579 248.515 177.293 248.502C179.906 248.539 182.57 248.576 185.338 248.614C187.731 248.565 190.204 248.514 192.791 248.46C195.027 248.449 197.351 248.564 199.783 248.541C202.824 248.541 205.525 248.409 207.968 248.402C210.874 248.439 213.412 248.471 215.71 248.5C219.268 248.476 222.253 248.318 225.149 248.286C226.866 248.266 228.553 248.375 230.308 248.354C232.026 248.332 233.808 248.181 235.752 248.158C238.135 248.173 240.76 248.188 243.798 248.206C246.089 248.185 248.615 248.04 251.451 248.024C255.758 248.043 259.662 248.061 263.281 248.076C266.225 248.005 268.981 247.939 271.614 247.874C275.731 247.837 279.548 247.92 283.311 247.865C285.792 247.827 288.249 247.655 290.754 247.621C293.522 247.579 296.347 247.661 299.327 247.607C301.931 247.552 304.647 247.388 307.546 247.359C309.845 247.337 311.743 247.395 313.177 247.345C317.957 247.231 318.384 246.766 314.112 246.128Z" fill="#30343B"/>
</g>
</g>
<defs>
<clipPath id="clip0_288_10064">
<rect width="320" height="320" rx="7.19101" fill="white"/>
</clipPath>
<clipPath id="clip1_288_10064">
<rect width="319.346" height="305" fill="white" transform="translate(1 12)"/>
</clipPath>
</defs>
</svg>
