<svg width="270" height="200" viewBox="0 0 270 200" fill="none" xmlns="http://www.w3.org/2000/svg">
<g clip-path="url(#clip0_268_1071)">
<path d="M269.5 153.333C269.5 158.85 265.876 164.201 259.096 169.148C252.327 174.087 242.5 178.557 230.312 182.318C205.941 189.84 172.244 194.5 135 194.5C97.7565 194.5 64.0585 189.84 39.688 182.318C27.4998 178.557 17.6727 174.087 10.9037 169.148C4.12396 164.201 0.5 158.85 0.5 153.333C0.5 147.816 4.12396 142.466 10.9037 137.519C17.6727 132.579 27.4998 128.11 39.688 124.348C64.0585 116.827 97.7565 112.167 135 112.167C172.244 112.167 205.941 116.827 230.312 124.348C242.5 128.11 252.327 132.579 259.096 137.519C265.876 142.466 269.5 147.816 269.5 153.333Z" fill="#BBE0F0" stroke="#202050"/>
<path d="M269.5 145C269.5 150.565 265.874 155.959 259.095 160.946C252.326 165.924 242.499 170.429 230.311 174.221C205.941 181.803 172.243 186.5 135 186.5C97.7568 186.5 64.0592 181.803 39.6891 174.221C27.5011 170.429 17.6742 165.924 10.9052 160.946C4.12615 155.959 0.5 150.565 0.5 145C0.5 139.435 4.12615 134.041 10.9052 129.054C17.6742 124.076 27.5011 119.571 39.6891 115.779C64.0592 108.197 97.7568 103.5 135 103.5C172.243 103.5 205.941 108.197 230.311 115.779C242.499 119.571 252.326 124.076 259.095 129.054C265.874 134.041 269.5 139.435 269.5 145Z" fill="#46B2FF" stroke="#202050"/>
<ellipse cx="123.333" cy="132.5" rx="21.6667" ry="5.83333" fill="#778599"/>
<g clip-path="url(#clip1_268_1071)">
<path d="M181.072 37.7468C179.313 37.527 171.4 35.5486 165.465 36.428C159.531 37.3072 149.859 39.945 147.441 39.5054C145.024 39.0658 141.946 37.747 140.188 34.0103C138.429 30.2736 138.869 27.1963 138.429 26.3171C137.99 25.4379 139.309 19.2832 138.649 15.5465C137.99 11.8098 134.912 10.4911 133.814 10.2713C132.715 10.0515 122.384 14.2278 122.384 14.2278C118.647 17.0853 115.13 20.1624 116.229 24.5585C117.328 28.9546 117.768 35.3288 114.251 39.945C110.734 44.5608 100.184 55.771 96.4469 63.0244C92.7102 70.278 87.8745 82.8067 87.6547 87.6426C87.4349 92.4783 91.831 94.0168 93.3695 93.1377C94.9081 92.2585 96.8865 88.0822 98.2052 86.3236C98.8302 85.4903 101.36 81.8939 104.116 78.2929C105.213 87.5634 105.622 97.2647 105.239 98.4129C104.58 100.391 105.019 106.326 105.239 111.381C105.395 114.956 107.437 117.756 109.196 118.855C110.954 119.954 115.57 117.976 116.889 117.097C118.208 116.217 121.724 114.239 122.164 111.382C122.604 108.524 123.263 107.645 123.263 107.645L122.604 105.227C122.604 105.227 122.639 105.122 124.582 105.007C126.525 104.893 125.193 108.121 125.021 110.283C124.85 112.445 125.681 114.019 128.318 114.679C130.956 115.338 134.473 115.558 137.77 112.92C141.067 110.283 141.507 108.524 141.287 107.206C141.067 105.887 141.946 103.469 141.946 103.469C141.946 103.469 147.881 98.4134 149.64 90.94C151.398 83.4666 150.739 77.3121 150.079 73.7952C149.42 70.2783 147.661 64.3437 147.222 63.0246C147.144 62.791 147.22 62.5017 147.412 62.1715C147.372 62.1687 147.331 62.1673 147.29 62.1647C150.09 60.0327 156.448 54.9684 157.552 54.2322C158.871 53.353 165.685 48.2976 170.521 46.7588C175.357 45.2202 176.675 43.6814 178.434 42.3627C180.192 41.0437 182.83 37.9666 181.072 37.7468Z" fill="white"/>
<path d="M141.287 24.3386C138.649 25.6574 136.891 26.097 135.792 24.7782C134.693 23.4595 139.341 17.9467 140.66 16.628C141.979 15.3092 142.606 16.4256 145.683 16.6457C148.761 16.8655 151.398 17.7446 151.618 18.404C151.838 19.0634 152.937 19.9425 149.64 21.0418C146.343 22.1407 144.145 23.2399 143.485 23.2399C142.826 23.2394 141.287 24.3386 141.287 24.3386Z" fill="#F7B52C"/>
<path d="M109.855 119.074C110.734 121.932 108.756 127.866 108.097 129.185C107.437 130.504 103.92 133.142 103.701 134.46C103.481 135.779 103.122 136.997 105.019 136.439C106.815 135.91 111.293 134.218 112.053 134.241C112.813 134.263 114.471 137.538 116.449 139.076C118.427 140.615 118.647 138.856 117.768 135.559C120.406 135.779 121.043 134.897 122.384 135.779C123.725 136.661 126.121 136.439 125.022 134.46C123.923 132.482 121.944 131.383 118.647 129.845C115.831 128.53 114.471 127.207 114.691 123.91C114.911 120.613 114.471 118.635 114.471 118.635L112.713 117.096L109.416 117.755L109.855 119.074Z" fill="#F7B52C"/>
<path d="M129.198 115.997C129.417 118.635 129.398 122.166 128.538 123.91C127.678 125.654 125.901 126.108 125.241 127.207C124.582 128.306 123.922 129.845 125.681 129.845C127.439 129.845 129.857 128.306 131.176 128.746C132.495 129.185 133.814 129.845 135.352 131.384C136.891 132.922 137.99 133.802 138.649 132.922C139.309 132.043 139.748 130.504 138.21 129.405C136.671 128.306 138.789 129.391 140.408 128.966C141.865 128.583 145.211 130.663 144.804 129.845C144.396 129.027 145.243 128.306 143.705 127.427C142.166 126.548 138.429 125.229 137.33 124.569C136.231 123.91 135.132 122.371 134.912 120.613C134.692 118.854 134.253 115.557 134.253 115.557C134.253 115.557 131.395 115.777 130.077 115.337C128.758 114.898 129.198 115.997 129.198 115.997Z" fill="#F7B52C"/>
<path d="M137.545 15.4102C139.699 11.8537 137.072 8.618 133.663 7.41279C129.417 5.91149 124.466 6.84847 120.49 8.69144C116.764 10.4183 113.479 13.2407 112.097 17.206C110.628 21.4219 111.736 25.7813 112.334 30.0448C112.938 34.3563 112.644 38.2753 110.384 42.0977C108.104 45.9555 104.816 49.1058 101.834 52.4076C96.4378 58.3805 93.3073 65.5547 90.5521 73.043C89.1269 76.9167 87.7422 80.8602 86.7266 84.8636C85.8961 88.137 84.505 94.6706 88.9795 96.0078C89.4089 96.1362 93.1855 96.1958 92.7547 95.0969C92.6722 94.8862 90.5185 94.9646 90.2214 94.9057C89.0842 94.6805 88.3295 94.0552 87.9 92.9623C86.5326 89.4826 87.8909 84.7219 88.8521 81.3193C90.0412 77.1104 91.6459 73.0315 93.2972 68.9867C94.6391 65.6995 95.9503 62.3362 97.829 59.3099C102.265 52.1633 110.541 47.2711 113.251 39.0651C116.054 30.5763 109.706 20.7756 116.496 13.4269C119.574 10.0959 124.395 8.26201 128.895 8.49613C130.944 8.60264 132.954 9.15081 134.562 10.4784C136.203 11.8334 136.655 13.5867 137.545 15.4102Z" fill="#231815"/>
<path d="M149.009 21.91C150.766 21.3335 154.368 19.5306 151.44 17.8395C149.744 16.8603 147.312 16.1285 145.38 15.758C144.649 15.6178 142.838 15.3642 142.396 16.2285C141.845 17.3082 143.73 17.5415 144.362 17.622C146.527 17.8975 148.64 17.6715 150.723 18.5848C153.24 19.6882 149.542 20.9199 148.377 21.2603C145.867 21.9936 142.84 22.4613 140.656 23.9876C140.257 24.2668 138.933 25.5837 139.927 25.9025C140.551 26.103 142.064 24.5678 142.482 24.3225C144.486 23.1478 146.82 22.6207 149.009 21.91Z" fill="#231815"/>
<path d="M136.83 22.2384C137.468 21.0973 138.237 19.9163 139.188 19.0045C139.755 18.4613 141.022 17.8413 140.457 16.8475C139.215 14.6634 137.038 20.292 136.682 20.9103C136.304 21.566 133.543 25.9163 136.488 25.5157C136.85 25.4665 137.197 25.342 137.281 24.9444C137.419 24.2848 136.892 24.4064 136.635 24.1832C136.296 23.8894 136.428 24.6376 136.115 23.9077C135.971 23.5691 136.684 22.5017 136.83 22.2384Z" fill="#231815"/>
<path d="M138.517 29.2226C139.994 31.9435 141.022 35.2515 143.683 37.0924C145.696 38.4856 148.54 38.2911 150.855 38.0286C154.545 37.6104 158.136 36.6164 161.785 35.9661C164.986 35.3958 168.053 35.4065 171.284 35.5992C173.591 35.7369 187.708 36.4034 183.304 41.158C181.118 43.5182 176.939 44.3765 174.09 45.6823C170.899 47.145 167.596 48.3687 164.55 50.132C161.328 51.9976 158.391 54.2864 155.502 56.6229C154.742 57.2369 148.834 62.3882 148.16 61.5734C147.644 60.95 161.542 50.9554 162.653 50.2765C168.388 46.7729 174.948 45.1065 180.871 42.0273C182.333 41.2669 184.922 39.5119 182.399 38.0539C179.931 36.6278 176.311 36.6403 173.544 36.6534C170.113 36.6695 166.696 36.475 163.3 37.0672C159.522 37.7263 155.834 38.8281 152.042 39.4195C148.719 39.938 144.631 40.2739 141.819 38.0388C139.143 35.913 138.663 32.4182 138.517 29.2226Z" fill="#231815"/>
<path d="M147.405 56.8053C147.007 58.573 147.356 59.8467 147.929 61.485C148.548 63.2589 148.937 65.1342 149.384 66.9566C150.348 70.8902 151.563 75.1035 151.848 79.1605C152.38 86.7152 150.158 95.2561 145.309 101.167C144.06 102.69 142.588 103.719 140.708 104.339C139.884 104.611 138.935 104.867 138.056 104.822C136.301 104.733 137.374 103.764 138.412 103.437C140.407 102.808 142.142 102.932 143.77 101.401C145.332 99.9334 146.548 97.9756 147.341 96.0008C148.904 92.1144 149.145 88.0745 149.769 83.992C150.339 80.2652 150.846 76.5368 150.051 72.8107C149.159 68.6399 148.103 64.598 145.844 60.9917C144.949 59.5644 143.787 57.6735 144.969 56.0108C145.272 55.5858 146.173 54.8441 146.744 54.9779C147.536 55.1634 147.014 56.0292 147.405 56.8053Z" fill="#231815"/>
<path d="M116.828 65.56C116.623 67.5339 115.924 68.579 114.34 69.6152C112.295 70.9527 110.402 72.6563 108.567 74.26C106.802 75.8019 104.999 77.3191 103.605 79.2181C101.733 81.7673 100.216 84.5816 98.5409 87.2602C97.2677 89.2964 95.9549 91.8162 94.0854 93.3832C93.4458 93.9191 91.8161 94.667 92.7901 93.2842C93.3502 92.4889 94.2 91.8102 94.8182 91.0511C98.4596 86.58 101.24 81.4399 104.589 76.7535C106.278 74.3891 108.472 72.4264 110.662 70.5308C112.662 68.8004 114.606 67.0069 116.828 65.56Z" fill="#231815"/>
<path d="M141.514 100.063C143.45 101.381 143.295 102.542 143.027 104.499C142.657 107.201 141.714 110.057 139.746 112.013C137.709 114.039 135.013 115.506 132.129 115.8C130.171 116 125.426 115.371 125.087 112.664C124.889 111.085 125.903 112.441 126.354 112.937C127.204 113.872 128.253 114.52 129.482 114.839C132.217 115.55 135.374 114.702 137.574 112.989C141.507 109.926 141.241 104.504 141.514 100.063Z" fill="#231815"/>
<path d="M129.571 103.5C129.87 104.499 130.052 105.222 129.263 105.634C128.509 106.027 127.103 105.854 126.322 105.772C124.754 105.607 122.823 105.6 121.428 105.52C121.007 105.495 120.165 105.311 120.6 104.598C121.053 103.854 122.773 104.744 123.403 104.845C125.586 105.198 127.639 104.401 129.571 103.5Z" fill="#231815"/>
<path d="M122.299 106.079C126.185 107.066 122.934 112.253 121.414 114.144C119.309 116.762 115.14 120.371 111.706 117.411C111.297 117.06 110.59 116.166 111.492 116.133C111.976 116.115 112.931 116.98 113.397 117.171C115.281 117.943 117.243 117.435 118.757 116.13C121.392 113.858 122.611 109.433 122.299 106.079Z" fill="#231815"/>
<path d="M105.191 109.146C104.2 110.021 103.514 111.117 102.418 109.839C101.973 109.321 101.809 108.636 101.703 107.979C101.313 105.547 101.624 102.954 101.599 100.501C101.552 95.8857 101.098 91.2909 100.278 86.7487C100.103 85.775 99.917 85.2633 100.226 84.3896C100.528 83.5367 101.026 82.6963 101.451 81.9005C101.995 80.8838 102.606 80.0073 103.337 79.1265C105.586 76.4166 107.955 73.7192 110.606 71.3935C112.042 70.1333 113.642 68.8083 113.234 71.5552C112.216 78.4073 108.983 84.8679 107.601 91.6653C106.428 97.4315 106.022 103.327 105.191 109.146Z" fill="#231815"/>
<path d="M104.49 101.682C106.358 102.223 106.478 102.822 106.398 104.51C106.313 106.273 106.015 108.027 105.944 109.785C105.863 111.764 106.186 114.153 107.184 115.892C107.469 116.388 110.135 118.837 108.278 118.39C105.213 117.654 105.423 111.379 105.023 109.067C104.617 106.719 104.623 104.068 104.49 101.682Z" fill="#231815"/>
<path d="M113.846 118.749C114.346 119.2 115.184 119.927 115.31 120.653C115.425 121.311 115.044 122.174 115.015 122.864C114.929 124.93 115.57 127.206 117.103 128.661C118.814 130.283 121.33 130.541 123.229 131.862C123.904 132.331 126.503 135.546 124.715 136.277C123.915 136.605 124.176 135.678 124.117 135.118C124.009 134.07 123.677 133.322 122.861 132.628C121.09 131.12 118.618 130.631 116.739 129.242C113.451 126.81 112.763 122.574 113.846 118.749Z" fill="#231815"/>
<path d="M109.563 134.017C110.819 133.288 111.552 133.201 112.39 134.264C113.253 135.355 114.161 136.418 115.057 137.483C115.425 137.921 117.061 139.783 117.776 139.266C118.211 138.952 117.742 136.841 117.608 136.44C117.363 135.708 116.859 135.364 116.5 134.747C116.033 133.945 116.254 133.572 117.137 134.02C117.786 134.35 118.187 135.328 118.374 135.955C118.664 136.923 118.656 137.973 118.512 138.966C118.394 139.784 118.449 139.929 117.775 139.995C116.618 140.108 114.455 138.507 113.648 137.803C112.256 136.588 110.919 135.274 109.563 134.017Z" fill="#231815"/>
<path d="M119.985 136.245C120.191 135.405 120.273 134.488 120.959 134.536C121.645 134.583 122.115 135.333 122.66 135.646C123.179 135.943 124.489 136.068 124.823 136.553C124.987 136.791 125.111 137.215 124.694 137.419C124.249 137.636 123.703 136.889 123.302 136.661C122.339 136.114 121.065 136.172 119.985 136.245Z" fill="#231815"/>
<path d="M109.057 119.039C111.152 119.825 110.928 120.827 110.503 122.626C110.065 124.474 109.415 126.424 108.804 128.161C108.345 129.467 107.243 130.565 106.337 131.574C105.553 132.447 103.923 133.652 103.565 134.802C103.368 135.438 104.365 137.274 103.037 136.49C100.743 135.136 105.213 131.728 106.051 130.931C107.6 129.457 107.706 128.147 108.121 126.158C108.635 123.698 109.046 121.555 109.057 119.039Z" fill="#231815"/>
<path d="M110.323 134.262C109.895 136.105 109.986 136.2 108.269 135.857C107.554 135.714 107.094 135.583 106.392 135.91C105.859 136.159 105.307 137.183 104.85 137.288C104.266 137.422 104.003 137.089 104.163 136.602C104.371 135.965 105.695 135.493 106.23 135.276C107.6 134.72 108.803 134.313 110.323 134.262Z" fill="#231815"/>
<path d="M133.387 115.278C135.081 115.952 135.334 116.603 135.167 118.247C134.99 119.999 135.076 122.333 136.297 123.742C137.86 125.547 145.464 125.596 144.941 129.05C144.771 130.18 144.371 129.588 143.974 129.027C143.483 128.333 143.302 127.729 142.523 127.223C140.661 126.013 138.268 125.983 136.395 124.731C133.274 122.644 133.398 118.7 133.387 115.278Z" fill="#231815"/>
<path d="M135.757 129.551C136.603 127.636 137.967 128.23 138.846 129.651C139.249 130.304 140.227 133.145 139.105 133.757C138.201 134.251 135.47 132.06 134.808 131.606C133.957 131.021 133.106 130.381 132.143 129.988C131.669 129.794 130.692 129.769 130.336 129.367C129 127.859 132.771 129.283 133.16 129.527C134.133 130.135 136.479 132.808 137.748 132.542C138.272 132.432 138.127 132.377 138.156 131.897C138.232 130.65 136.768 129.784 135.757 129.551Z" fill="#231815"/>
<path d="M127.847 115.674C129.858 116.601 129.847 117.407 129.76 119.354C129.652 121.775 129.289 124.118 127.256 125.654C126.364 126.327 124.143 127.416 124.778 128.929C125.461 130.56 129.007 127.485 130.376 128.504C131.487 129.329 129.742 129.339 129.177 129.431C128.033 129.619 126.934 130.06 125.769 130.131C125.067 130.175 124.458 130.277 124.161 129.749C123.771 129.057 124.167 127.568 124.527 127.02C125.034 126.25 125.903 125.92 126.557 125.317C127.237 124.69 127.599 123.899 127.851 123.011C128.552 120.541 127.87 118.154 127.847 115.674Z" fill="#231815"/>
<path d="M138.855 129.562C138.821 128.637 138.681 127.777 139.431 127.672C140.17 127.569 140.848 128.276 141.443 128.583C142.008 128.875 143.388 128.952 143.767 129.462C143.943 129.7 144.115 130.108 143.695 130.345C143.253 130.595 142.604 129.8 142.189 129.588C141.183 129.074 139.895 129.187 138.855 129.562Z" fill="#231815"/>
<path d="M94.1137 90.749C94.2967 90.9808 95.0124 89.8873 95.0629 89.794C95.523 88.942 95.6186 87.9016 94.9087 87.1498C93.7913 85.9662 91.5334 86.3456 90.4853 85.1274C89.4394 83.9115 91.0592 81.7586 91.5337 80.5396C92.3749 78.3787 93.4644 76.4409 94.116 74.1844C94.8246 71.7297 95.3077 69.1367 96.39 66.8084C97.0834 65.3162 98.2277 64.0638 99.2506 62.7878C101.973 59.3919 104.909 56.1831 107.6 52.7597C110.967 48.4748 115.076 44.6185 119.356 41.244C121.973 39.1797 126.749 38.1107 128.265 34.9136C129.255 32.8255 127.829 30.6302 126.881 28.8172C125.714 26.5862 124.773 24.017 124.461 21.5045C124.037 18.0938 125.797 15.5979 129.152 14.837C130.49 14.5336 131.944 14.5029 133.28 14.8344C133.782 14.9589 134.3 15.1245 134.737 15.4076C135.039 15.6031 135.407 16.2617 135.655 16.3703C136.899 16.9167 139.777 15.4953 139.954 14.1722C140.175 12.5146 138.193 10.855 137.003 10.025C135.309 8.84273 133.287 8.18362 131.251 7.91252C127.069 7.35575 122.987 8.43857 119.438 10.649C116.057 12.7558 112.461 16.0586 111.993 20.2487C111.74 22.505 112.796 24.4602 113.263 26.612C113.804 29.1073 113.864 31.6977 113.458 34.2177C111.867 44.1188 103.816 50.1792 98.1139 57.6904C95.5722 61.0383 93.9488 65.1758 92.4295 69.0602C90.9673 72.799 89.6512 76.5992 88.7501 80.5146C87.9259 84.0959 86.9306 87.9909 86.941 91.6925C86.9465 93.5979 87.7176 95.061 89.6259 95.5636C91.1043 95.9529 91.8712 94.8625 92.6124 93.6961C93.2022 92.768 93.691 91.7641 94.1137 90.749Z" fill="#231815"/>
<path d="M140.6 33.5806C138.783 42.3155 150.248 41.3053 155.424 40.1809C162.18 38.7131 170.375 35.8061 177.18 38.3676C176.393 39.4327 175.212 39.5676 175.02 41.0538C174.878 42.1486 175.33 43.99 176.8 43.8671C177.341 43.8217 178.203 43.1694 178.674 42.9361C179.843 42.3566 181.013 41.7775 182.186 41.2064C182.998 40.8108 184.295 40.4991 184.044 39.3879C183.786 38.2465 181.979 37.4134 181.011 37.0975C179.12 36.4809 177.005 36.2887 175.045 36.022C172.567 35.685 170.023 35.3535 167.517 35.4342C165.77 35.4908 164.041 35.9835 162.342 36.3595C158.163 37.2848 153.984 38.44 149.754 39.1121C145.358 39.8105 141.166 38.6749 140.6 33.5806Z" fill="#231815"/>
<path d="M130.511 21.5141C131.844 21.7846 132.727 20.0901 131.515 19.3237C130.383 18.6088 128.696 20.3271 130.511 21.5141Z" fill="#231815"/>
</g>
</g>
<defs>
<clipPath id="clip0_268_1071">
<rect width="270" height="200" fill="white"/>
</clipPath>
<clipPath id="clip1_268_1071">
<rect width="133.333" height="133.333" fill="white" transform="translate(68.3333 6.66667)"/>
</clipPath>
</defs>
</svg>
