<svg width="270" height="200" viewBox="0 0 270 200" fill="none" xmlns="http://www.w3.org/2000/svg">
<path d="M269.5 153.5C269.5 158.993 265.877 164.322 259.097 169.249C252.328 174.169 242.501 178.62 230.312 182.367C205.942 189.859 172.244 194.5 135 194.5C97.7563 194.5 64.0582 189.859 39.6875 182.367C27.4991 178.62 17.672 174.169 10.9029 169.249C4.12286 164.322 0.5 158.993 0.5 153.5C0.5 148.007 4.12286 142.678 10.9029 137.751C17.672 132.831 27.4991 128.38 39.6875 124.633C64.0582 117.141 97.7563 112.5 135 112.5C172.244 112.5 205.942 117.141 230.312 124.633C242.501 128.38 252.328 132.831 259.097 137.751C265.877 142.678 269.5 148.007 269.5 153.5Z" fill="#46B2FF" stroke="#202050"/>
<ellipse cx="122.917" cy="147.5" rx="25.4167" ry="5.83333" fill="#778599"/>
<g clip-path="url(#clip0_268_1029)">
<path d="M184.5 92.818C184.275 91.9193 181.579 90.7961 179.108 89.6727C176.637 88.5495 172.143 85.4042 168.324 83.8315C164.505 82.2589 163.607 80.237 160.911 76.4177C158.215 72.5984 149.678 59.5682 148.554 56.8724C147.431 54.1766 149.228 48.7846 150.576 47.212C151.924 45.6393 153.887 39.8742 154.171 39.1242C154.454 38.3742 154.171 36.4284 152.823 34.1818C151.475 31.9352 148.554 28.5654 144.735 29.0146C140.916 29.4638 132.828 36.4284 131.705 38.2255C130.582 40.0229 118.899 49.9078 116.428 53.2776C113.957 56.6474 100.253 72.8229 96.4333 77.9901C92.614 83.1573 86.9976 100.905 87.2224 104.051C87.4471 107.196 87.6716 107.87 89.9182 109.667C92.1648 111.465 93.0635 109.667 94.6359 108.095C96.2086 106.522 99.8031 101.13 100.477 98.6588C100.784 97.5331 102.537 95.195 104.46 92.8768C106.051 103.223 107.848 115.862 107.442 117.081C106.768 119.103 104.97 124.045 105.644 127.64C106.318 131.235 107.891 134.155 109.688 135.279C111.486 136.402 116.203 134.38 117.551 133.481C118.899 132.583 122.494 130.561 122.943 127.64C123.393 124.72 124.066 123.821 124.066 123.821L123.392 121.349C123.392 121.349 123.428 121.241 125.414 121.125C127.4 121.008 126.039 124.307 125.864 126.517C125.688 128.726 126.537 130.336 129.233 131.01C131.929 131.684 135.524 131.909 138.894 129.213C142.264 126.517 142.713 124.72 142.488 123.372C142.264 122.024 143.162 119.552 143.162 119.552C143.162 119.552 149.228 114.385 151.025 106.747C152.303 101.318 152.33 96.5768 151.998 92.994C154.573 94.3216 156.866 95.5141 156.866 95.5141C156.866 95.5141 164.505 97.5359 166.751 97.7607C168.998 97.9854 179.108 97.9854 180.905 97.0867C182.703 96.188 184.725 93.7167 184.5 92.818Z" fill="white"/>
<path d="M150.576 47.2121C149.273 47.9144 146.308 45.8642 146.308 44.7407C146.308 43.6176 150.86 40.621 152.374 40.2475C153.887 39.8741 155.968 39.7983 157.99 41.1462C160.012 42.4941 161.584 44.2915 162.932 45.6394C164.28 46.9874 161.521 47.8168 160.461 48.1108C159.401 48.4048 154.17 46.9876 153.496 46.9876C152.823 46.9874 150.576 47.2121 150.576 47.2121Z" fill="#F7B52C"/>
<path d="M109.688 135.279C110.587 138.199 108.565 144.265 107.891 145.613C107.217 146.961 103.622 149.657 103.397 151.005C103.173 152.353 102.806 153.598 104.745 153.027C106.581 152.486 111.158 150.757 111.934 150.78C112.711 150.803 114.406 154.15 116.428 155.723C118.45 157.295 118.674 155.498 117.776 152.128C120.471 152.353 121.123 151.452 122.494 152.353C123.864 153.254 126.313 153.027 125.189 151.005C124.066 148.983 121.82 146.736 118.674 146.287C115.529 145.838 114.406 143.591 114.63 140.221C114.855 136.851 114.406 134.829 114.406 134.829L112.608 133.257L109.238 133.93L109.688 135.279Z" fill="#F7B52C"/>
<path d="M129.458 132.133C129.683 134.829 129.663 138.439 128.784 140.221C127.905 142.004 126.088 142.468 125.414 143.591C124.74 144.714 124.066 146.287 125.864 146.287C127.661 146.287 130.132 144.714 131.48 145.163C132.828 145.613 134.176 146.287 135.748 147.859C137.321 149.432 138.444 150.331 139.118 149.432C139.792 148.533 140.691 146.961 139.118 145.837C137.546 144.714 139.261 145.823 140.916 145.388C142.405 144.997 145.825 147.123 145.409 146.287C144.993 145.451 145.858 144.714 144.285 143.815C142.713 142.917 138.894 141.569 137.77 140.895C136.647 140.221 135.524 138.648 135.299 136.851C135.074 135.054 134.625 131.684 134.625 131.684C134.625 131.684 131.704 131.908 130.357 131.459C129.009 131.01 129.458 132.133 129.458 132.133Z" fill="#F7B52C"/>
<path d="M151.878 37.2312C155.606 34.7182 154.305 30.2963 151.487 27.6523C148.131 24.5023 143.102 23.2598 138.607 23.3364C134.068 23.414 129.513 24.9874 126.61 28.6228C123.679 32.2945 123.027 37.1335 121.3 41.3825C120.55 43.226 119.581 44.9807 118.236 46.459C116.604 48.2531 114.452 49.4728 112.719 51.1648C109.297 54.5054 106.514 58.5195 103.873 62.4866C99.0186 69.7799 94.7337 77.2603 91.4954 85.4192C89.9275 89.3702 88.4962 93.4122 87.2639 97.4812C86.1657 101.107 83.8431 107.856 87.3249 110.898C88.4215 111.856 91.0308 112.428 92.285 111.314C92.9486 110.725 92.6832 110.847 91.9295 110.695C90.6913 110.447 89.4999 110.827 88.459 109.853C87.0069 108.495 87.2223 105.853 87.3082 104.049C87.4332 101.427 88.0559 98.8356 88.7777 96.3221C91.272 87.6343 94.9071 78.9541 99.6355 71.2484C104.502 63.3166 109.574 55.0643 117.066 49.3645C121.196 46.2226 122.931 41.7296 124.612 36.984C126.233 32.4049 128.275 28.0424 133.017 26.0369C137.314 24.2195 142.663 24.6257 146.752 26.7853C148.777 27.8554 150.534 29.4377 151.434 31.5853C152.238 33.5041 151.928 35.2379 151.878 37.2312Z" fill="#231815"/>
<path d="M159.401 48.4048C161.236 48.674 165.439 48.6574 163.481 45.7897C162.342 44.123 160.5 42.3537 158.887 41.1222C158.302 40.6756 156.85 39.6436 156.08 40.1082C154.873 40.8358 156.468 41.9368 157.105 42.3628C158.905 43.5652 160.669 44.3277 162.247 45.9066C164.525 48.186 160.56 47.7785 159.119 47.522C156.483 47.0527 153.511 46.0954 150.813 46.4962C150.331 46.5678 148.482 47.1493 149.273 47.9147C149.725 48.353 151.869 47.6662 152.331 47.635C154.699 47.4743 157.075 48.0566 159.401 48.4048Z" fill="#231815"/>
<path d="M148.111 43.1516C149.184 42.4194 150.388 41.7154 151.629 41.311C152.423 41.0524 153.952 41.061 153.887 39.8743C153.748 37.316 149.456 41.2813 148.833 41.6996C147.89 42.3332 144.008 44.2735 146.004 45.7876C146.393 46.0834 147.305 46.3264 147.434 45.579C147.573 44.7704 147.205 45.2246 147.046 44.841C146.881 44.4467 146.631 45.1938 146.696 44.3522C146.726 43.9696 147.851 43.3308 148.111 43.1516Z" fill="#231815"/>
<path d="M148.517 71.6341C148.11 73.4409 148.467 74.7427 149.052 76.4169C149.685 78.2299 150.083 80.1466 150.539 82.0093C151.525 86.0299 152.766 90.3362 153.058 94.4828C153.602 102.204 151.331 110.934 146.375 116.975C145.098 118.532 143.593 119.583 141.672 120.217C140.829 120.496 139.859 120.757 138.961 120.711C137.167 120.621 138.264 119.629 139.326 119.295C141.364 118.653 143.138 118.779 144.802 117.215C146.398 115.715 147.641 113.714 148.452 111.696C150.049 107.723 150.295 103.594 150.934 99.4213C151.516 95.6122 152.035 91.8015 151.221 87.9932C150.31 83.7304 149.231 79.5992 146.921 75.9132C146.007 74.4544 144.819 72.5216 146.028 70.8221C146.337 70.3875 147.258 69.6297 147.842 69.7666C148.65 69.956 148.117 70.8409 148.517 71.6341Z" fill="#231815"/>
<path d="M117.265 80.5823C117.055 82.6 116.341 83.668 114.721 84.7271C112.631 86.0943 110.697 87.8354 108.821 89.4745C107.017 91.0505 105.175 92.6011 103.749 94.542C101.836 97.1472 100.285 100.024 98.5733 102.762C97.272 104.843 95.9303 107.418 94.0193 109.02C93.3657 109.568 91.7001 110.332 92.6954 108.919C93.268 108.106 94.1363 107.413 94.7683 106.636C98.4902 102.066 101.332 96.8128 104.755 92.0229C106.482 89.6065 108.724 87.6 110.963 85.6628C113.007 83.8943 114.994 82.0607 117.265 80.5823Z" fill="#231815"/>
<path d="M142.496 115.848C144.474 117.194 144.317 118.381 144.043 120.382C143.665 123.144 142.701 126.063 140.689 128.062C138.607 130.132 135.852 131.632 132.904 131.933C130.903 132.137 126.053 131.494 125.706 128.727C125.504 127.114 126.54 128.499 127.001 129.007C127.87 129.962 128.942 130.624 130.198 130.951C132.994 131.677 136.22 130.811 138.469 129.06C142.489 125.928 142.217 120.387 142.496 115.848Z" fill="#231815"/>
<path d="M130.29 119.361C130.595 120.381 130.78 121.12 129.974 121.541C129.204 121.944 127.767 121.767 126.969 121.683C125.367 121.514 123.392 121.506 121.967 121.425C121.536 121.4 120.676 121.212 121.12 120.483C121.584 119.722 123.341 120.632 123.986 120.736C126.216 121.096 128.315 120.282 130.29 119.361Z" fill="#231815"/>
<path d="M122.856 121.996C126.829 123.005 123.505 128.307 121.951 130.24C119.8 132.916 115.539 136.604 112.029 133.579C111.612 133.22 110.888 132.306 111.81 132.272C112.305 132.254 113.281 133.138 113.757 133.333C115.683 134.123 117.689 133.603 119.236 132.269C121.929 129.948 123.177 125.423 122.856 121.996Z" fill="#231815"/>
<path d="M105.371 125.131C104.357 126.025 103.657 127.145 102.536 125.839C102.081 125.31 101.914 124.61 101.806 123.938C101.406 121.453 101.725 118.802 101.699 116.295C101.651 111.578 101.187 106.881 100.349 102.239C100.17 101.244 99.9799 100.721 100.296 99.828C100.605 98.9564 101.113 98.0976 101.548 97.284C102.104 96.245 102.729 95.3491 103.476 94.4489C105.775 91.6791 108.196 88.922 110.905 86.545C112.374 85.2569 114.009 83.9028 113.591 86.7103C112.551 93.7137 109.246 100.317 107.833 107.265C106.635 113.158 106.22 119.184 105.371 125.131Z" fill="#231815"/>
<path d="M104.654 117.502C106.563 118.055 106.687 118.668 106.604 120.393C106.517 122.194 106.213 123.988 106.14 125.784C106.058 127.807 106.387 130.249 107.407 132.026C107.699 132.534 110.423 135.036 108.525 134.58C105.393 133.827 105.607 127.414 105.199 125.05C104.784 122.651 104.791 119.941 104.654 117.502Z" fill="#231815"/>
<path d="M114.217 134.946C114.728 135.407 115.584 136.15 115.713 136.893C115.83 137.565 115.441 138.447 115.412 139.152C115.323 141.264 115.978 143.59 117.546 145.077C119.294 146.736 121.866 146.999 123.807 148.349C124.497 148.828 127.153 152.114 125.326 152.862C124.509 153.197 124.774 152.249 124.715 151.676C124.604 150.606 124.264 149.842 123.431 149.132C121.621 147.591 119.094 147.091 117.173 145.671C113.813 143.186 113.109 138.856 114.217 134.946Z" fill="#231815"/>
<path d="M109.839 150.551C111.123 149.806 111.872 149.718 112.729 150.803C113.61 151.919 114.539 153.006 115.454 154.094C115.831 154.541 117.503 156.445 118.233 155.917C118.678 155.595 118.199 153.437 118.062 153.028C117.812 152.279 117.297 151.928 116.929 151.298C116.452 150.478 116.678 150.096 117.581 150.554C118.244 150.891 118.653 151.89 118.845 152.532C119.141 153.521 119.133 154.595 118.986 155.609C118.865 156.445 118.922 156.593 118.232 156.661C117.05 156.776 114.839 155.14 114.014 154.42C112.592 153.179 111.225 151.836 109.839 150.551Z" fill="#231815"/>
<path d="M120.492 152.829C120.702 151.97 120.785 151.034 121.487 151.082C122.188 151.129 122.669 151.897 123.225 152.216C123.756 152.521 125.095 152.648 125.437 153.144C125.604 153.387 125.731 153.821 125.305 154.028C124.85 154.25 124.292 153.487 123.882 153.254C122.897 152.695 121.595 152.754 120.492 152.829Z" fill="#231815"/>
<path d="M109.321 135.243C111.463 136.046 111.234 137.07 110.799 138.909C110.352 140.798 109.688 142.79 109.063 144.566C108.594 145.901 107.468 147.023 106.542 148.054C105.741 148.947 104.075 150.178 103.709 151.354C103.507 152.003 104.526 153.88 103.169 153.079C100.824 151.696 105.394 148.212 106.25 147.397C107.833 145.891 107.942 144.552 108.366 142.519C108.891 140.004 109.311 137.814 109.321 135.243Z" fill="#231815"/>
<path d="M110.616 150.802C110.179 152.686 110.271 152.783 108.516 152.433C107.786 152.287 107.315 152.153 106.598 152.486C106.053 152.74 105.489 153.787 105.022 153.895C104.425 154.032 104.157 153.692 104.319 153.193C104.532 152.542 105.885 152.06 106.432 151.838C107.833 151.27 109.063 150.854 110.616 150.802Z" fill="#231815"/>
<path d="M134.189 131.399C135.921 132.088 136.18 132.753 136.009 134.433C135.828 136.224 135.916 138.609 137.164 140.049C138.762 141.894 146.533 141.944 145.999 145.475C145.824 146.63 145.416 146.025 145.01 145.451C144.508 144.741 144.323 144.125 143.527 143.607C141.624 142.37 139.179 142.34 137.264 141.06C134.074 138.927 134.2 134.896 134.189 131.399Z" fill="#231815"/>
<path d="M136.611 145.986C137.476 144.029 138.87 144.636 139.769 146.09C140.181 146.757 141.18 149.66 140.034 150.286C139.11 150.791 136.318 148.552 135.642 148.087C134.772 147.49 133.902 146.836 132.918 146.433C132.433 146.235 131.435 146.21 131.071 145.799C129.706 144.257 133.56 145.713 133.958 145.962C134.952 146.584 137.35 149.315 138.647 149.044C139.183 148.931 139.034 148.876 139.064 148.385C139.141 147.11 137.645 146.225 136.611 145.986Z" fill="#231815"/>
<path d="M128.528 131.804C130.583 132.751 130.571 133.574 130.482 135.564C130.372 138.039 130.001 140.433 127.923 142.004C127.012 142.692 124.741 143.805 125.39 145.352C126.088 147.018 129.713 143.875 131.112 144.916C132.247 145.76 130.464 145.77 129.887 145.865C128.717 146.057 127.594 146.507 126.404 146.58C125.686 146.625 125.063 146.729 124.759 146.189C124.361 145.482 124.766 143.96 125.134 143.401C125.652 142.613 126.54 142.277 127.209 141.66C127.904 141.019 128.273 140.211 128.531 139.303C129.248 136.778 128.551 134.338 128.528 131.804Z" fill="#231815"/>
<path d="M139.778 145.998C139.743 145.052 139.601 144.174 140.367 144.067C141.122 143.961 141.815 144.684 142.423 144.997C143 145.296 144.412 145.374 144.798 145.896C144.979 146.139 145.154 146.556 144.725 146.798C144.273 147.054 143.61 146.241 143.186 146.024C142.158 145.499 140.841 145.615 139.778 145.998Z" fill="#231815"/>
<path d="M94.0483 106.328C94.2803 106.622 95.1589 105.073 95.1868 105.002C95.5912 103.978 95.3959 103.005 94.4782 102.36C93.2123 101.471 90.1514 101.58 89.9826 99.6867C89.9014 98.7753 90.6436 97.6201 91.0037 96.8169C91.4714 95.7745 91.7962 94.7029 92.3561 93.7044C93.8579 91.026 94.4019 87.9565 95.2582 85.0284C96.4467 80.9643 98.9774 78.044 101.676 74.8815C105.376 70.5458 108.895 66.0737 112.759 61.8867C115.517 58.8987 118.414 54.6938 122.212 52.9662C125.898 51.2896 130.956 53.3846 134.365 50.9404C136.475 49.4273 136.015 46.4763 136.002 44.23C135.986 41.6141 136.341 38.6852 137.354 36.2529C138.998 32.3029 143.218 31.8878 146.699 33.7341C148.196 34.5284 148.865 35.4346 149.678 36.8112C150.094 37.5148 150.594 37.657 151.597 37.8641C156.301 38.8359 154.991 33.6552 153.266 31.126C148.211 23.7141 136.144 22.4708 128.94 27.3773C127.304 28.4919 125.981 30.0266 125.396 31.9419C124.889 33.6013 124.789 35.1573 123.977 36.7396C122.03 40.5357 118.937 43.7724 116.035 46.8477C109.78 53.4745 102.261 59.5685 99.549 68.618C99.1475 69.9578 98.8537 71.3318 98.1233 72.5411C96.9871 74.4224 95.83 76.2203 94.8782 78.2151C92.716 82.7458 90.8931 87.5164 89.4748 92.3333C88.1858 96.7117 87.2381 101.346 86.8069 105.892C86.6399 107.651 86.5795 109.698 88.2641 110.754C89.9696 111.822 91.1092 111.343 92.1985 109.815C92.9592 108.748 93.5454 107.535 94.0483 106.328Z" fill="#231815"/>
<path d="M142.662 39.607C143.757 40.4622 145.338 39.3148 144.578 38.0611C143.869 36.8914 141.542 37.6934 142.662 39.607Z" fill="#231815"/>
<path d="M147.898 56.9391C152.482 59.6602 154.282 64.5311 156.769 68.9462C158.52 72.0535 160.307 75.2347 162.577 77.9975C164.86 80.7748 167.659 82.8123 170.779 84.5576C173.476 86.066 176.243 87.4383 178.864 89.0805C180.899 90.3561 185.739 91.0412 184.048 94.3272C182.37 97.5878 179.358 98.2342 175.951 98.1894C172.541 98.1446 169.106 98.3055 165.719 97.836C162.524 97.393 159.425 96.4928 156.411 95.3605C154.994 94.8282 153.577 94.2688 152.216 93.6045C151.573 93.291 149.221 92.4087 148.974 91.624C148.838 91.1907 148.854 91.3884 149.35 91.3865C150.471 91.3826 152.019 92.4071 153.008 92.8402C156.154 94.2188 159.343 95.5087 162.684 96.3371C166.146 97.1954 169.519 97.312 173.059 97.348C176.481 97.3826 180.282 98.1641 182.688 95.1454C183.477 94.1553 184.447 92.8436 183.16 91.8732C181.985 90.9883 180.319 90.7279 179.035 89.9756C176.65 88.5774 174.27 87.368 171.75 86.242C165.383 83.3975 161.21 79.2092 157.564 73.3831C154.191 67.9946 151.077 62.4425 147.898 56.9391Z" fill="#231815"/>
</g>
<defs>
<clipPath id="clip0_268_1029">
<rect width="133.333" height="133.333" fill="white" transform="translate(68.3333 23.3333)"/>
</clipPath>
</defs>
</svg>
