<svg width="100" height="100" viewBox="0 0 100 100" fill="none" xmlns="http://www.w3.org/2000/svg">
<path fill-rule="evenodd" clip-rule="evenodd" d="M30.7799 4.6703C30.4331 4.71129 30.543 4.84601 32.7839 7.12812C34.0879 8.45607 35.7956 10.2808 36.579 11.1831C37.3622 12.0854 38.5832 13.5981 39.2922 14.5446C40.0013 15.4912 40.8743 16.7365 41.2324 17.3118C41.5904 17.8873 42.0987 18.7868 42.3617 19.3108L42.8398 20.2634L42.0192 21.0076C41.5678 21.417 41.1404 21.7538 41.0696 21.7561C40.9987 21.7583 40.5072 21.4047 39.9774 20.9703C39.4475 20.5357 38.5313 19.836 37.9411 19.4152C37.351 18.9944 36.263 18.3004 35.5236 17.873C34.784 17.4455 33.6707 16.8597 33.0495 16.5711C32.4283 16.2826 31.3402 15.8176 30.6314 15.5381C29.9227 15.2584 28.8209 14.8869 28.183 14.7123C27.5451 14.5378 26.2113 14.2246 25.219 14.0165C24.2268 13.8085 22.5828 13.5663 21.5657 13.4784C20.3711 13.3752 18.6835 13.3458 16.7977 13.3955C14.8819 13.4459 13.281 13.5629 12.1392 13.7362C11.1823 13.8812 9.93554 14.0906 9.36853 14.2014C8.80152 14.3122 7.75771 14.5512 7.04895 14.7326C6.34018 14.9141 5.00642 15.3126 4.08503 15.6181C3.16364 15.9236 2.12472 16.2982 1.77639 16.4504C1.42717 16.6031 1.19598 16.774 1.26093 16.8315C1.32575 16.8889 1.78477 17.0409 2.2809 17.1692C2.77704 17.2976 4.1398 17.6885 5.30926 18.0379C6.47871 18.3874 8.44044 19.0509 9.66853 19.5125C10.8966 19.9741 12.7813 20.7339 13.8567 21.201C14.9321 21.6682 16.7397 22.5159 17.8737 23.0851C19.0077 23.6542 20.5734 24.4832 21.3531 24.9275C22.1327 25.3717 23.5824 26.2427 24.5747 26.8632C25.567 27.4837 27.2487 28.6077 28.3118 29.361C29.375 30.1142 30.8392 31.1995 31.5657 31.7728C32.2921 32.3459 32.8866 32.879 32.8866 32.9573C32.8866 33.0358 32.634 33.7049 32.3252 34.4442C32.0165 35.1836 31.5482 36.4285 31.2846 37.2107C31.021 37.993 30.6352 39.3311 30.4272 40.1844C30.2192 41.0378 29.9288 42.5214 29.7817 43.4814C29.5951 44.6995 29.493 46.1522 29.4438 48.2903C29.4 50.1936 29.4304 51.9809 29.5241 53.0094C29.6071 53.92 29.7906 55.3903 29.9318 56.277C30.073 57.1636 30.3662 58.7025 30.5834 59.6969C30.8004 60.6911 31.2309 62.3221 31.5402 63.3212C31.8493 64.3202 32.4486 66.1409 32.8718 67.3671C33.2949 68.5933 33.8766 70.4024 34.1647 71.3872C34.4526 72.3722 34.9183 74.1325 35.1996 75.2991C35.4809 76.4657 35.8542 78.2057 36.0291 79.1656C36.204 80.1256 36.4511 81.7256 36.5785 82.7211C36.7487 84.0528 36.8091 85.4025 36.8074 87.8281C36.8055 90.3331 36.7531 91.4201 36.5885 92.3533C36.4694 93.0288 36.2885 93.9014 36.1863 94.2925C36.0841 94.6835 36.0192 95.0221 36.0419 95.045C36.0647 95.0679 36.5282 94.3697 37.0718 93.4937C37.6154 92.6176 38.5746 90.8535 39.2032 89.5736C39.8319 88.2936 40.587 86.6354 40.881 85.8888C41.1751 85.1421 41.6465 83.8039 41.9285 82.9151C42.2104 82.0262 42.6077 80.6008 42.8113 79.7474C43.0149 78.8941 43.2297 77.936 43.2886 77.618C43.3846 77.1001 43.4422 77.0279 43.8435 76.9223C44.0898 76.8577 44.9568 76.6013 45.7702 76.3527C46.5837 76.104 47.7725 75.6993 48.412 75.4533C49.0515 75.2074 50.0966 74.7497 50.7345 74.4364C51.3724 74.123 52.2746 73.5791 52.7394 73.2276C53.2042 72.876 53.6952 72.382 53.8306 72.1299C53.9879 71.8369 54.0317 71.6282 53.952 71.552C53.8835 71.4863 53.2474 71.0994 52.5386 70.6923C51.8299 70.2853 50.7281 69.6029 50.0902 69.176C49.4523 68.7491 48.3824 67.96 47.7127 67.4227C47.043 66.8852 46.0638 66.0349 45.5367 65.5329C45.0095 65.031 44.1211 64.0714 43.5625 63.4004C43.0038 62.7294 42.2033 61.6772 41.7835 61.0622C41.3636 60.4472 40.6986 59.3345 40.3056 58.5898C39.9127 57.8449 39.3292 56.5423 39.0089 55.6951C38.6885 54.848 38.255 53.4719 38.0457 52.6373C37.8363 51.8028 37.5612 50.4629 37.4343 49.6602C37.2527 48.511 37.2055 47.4715 37.2126 44.7743C37.2202 41.9044 37.2684 41.0436 37.5098 39.4733C37.6683 38.4422 37.8391 37.557 37.8895 37.5059C37.9398 37.455 38.473 37.9596 39.0743 38.6273C39.6755 39.2949 40.1965 39.8456 40.2319 39.851C40.2674 39.8564 40.4889 39.1773 40.7241 38.3418C40.9594 37.5064 41.4016 36.1815 41.7071 35.3976C42.0126 34.6137 42.5841 33.3287 42.9773 32.5421C43.3706 31.7554 44.1007 30.4989 44.6001 29.7498C45.0993 29.0006 46.0576 27.8077 46.7295 27.0986C47.4014 26.3897 48.3743 25.5172 48.8917 25.1598C49.4091 24.8023 50.1565 24.3273 50.5528 24.1041C50.9489 23.8811 51.7028 23.5516 52.2281 23.372C52.7532 23.1924 53.7049 22.9602 54.3428 22.856C54.9806 22.7518 56.1507 22.6663 56.943 22.666C57.7352 22.6658 58.837 22.7263 59.3915 22.8006C59.9459 22.875 60.9214 23.086 61.5593 23.2697C62.1971 23.4533 63.1363 23.801 63.6464 24.0422C64.1564 24.2833 64.9991 24.7662 65.519 25.1151C66.039 25.464 66.9973 26.3022 67.6487 26.9778C68.3 27.6532 69.1301 28.6611 69.4934 29.2175C69.8565 29.7738 70.4323 30.8108 70.7728 31.5219C71.1132 32.233 71.5961 33.4548 71.8457 34.2371C72.0955 35.0193 72.3982 36.212 72.5187 36.8875C72.639 37.5631 72.7535 38.1775 72.7728 38.2527C72.7922 38.3281 73.4375 38.6013 74.2068 38.8599C74.9761 39.1186 76.0406 39.4428 76.5721 39.5805C77.1037 39.7183 77.9446 39.9105 78.4407 40.0077C78.987 40.1147 80.2069 40.1844 81.5335 40.1844C83.0254 40.1844 83.9297 40.1264 84.3685 40.0025C84.7229 39.9024 85.2349 39.7098 85.5062 39.5746C85.7775 39.4392 86.3658 39.0768 86.8135 38.7693C87.2612 38.4619 87.938 38.105 88.3176 37.9764C88.7988 37.8132 89.3587 37.7465 90.1675 37.7558C90.8759 37.764 91.7286 37.8727 92.3582 38.035C92.9252 38.1812 93.7951 38.4425 94.2912 38.6156C94.7873 38.7887 95.6447 39.1425 96.1964 39.4017C96.748 39.6609 97.4899 40.0449 97.8451 40.255C98.2001 40.4651 98.5217 40.637 98.5596 40.637C98.5976 40.637 98.589 40.4479 98.5406 40.2168C98.4921 39.9857 98.2282 39.312 97.9541 38.7197C97.6799 38.1274 97.125 37.1674 96.721 36.5864C96.317 36.0054 95.5681 35.0354 95.0571 34.431C94.5458 33.8266 93.3574 32.5757 92.4162 31.6512C90.7344 29.9994 90.6962 29.9495 90.2108 28.7537C89.9391 28.0845 89.4511 27.0619 89.1264 26.4814C88.8016 25.9009 88.2375 25.023 87.8727 24.5305C87.5078 24.0381 86.6571 23.0803 85.9822 22.4022C85.3073 21.724 84.2042 20.7775 83.5309 20.2989C82.8576 19.8201 81.3788 18.9668 80.2448 18.4024C79.1108 17.8381 77.6321 17.1966 76.9587 16.9771C76.2854 16.7576 75.166 16.4331 74.471 16.2561C73.776 16.0791 72.7612 15.8505 72.2158 15.7481C71.6705 15.6455 70.5283 15.4658 69.6778 15.3487C68.7243 15.2172 66.9702 15.1195 65.1031 15.0936C63.1419 15.0666 61.439 15.1157 60.2706 15.2332C59.2783 15.3329 57.8616 15.5095 57.1224 15.6255C56.3831 15.7415 55.3973 15.9212 54.9317 16.0249C54.466 16.1284 53.8788 16.2457 53.627 16.2854C53.1779 16.3561 53.1609 16.3426 52.7621 15.5916C52.5382 15.1704 51.9904 14.3063 51.5448 13.6717C51.0992 13.037 50.2126 11.972 49.5747 11.3049C48.9368 10.6377 47.9989 9.75001 47.4906 9.33214C46.9821 8.91427 46.0832 8.27157 45.4931 7.90374C44.9029 7.5359 43.9562 7.01977 43.3891 6.7568C42.8221 6.49382 41.7203 6.07298 40.9407 5.82177C40.1611 5.57042 38.9433 5.24681 38.2345 5.10265C37.5257 4.95849 36.163 4.77516 35.2062 4.69525C34.2493 4.61535 32.9446 4.56726 32.3067 4.58833C31.6688 4.60953 30.9818 4.64638 30.7799 4.6703ZM79.3157 29.5134C79.0882 29.6525 78.7839 29.999 78.6391 30.2835C78.4946 30.5679 78.3763 30.984 78.3763 31.2083C78.3763 31.4326 78.5029 31.8421 78.6577 32.1185C78.8371 32.4386 79.1323 32.7147 79.4716 32.8795C79.7644 33.0217 80.1474 33.1381 80.3227 33.1381C80.4979 33.1381 80.8957 33.0072 81.2067 32.8472C81.558 32.6664 81.8612 32.3856 82.0072 32.1058C82.1364 31.858 82.2394 31.4507 82.2361 31.2008C82.2327 30.9507 82.1312 30.5446 82.0105 30.2983C81.8899 30.0519 81.5942 29.7174 81.3533 29.5549C81.0545 29.3532 80.7272 29.2595 80.3224 29.2599C79.9612 29.2601 79.5676 29.3593 79.3157 29.5134ZM67.6687 54.4353C67.3448 54.7749 66.906 55.2856 66.6938 55.57C66.4814 55.8545 66.0937 56.4455 65.8322 56.8833C65.5706 57.3212 65.0964 58.2683 64.7782 58.9882C64.4602 59.7081 63.9661 60.9988 63.6803 61.8566C63.3944 62.7141 62.9582 64.2397 62.7109 65.2464C62.4635 66.2532 62.1176 67.8517 61.9424 68.7987C61.7671 69.7456 61.6237 70.6032 61.6237 70.7043C61.6237 70.8283 62.1598 70.6088 63.2667 70.0312C64.1703 69.5598 65.3737 68.9118 65.9407 68.5913C66.5077 68.2707 67.5805 67.6264 68.3247 67.1596C69.0689 66.6926 70.2482 65.8816 70.9453 65.3572C71.6425 64.8328 72.5335 64.1126 72.9254 63.7565C73.3172 63.4004 73.9995 62.7063 74.4415 62.2139C74.8835 61.7216 75.4038 61.026 75.5979 60.6684C75.7919 60.3108 75.9157 59.9269 75.873 59.8154C75.8076 59.644 75.6426 59.6271 74.8075 59.7055C74.264 59.7566 73.5689 59.874 73.2627 59.9665C72.9567 60.0589 72.7062 60.1132 72.7062 60.0871C72.7062 60.0608 72.9086 59.67 73.1559 59.2185C73.4033 58.7669 73.7252 58.0522 73.8711 57.6302C74.0171 57.2082 74.2206 56.4664 74.3234 55.9818C74.4261 55.4971 74.5103 54.9835 74.5103 54.8402C74.5103 54.6143 74.4547 54.5917 74.0915 54.669C73.8611 54.718 73.2765 54.9257 72.7922 55.1305C72.3081 55.3353 71.4171 55.8264 70.8123 56.2219C70.2076 56.6174 69.7019 56.9235 69.6886 56.902C69.6754 56.8805 69.5959 56.5139 69.512 56.0872C69.4279 55.6606 69.1974 54.992 68.9995 54.6014C68.8015 54.2109 68.5537 53.8748 68.4486 53.8545C68.3435 53.8342 67.9925 54.0955 67.6687 54.4353ZM85.0304 61.0773C84.4729 61.1363 83.569 61.301 83.0218 61.4433C82.4745 61.5857 81.5475 61.9049 80.9621 62.1526C80.3766 62.4004 79.3669 62.8986 78.7181 63.26C78.0694 63.6213 76.9587 64.3316 76.25 64.8387C75.5412 65.3456 74.3234 66.2983 73.5438 66.9558C72.7641 67.6134 71.729 68.5496 71.2433 69.0363L70.3603 69.9213L72.5964 69.9623C73.8263 69.985 75.6443 69.9385 76.6366 69.8593C77.6288 69.78 79.3796 69.5706 80.5273 69.3937C81.7328 69.2079 83.2203 68.8795 84.0501 68.6159C84.84 68.3649 85.85 67.9853 86.2944 67.7724C86.7389 67.5593 87.2944 67.2242 87.5291 67.0277C87.7875 66.8112 87.9184 66.6096 87.8609 66.5162C87.8087 66.4315 87.5451 66.2491 87.275 66.1107C87.0049 65.9725 86.4 65.7627 85.9306 65.6444C85.4613 65.5261 85.0778 65.3928 85.0784 65.3481C85.0791 65.3035 85.4282 65.0415 85.8542 64.7661C86.2804 64.4906 86.9903 63.8729 87.4318 63.3933C87.8733 62.9138 88.4238 62.2558 88.6551 61.9312C88.8864 61.6065 89.0236 61.3086 88.9599 61.2692C88.8962 61.2296 88.446 61.1396 87.9594 61.0691C87.4728 60.9985 86.8428 60.9474 86.5592 60.9554C86.2757 60.9634 85.5877 61.0182 85.0304 61.0773Z" fill="#778599"/>
</svg>
