<svg width="80" height="81" viewBox="0 0 80 81" fill="none" xmlns="http://www.w3.org/2000/svg">
<g clip-path="url(#clip0_293_10465)">
<path d="M41.9482 1.67474C37.7135 2.25224 36.8018 2.59849 35.2183 4.31396C33.6349 6.02943 34.5585 10.516 34.8224 13.0232C35.0863 15.5304 34.6905 17.6418 32.843 18.9613C30.9957 20.2808 29.1482 21.6005 24.3977 21.9963C19.6473 22.3922 18.5916 22.6561 16.6123 22.3922C14.6329 22.1283 11.8618 21.9963 9.22256 21.3366C6.58335 20.6768 6.05553 20.5449 4.99991 20.9407C3.94428 21.3366 5.79163 24.7674 8.03491 25.9551C10.2782 27.1427 21.0988 30.8376 23.078 31.2333C25.0574 31.6293 26.7729 34.0044 27.0368 35.324C27.3007 36.6435 30.4677 56.3052 30.0718 57.4929C29.6758 58.6805 28.6202 61.5836 29.0162 63.6949C29.4121 65.8061 30.3357 67.5216 31.3915 68.1815C32.4471 68.8413 35.2182 67.6536 36.0101 67.1258C36.8018 66.598 38.9132 65.4104 39.1771 63.6949C39.441 61.9794 39.8369 61.4516 39.8369 61.4516L39.441 60.0001C39.441 60.0001 39.4621 59.9365 40.6287 59.868C41.7951 59.7996 40.9957 61.7371 40.8926 63.0351C40.7894 64.333 41.2885 65.2783 42.8719 65.6743C44.4554 66.0702 46.5668 66.2021 48.5462 64.6186C50.5255 63.0352 50.7894 61.9794 50.6576 61.1877C50.5255 60.396 51.0535 58.9444 51.0535 58.9444C51.0535 58.9444 54.6163 55.9094 55.6721 51.4229C56.7277 46.9363 56.3319 43.2415 55.936 41.1302C55.5401 39.019 54.4844 35.456 54.2205 34.6643C53.9566 33.8726 56.5958 32.0251 58.5752 30.5736C60.5546 29.1221 62.0062 27.4066 65.8329 25.6911C69.6596 23.9757 71.1112 23.7118 72.8266 22.5241C74.5421 21.3365 74.674 20.5447 74.2782 20.0169C73.8823 19.4891 70.4515 18.4335 68.3401 18.4335C66.2287 18.4335 60.5546 19.8851 56.7277 20.149C52.901 20.4129 53.1649 20.9407 51.4494 19.3572C49.734 17.7738 49.734 17.7738 49.338 16.3222C48.9421 14.8707 48.1504 14.3429 48.5463 12.0996C48.9423 9.8563 49.4701 6.95318 49.4701 5.76568C49.4701 4.57818 44.8512 1.2788 41.9482 1.67474Z" fill="white"/>
<path d="M50.3936 11.4396C48.8101 12.2313 47.7544 12.4952 47.0947 11.7035C46.4348 10.9118 49.2254 7.60228 50.0172 6.81056C50.8089 6.01884 51.1853 6.68915 53.0328 6.82103C54.8801 6.95306 56.8595 7.48087 56.9915 7.87665C57.1234 8.27259 57.3875 8.8004 55.4081 9.46009C53.4287 10.1199 52.1092 10.7796 51.7133 10.7796C51.3173 10.7796 50.3936 11.4396 50.3936 11.4396Z" fill="#F7B52C"/>
<path d="M31.3917 68.1815C31.9195 69.897 30.7319 73.4598 30.3361 74.2517C29.9401 75.0434 27.8289 76.6269 27.6969 77.4187C27.5648 78.2106 27.3494 78.9417 28.4886 78.6064C29.5664 78.289 32.255 77.2731 32.7112 77.2869C33.1675 77.3004 34.1628 79.2662 35.3505 80.19C36.5381 81.1137 36.67 80.058 36.1422 78.0787C37.7256 78.2106 38.1086 77.6812 38.9133 78.2106C39.718 78.74 41.1565 78.6065 40.4967 77.4189C39.8369 76.2312 38.5173 74.9117 36.67 74.6478C34.8226 74.3839 34.1628 73.0644 34.2947 71.085C34.4265 69.1056 34.1626 67.9179 34.1626 67.9179L33.107 66.9942L31.1276 67.3901L31.3917 68.1815Z" fill="#F7B52C"/>
<path d="M43.0041 66.3342C43.136 67.9177 43.1244 70.0378 42.6082 71.0847C42.0919 72.1316 41.0248 72.4042 40.6288 73.0641C40.2329 73.7239 39.8371 74.6475 40.8927 74.6475C41.9484 74.6475 43.3999 73.7237 44.1916 73.9877C44.9834 74.2516 45.7751 74.6475 46.6988 75.5711C47.6226 76.4948 48.2823 77.0227 48.6782 76.4948C49.0741 75.967 49.6019 75.0433 48.6782 74.3834C47.7544 73.7236 48.7618 74.3747 49.7338 74.1195C50.6088 73.8898 52.6174 75.1383 52.373 74.6473C52.1287 74.1564 52.6369 73.7236 51.7132 73.1958C50.7894 72.668 48.5462 71.8762 47.8865 71.4803C47.2266 71.0844 46.5669 70.1608 46.4349 69.1052C46.3029 68.0495 46.039 66.0702 46.039 66.0702C46.039 66.0702 44.3235 66.2022 43.5318 65.9383C42.7402 65.6744 43.0041 66.3342 43.0041 66.3342Z" fill="#F7B52C"/>
<path d="M48.2685 5.94788C49.6353 4.111 48.4124 2.23897 46.572 1.42741C44.507 0.516782 41.8957 0.602719 39.7559 1.18038C35.2799 2.38881 32.2149 5.94459 32.6023 10.7074C32.6846 11.7205 32.8812 12.721 32.9709 13.733C33.0812 14.9762 32.7287 15.834 31.9871 16.8105C30.6474 18.5746 29.1398 19.8829 26.9348 20.3746C22.7145 21.3157 17.9942 20.829 13.7292 20.4708C11.5426 20.2873 9.34729 19.9201 7.14901 19.9547C6.23854 19.9691 5.0626 19.9935 4.31932 20.606C3.62666 21.1769 3.51557 22.3298 4.28104 22.9198C5.2662 23.679 4.34854 22.1332 4.5062 21.6741C4.77807 20.8827 6.27276 20.9866 6.9037 20.9435C8.68276 20.8219 10.421 20.8346 12.201 20.9579C15.7182 21.2015 19.1563 21.4727 22.6842 21.404C24.8603 21.3616 27.1848 21.314 29.1776 20.3321C30.9599 19.454 33.0554 17.4049 33.6665 15.4707C33.9734 14.4996 33.7668 13.4369 33.6588 12.4491C33.5134 11.1183 33.3821 9.79975 33.6379 8.47288C34.0882 6.13741 35.6409 4.32631 37.6413 3.12178C39.7442 1.85569 42.3267 1.39866 44.7132 2.03303C45.7143 2.29913 46.6346 2.82694 47.2588 3.67147C47.7737 4.36788 47.879 5.20038 48.2685 5.94788Z" fill="#231815"/>
<path d="M55.1516 9.84961C56.2063 9.50351 58.3684 8.42117 56.6105 7.40586C55.5927 6.81804 54.1328 6.37867 52.9727 6.15617C52.5341 6.07211 51.4464 5.91976 51.1814 6.43867C50.8503 7.08679 51.9823 7.22695 52.3613 7.27523C53.6608 7.44054 54.9295 7.30492 56.1802 7.8532C57.6911 8.51554 55.4714 9.25508 54.772 9.45929C53.2653 9.89961 51.4477 10.1804 50.1367 11.0966C49.897 11.2641 49.1023 12.0548 49.6988 12.2462C50.0738 12.3665 50.9817 11.4449 51.233 11.2977C52.4359 10.5927 53.8373 10.2763 55.1516 9.84961Z" fill="#231815"/>
<path d="M47.8397 10.0467C48.2226 9.36174 48.6845 8.65268 49.2554 8.10534C49.5954 7.77924 50.3565 7.4069 50.0173 6.81049C49.2715 5.49924 47.9645 8.87831 47.7508 9.24956C47.524 9.64331 45.8662 12.2549 47.6345 12.0144C47.8517 11.9849 48.0604 11.9102 48.1104 11.6714C48.1934 11.2755 47.877 11.3483 47.7225 11.2146C47.519 11.0381 47.5983 11.4874 47.4108 11.0491C47.3237 10.8458 47.7522 10.2049 47.8397 10.0467Z" fill="#231815"/>
<path d="M48.8525 14.2399C49.7389 15.8732 50.3568 17.8593 51.9538 18.9645C53.1624 19.8009 54.8699 19.6841 56.2597 19.5265C58.4746 19.2754 60.6307 18.6787 62.8214 18.2882C64.7429 17.9459 66.5843 17.9523 68.5238 18.0681C69.9093 18.1507 78.3841 18.5509 75.7402 21.4054C74.4279 22.8223 71.9191 23.3376 70.2088 24.1215C68.2929 24.9996 66.3099 25.7343 64.4813 26.7929C62.5468 27.9129 60.7839 29.287 59.0493 30.6896C58.5933 31.0582 55.0461 34.1507 54.6414 33.6616C54.3318 33.2873 62.6753 27.2873 63.3424 26.8796C66.7853 24.7762 70.7235 23.7759 74.2791 21.9273C75.1571 21.4707 76.7116 20.4171 75.1966 19.5418C73.7149 18.6857 71.5418 18.6931 69.8803 18.701C67.8205 18.7107 65.7693 18.594 63.7307 18.9495C61.4625 19.3451 59.2485 20.0065 56.9722 20.3616C54.9774 20.6729 52.5232 20.8746 50.8346 19.5327C49.2283 18.2563 48.9404 16.1582 48.8525 14.2399Z" fill="#231815"/>
<path d="M54.1883 30.7988C53.9492 31.8601 54.1592 32.6247 54.5026 33.6082C54.8745 34.673 55.1081 35.799 55.3762 36.893C55.9551 39.2546 56.6844 41.784 56.8559 44.2196C57.1753 48.7551 55.8414 53.8824 52.9303 57.431C52.1801 58.3454 51.2965 58.9629 50.1681 59.3354C49.673 59.4988 49.1034 59.6524 48.5756 59.6255C47.5219 59.5721 48.1665 58.9899 48.7897 58.7937C49.9873 58.4163 51.0287 58.4905 52.0062 57.5719C52.9439 56.6905 53.6737 55.5154 54.1503 54.3297C55.0883 51.9966 55.233 49.5713 55.6078 47.1202C55.95 44.8829 56.2545 42.6446 55.7765 40.4077C55.2415 37.9038 54.6076 35.4772 53.2511 33.3122C52.7142 32.4552 52.0162 31.3201 52.7261 30.3219C52.9076 30.0668 53.4486 29.6216 53.7917 29.7019C54.2667 29.813 53.9533 30.3329 54.1883 30.7988Z" fill="#231815"/>
<path d="M31.602 31.3843C30.8614 35.3138 24.1514 32.558 21.9045 31.8919C18.1574 30.7813 14.4072 29.3232 10.902 27.6032C9.35861 26.8458 7.42892 26.0157 6.29142 24.6741C5.95111 24.2729 5.45673 23.4177 6.29267 23.9136C6.98064 24.3218 7.57626 25.01 8.24626 25.4699C11.5603 27.7447 15.6641 29.6321 19.5649 30.6299C21.5334 31.1335 23.5524 31.5579 25.5424 31.9733C27.6874 32.4211 29.662 32.5718 31.602 31.3843Z" fill="#231815"/>
<path d="M50.6518 56.7685C51.8137 57.5593 51.7208 58.2563 51.5601 59.4316C51.338 61.0537 50.7718 62.7683 49.5904 63.9427C48.3671 65.1587 46.7488 66.0393 45.0177 66.216C43.8423 66.336 40.9933 65.9583 40.7896 64.3332C40.6708 63.3855 41.2793 64.1993 41.5502 64.4972C42.0605 65.0586 42.6904 65.4474 43.4279 65.6391C45.0702 66.0661 46.9652 65.5571 48.286 64.5285C50.6477 62.6893 50.4879 59.4347 50.6518 56.7685Z" fill="#231815"/>
<path d="M43.4821 58.8317C43.6613 59.4312 43.7704 59.8653 43.2966 60.1126C42.8445 60.3487 42.0004 60.2449 41.5315 60.1956C40.5904 60.0965 39.4305 60.0921 38.5934 60.0442C38.3405 60.0296 37.8354 59.9192 38.0962 59.491C38.3685 59.044 39.4009 59.5784 39.7791 59.6395C41.0896 59.851 42.3221 59.3726 43.4821 58.8317Z" fill="#231815"/>
<path d="M39.116 60.3797C41.449 60.9724 39.4971 64.0864 38.5844 65.2219C37.321 66.7936 34.8179 68.9599 32.7563 67.1833C32.5113 66.9722 32.0863 66.4356 32.6279 66.4158C32.9185 66.4052 33.4919 66.9242 33.7716 67.0389C34.9025 67.5027 36.0808 67.1974 36.9894 66.4141C38.5715 65.0499 39.3033 62.3933 39.116 60.3797Z" fill="#231815"/>
<path d="M28.8452 62.2209C28.3485 62.6592 28.0175 63.3285 27.3641 62.8171C27.1261 62.6309 26.9841 62.3665 26.8811 62.0886C26.5828 61.2836 26.6689 60.3042 26.6757 59.4642C26.7072 55.504 26.4758 51.6232 25.6968 47.7279C25.6983 47.7379 25.6972 47.7475 25.6935 47.7565C25.7743 47.6871 25.2464 45.83 25.2155 45.675C24.888 44.0323 24.6025 42.3806 24.355 40.7239C24.08 38.8829 23.8455 37.0312 23.7321 35.1725C23.6758 34.2495 23.3607 32.5831 23.8336 31.7609C24.1289 31.2475 24.945 30.7884 25.3944 30.4267C26.4322 29.5911 27.4868 28.7761 28.543 27.964C31.0907 26.0057 33.6602 24.0757 36.2405 22.1607C38.2078 20.7006 40.1532 19.1643 42.2118 17.8325C37.196 23.7218 33.6824 30.8668 32.3569 38.5048C31.9018 41.1271 31.6918 43.8059 31.8227 46.4667C31.8988 48.0117 31.9996 49.7521 32.6064 51.2C33.0353 52.2232 33.4174 51.8342 33.5028 50.895C33.2375 53.8137 31.8719 56.5803 30.0197 58.8203C29.763 59.1306 29.3435 59.4509 29.1894 59.8125C28.9028 60.4845 28.9494 61.4921 28.8452 62.2209Z" fill="#231815"/>
<path d="M28.4243 57.7401C29.5459 58.065 29.6184 58.4246 29.5698 59.4379C29.519 60.4964 29.3401 61.55 29.2973 62.6048C29.249 63.7932 29.4426 65.2273 30.0418 66.2712C30.2129 66.5693 31.8132 68.0392 30.6984 67.771C28.8588 67.3287 28.9845 63.5618 28.7445 62.1739C28.5009 60.7643 28.5048 59.1728 28.4243 57.7401Z" fill="#231815"/>
<path d="M34.0412 67.9863C34.3417 68.2572 34.8445 68.6933 34.9204 69.1297C34.9892 69.5244 34.7607 70.0425 34.7432 70.4567C34.6912 71.6972 35.0759 73.0636 35.9968 73.937C37.0237 74.9111 38.5342 75.0655 39.6743 75.8585C40.0795 76.1402 41.6396 78.0702 40.5665 78.5095C40.0864 78.7061 40.2425 78.1495 40.2076 77.8131C40.1425 77.1842 39.9431 76.7355 39.4534 76.3186C38.3903 75.4135 36.9062 75.1197 35.7779 74.2855C33.8042 72.826 33.3909 70.2828 34.0412 67.9863Z" fill="#231815"/>
<path d="M31.4697 77.1523C32.2238 76.7142 32.6638 76.6625 33.1674 77.3003C33.685 77.9558 34.2305 78.594 34.7683 79.2333C34.9893 79.4958 35.9714 80.6139 36.4005 80.3037C36.6616 80.115 36.3804 78.8475 36.3 78.6072C36.1529 78.1673 35.8504 77.9609 35.6347 77.5908C35.3543 77.1092 35.4869 76.885 36.0172 77.1544C36.4069 77.3522 36.6474 77.939 36.7602 78.3161C36.9339 78.8972 36.9289 79.5275 36.843 80.1231C36.7721 80.6145 36.8052 80.7014 36.4 80.7409C35.7055 80.8086 34.4068 79.848 33.9224 79.425C33.0869 78.6955 32.2839 77.9067 31.4697 77.1523Z" fill="#231815"/>
<path d="M37.7271 78.4899C37.8503 77.9852 37.8996 77.4354 38.3114 77.4635C38.723 77.4918 39.0056 77.9423 39.3325 78.1299C39.6442 78.3088 40.4303 78.3835 40.6314 78.6749C40.7299 78.8177 40.8044 79.0724 40.5541 79.1944C40.2866 79.3247 39.9588 78.8765 39.718 78.7396C39.1399 78.4112 38.3752 78.4458 37.7271 78.4899Z" fill="#231815"/>
<path d="M31.166 68.1603C32.4241 68.6319 32.2896 69.2335 32.0343 70.3135C31.7718 71.4232 31.3815 72.5935 31.0146 73.6363C30.7386 74.4208 30.0774 75.0796 29.5333 75.6853C29.0627 76.2096 28.0843 76.9325 27.8694 77.6235C27.7508 78.0049 28.3491 79.1075 27.5519 78.6369C26.1749 77.8241 28.8588 75.7782 29.3619 75.2992C30.2916 74.4144 30.3554 73.6282 30.6047 72.4339C30.913 70.9572 31.1597 69.6707 31.166 68.1603Z" fill="#231815"/>
<path d="M31.926 77.2993C31.6693 78.4058 31.7236 78.463 30.6929 78.2572C30.2636 78.1714 29.9872 78.0928 29.5661 78.2889C29.2458 78.4382 28.9146 79.053 28.6402 79.1161C28.2896 79.1969 28.1321 78.9968 28.2277 78.7041C28.3527 78.3218 29.1476 78.0385 29.4686 77.9082C30.2915 77.5744 31.0138 77.3302 31.926 77.2993Z" fill="#231815"/>
<path d="M45.7725 65.9028C46.7895 66.3073 46.9415 66.6979 46.8414 67.685C46.7348 68.7367 46.7867 70.1378 47.5193 70.9837C48.4579 72.0675 53.0226 72.0967 52.709 74.1704C52.6064 74.849 52.3665 74.4934 52.1282 74.1565C51.8334 73.7395 51.7248 73.3775 51.257 73.0734C50.1393 72.3471 48.7029 72.329 47.5786 71.5773C45.7048 70.3246 45.7789 67.9567 45.7725 65.9028Z" fill="#231815"/>
<path d="M47.1952 74.4709C47.7034 73.3213 48.5221 73.678 49.0498 74.5314C49.2921 74.9235 49.8788 76.6286 49.2052 76.9964C48.6626 77.2927 47.0231 75.9775 46.6259 75.7047C46.1149 75.3539 45.604 74.9697 45.0257 74.7331C44.741 74.6167 44.1548 74.602 43.9412 74.3606C43.1392 73.4549 45.4031 74.3102 45.6367 74.4563C46.2202 74.8214 47.6288 76.4259 48.3909 76.2664C48.7056 76.2005 48.6182 76.1678 48.6357 75.8795C48.681 75.1306 47.8024 74.6111 47.1952 74.4709Z" fill="#231815"/>
<path d="M42.447 66.1403C43.6542 66.6967 43.6474 67.1804 43.5952 68.3492C43.5303 69.8028 43.3125 71.2092 42.0919 72.1315C41.5567 72.5359 40.2233 73.1893 40.6041 74.0979C41.0142 75.0767 43.1433 73.2309 43.9653 73.8423C44.6319 74.3381 43.5845 74.3437 43.2455 74.3993C42.5585 74.5121 41.8989 74.7765 41.1994 74.8196C40.7778 74.8456 40.412 74.9071 40.2336 74.5899C39.9999 74.1745 40.2378 73.2804 40.4536 72.9521C40.7578 72.4893 41.2795 72.2918 41.6722 71.9296C42.0805 71.5531 42.2977 71.0784 42.4491 70.5451C42.8703 69.0621 42.4608 67.6292 42.447 66.1403Z" fill="#231815"/>
<path d="M49.0553 74.4775C49.0347 73.922 48.9509 73.4061 49.4009 73.3433C49.8445 73.2814 50.2517 73.7055 50.6087 73.8898C50.9479 74.065 51.7768 74.1112 52.0039 74.4175C52.11 74.5605 52.2129 74.8056 51.9609 74.9478C51.6954 75.0976 51.3061 74.6206 51.0568 74.4933C50.4529 74.1847 49.6793 74.2525 49.0553 74.4775Z" fill="#231815"/>
<path d="M28.4887 20.0168C30.2979 19.4741 32.3026 18.9132 32.7717 16.8441C33.4668 13.778 31.9487 10.6264 33.1481 7.61973C34.3118 4.70254 37.3009 2.56379 40.3081 1.8816C41.9837 1.50144 43.7929 1.52019 45.4395 2.03097C46.8017 2.45363 48.6118 3.4316 49.0992 4.89019C49.4253 5.86613 48.6559 6.37019 47.8126 6.60363C47.5593 6.67379 47.0757 6.84051 46.8111 6.77457C46.5198 6.70191 46.5926 6.63332 46.3256 6.40832C44.8259 5.14551 41.8151 5.62238 40.5692 7.02613C39.5393 8.18629 39.7889 9.8241 40.1665 11.2008C40.4126 12.0982 40.7014 13.018 41.1403 13.8411C41.537 14.585 42.0628 15.2764 42.3537 16.0733C42.9881 17.8105 40.9945 19.2989 40.0857 20.6155C38.9757 22.2235 37.9939 23.9182 37.1301 25.6704C35.3354 29.3113 34.0576 33.1871 33.1162 37.13C32.7301 38.7469 32.4014 40.3766 32.1037 42.0118C32.0578 42.2639 31.7572 44.7543 31.5801 44.765C31.4017 44.776 31.0493 42.6218 31.0115 42.4582C30.6139 40.7377 30.1114 39.0321 29.3743 37.4239C28.5865 35.7049 27.5065 34.0324 25.9411 32.9257C24.7653 32.0944 23.3978 31.8103 22.0428 31.4138C16.8404 29.891 10.7412 28.2436 6.62403 24.5477C5.78137 23.7913 3.89965 21.903 5.45981 20.9285C7.37043 19.7349 10.7065 20.8158 12.7004 21.1257C15.4829 21.5578 18.3918 21.3644 21.1834 21.1258C23.6011 20.9193 26.1529 20.7175 28.4887 20.0168Z" fill="#231815"/>
<path d="M50.1028 16.8559C49.0119 22.0998 55.8949 21.4934 59.0027 20.8182C63.0581 19.9371 67.9781 18.192 72.0633 19.7296C71.591 20.3692 70.8819 20.4501 70.7666 21.3423C70.6816 21.9995 70.9533 23.105 71.8353 23.0312C72.16 23.004 72.6777 22.6125 72.9605 22.4723C73.6624 22.1245 74.3646 21.7768 75.0689 21.4339C75.5566 21.1964 76.3352 21.0093 76.1844 20.3421C76.0296 19.657 74.9449 19.1568 74.3633 18.9671C73.2281 18.597 71.9588 18.4815 70.7819 18.3214C69.2946 18.119 67.7669 17.92 66.2625 17.9686C65.2136 18.0025 64.1761 18.2982 63.1561 18.524C60.6471 19.0795 58.138 19.7731 55.5986 20.1765C52.9592 20.5959 50.4427 19.9142 50.1028 16.8559Z" fill="#231815"/>
<path d="M44.0461 9.61215C44.8461 9.7745 45.3765 8.75731 44.6485 8.29715C43.9691 7.86809 42.9562 8.8995 44.0461 9.61215Z" fill="#231815"/>
</g>
<defs>
<clipPath id="clip0_293_10465">
<rect width="80" height="80" fill="white" transform="translate(0 0.744141)"/>
</clipPath>
</defs>
</svg>
