<svg width="356" height="356" viewBox="0 0 356 356" fill="none" xmlns="http://www.w3.org/2000/svg">
<g clip-path="url(#clip0_288_9295)">
<g clip-path="url(#clip1_288_9295)">
<path d="M144.539 50.7092C123.651 36.0954 105.895 33.4146 104.851 39.9743C103.807 46.5341 122.436 79.9368 122.436 79.9368C122.436 79.9368 126.987 99.0355 145.295 95.7084C163.603 92.3814 144.539 50.7092 144.539 50.7092Z" fill="#F7B52C"/>
<path d="M178.486 40.1966C173.22 40.8032 167.78 41.8561 162.178 43.402C150.377 46.6583 138.037 59.2916 132.74 73.4311C120.794 91.9021 126.718 131.558 138.272 143.164C138.272 143.164 141.194 146.1 144.117 149.036C136.378 151.614 128.639 154.192 128.639 154.192C95.2358 165.321 59.9446 187.445 44.2784 172.831C28.6123 158.217 2.50196 124.814 -18.386 126.902C-39.2739 128.989 -14.2084 138.884 -4.61214 165.524C2.19281 184.416 -3.71755 221.892 25.5026 245.9C54.5054 269.73 73.2577 269.907 95.4848 262.763C93.6707 302.884 105.257 349.378 142.722 391.089C143.654 398.736 145.504 403.868 150.495 408.296C159.077 415.913 190.124 415.449 189.955 404.538C189.955 404.538 189.889 400.255 189.786 393.63C189.986 409.389 192.941 426.305 206.947 430.575C216.141 433.378 229.007 435.506 235.373 425.381C241.13 416.223 240.069 399.248 239.814 396.087C243.424 401.872 246.075 406.112 246.075 406.112C255.182 420.675 295.577 428.198 315.139 423.361C337.024 417.951 285.053 393.946 288.159 360.216C295.109 367.892 302.885 374.132 311.49 378.312C349.089 334.471 347.021 233.202 287.427 178.176C274.267 166.025 261.522 165.356 261.522 165.356C261.522 165.356 260.422 165.298 259.323 165.241C263.282 159.123 267.241 153.005 267.241 153.005C293.112 113.024 253.268 31.5844 178.486 40.1966Z" fill="black"/>
<path d="M129.646 106.163C147.639 146.442 227.047 146.743 234.532 113.339C242.017 79.9361 207.885 41.5438 160.503 51.3877C150.289 52.4574 140.303 60.2203 136.419 65.7656C132.536 71.3109 121.763 92.2193 129.646 106.163Z" fill="#F7F7F7"/>
<path d="M173.843 192.683C208.434 193.763 237.625 251.911 224.754 311.41C211.882 370.909 183.751 369.865 164.415 366.063C134.468 360.173 123.411 296.355 124.674 257.733C125.937 219.11 140.421 191.639 173.843 192.683Z" fill="#F7F7F7"/>
<path d="M269.025 134.913C268.744 135.929 268.512 136.987 268.333 138.057C268.138 139.122 267.845 140.142 267.695 141.174C267.606 141.718 267.534 142.256 267.48 142.782C267.398 143.296 267.297 143.783 267.24 144.265C267.113 145.222 267.074 146.12 267.136 146.908C267.247 150.844 267.849 153.699 269.313 154.316C270.033 154.619 270.948 154.344 272.045 153.366C272.59 152.877 273.182 152.212 273.805 151.364C274.4 150.503 274.911 149.406 275.484 148.143C277.167 144.281 278.902 137.989 279.462 130.805C279.582 129.209 279.706 127.57 279.831 125.902C279.97 124.231 279.89 122.538 279.853 120.827C279.497 115.374 278.429 109.873 277.024 104.854C275.163 97.7635 272.849 91.454 270.741 87.1398C269.016 83.6135 266.893 80.3572 264.661 76.9234C263.456 74.9559 262.024 73.05 260.641 70.9571C259.902 69.9458 259.092 68.9487 258.278 67.9076C257.451 66.877 256.629 65.7912 255.64 64.7941C254.034 63.1129 252.372 61.3193 250.378 59.6592C249.405 58.8087 248.404 57.9333 247.375 57.0319C246.299 56.1844 245.194 55.3121 244.054 54.4132C243.569 54.0202 243.079 53.6222 242.582 53.2187C242.061 52.8456 241.534 52.4669 241.001 52.0826C239.936 51.3096 238.844 50.515 237.722 49.6998C236.576 48.92 235.346 48.1974 234.105 47.4232C232.862 46.6466 231.576 45.8686 230.17 45.2211C228.242 44.3116 226.559 43.3729 224.9 42.7899C223.255 42.1852 221.768 41.6383 220.4 41.1348C217.62 40.265 215.275 39.7243 213.159 39.1146C209.766 38.4671 206.915 37.4576 203.15 37.0925C202.178 36.9814 201.154 36.8635 200.056 36.7374C198.957 36.6313 197.773 36.6518 196.504 36.5959C195.237 36.5475 193.874 36.4959 192.394 36.4407C190.918 36.4717 189.326 36.5052 187.595 36.5412C185.19 36.4916 182.796 36.6921 180.411 36.8231C179.221 36.9051 178.026 36.9262 176.856 37.0652C175.69 37.2372 174.53 37.4079 173.384 37.5774C171.985 37.8065 170.601 38.03 169.252 38.2945C167.922 38.639 166.615 38.9786 165.337 39.3108C164.062 39.6448 162.815 39.9714 161.602 40.2892C160.357 40.6946 159.035 41.0795 157.903 41.5936C155.093 42.7173 152.719 44.0521 150.738 45.3335C149.737 45.9667 148.835 46.5882 148.056 47.2059C147.25 47.7957 146.559 48.3725 145.983 48.9176C143.019 51.6188 139.474 55.6617 136.066 60.683C134.832 62.4548 133.614 64.3564 132.439 66.3742C131.853 67.3836 131.326 68.4484 130.771 69.5143C130.525 70.0644 130.278 70.6175 130.032 71.1738L129.666 72.0132L129.621 72.084L129.602 72.1138L129.591 72.1293L129.589 72.1324L129.68 71.9604L129.665 71.9859L129.546 72.1932C128.948 73.2325 128.363 74.2923 127.793 75.3613C127.272 76.4441 126.904 77.5734 126.46 78.6834C126.256 79.2428 126.019 79.7966 125.841 80.3603L125.377 82.0601C125.082 83.1944 124.706 84.3181 124.455 85.448C124.136 87.01 123.736 88.5553 123.373 90.0931C123.105 91.634 122.84 93.1668 122.648 94.6854C122.502 96.0574 122.533 97.414 122.508 98.7419C122.469 100.073 122.523 101.369 122.539 102.635C122.525 110.049 123.072 116.411 123.938 120.459C124.164 121.839 124.603 123.145 124.971 124.414C125.344 125.683 125.703 126.908 126.097 128.089C127.569 133.311 129.308 137.705 131.312 140.632C132.34 142.084 133.241 143.208 134.22 143.881C135.131 144.571 135.84 144.87 136.345 144.757C137.84 144.418 138.424 141.774 138.123 138.905C138.078 137.856 137.836 136.803 137.434 135.683C137.133 134.455 136.571 133.234 135.971 131.804C135.407 130.304 134.751 128.759 134.282 126.941C134.02 126.049 133.749 125.121 133.465 124.154C133.228 123.165 132.971 122.139 132.681 121.07C132.206 119.45 131.863 117.664 131.362 115.774C130.972 113.864 130.55 111.802 130.3 109.566C129.85 105.561 129.892 101.023 130.121 95.9258C130.371 93.4326 130.387 91.2125 130.716 89.317C130.844 88.3566 130.964 87.4558 131.076 86.6046C131.247 85.7727 131.448 85.001 131.635 84.2622C132.104 82.0558 132.966 80.4069 133.614 78.7318C134.006 77.9384 134.472 77.2226 134.887 76.4534C135.166 75.9424 135.448 75.4265 135.735 74.9032L135.862 74.6182L135.981 74.3283L136.113 73.998C136.201 73.7757 136.29 73.5516 136.378 73.3238C137.738 69.9104 139.389 65.6751 143.686 60.1118C145.985 57.1995 148.768 54.7261 151.486 52.501C153.49 50.8123 155.48 49.1982 157.587 48.0546C158.824 47.3711 160.097 46.9005 161.317 46.5125C161.944 46.3473 162.511 46.1604 163.138 46.0133C163.784 45.878 164.415 45.7383 165.024 45.5855C171.442 43.8031 176.111 43.0395 177.161 42.7899C177.649 42.6701 179.024 42.6273 181.082 42.5143C182.11 42.4497 183.31 42.374 184.659 42.2889C186.007 42.2119 187.507 42.279 189.134 42.243C190.112 42.2213 191.136 42.1964 192.201 42.1716C193.265 42.2181 194.369 42.2653 195.511 42.315C196.654 42.369 197.832 42.4243 199.042 42.482C200.24 42.6521 201.47 42.8272 202.725 43.0054C203.569 43.1488 204.423 43.2953 205.288 43.4424C206.141 43.6504 206.994 43.905 207.858 44.1415C209.577 44.6568 211.366 45.0268 213.102 45.6687C214.803 46.256 216.589 46.6658 218.314 47.2997C220.028 47.9534 221.772 48.5811 223.464 49.3304C225.151 50.199 226.805 51.1308 228.442 52.0534C230.022 53.0834 231.564 54.1381 233.129 55.1035C234.653 56.1416 236.156 57.166 237.629 58.1711C239.118 59.1576 240.434 60.3223 241.751 61.3994C243.074 62.4505 244.151 63.7114 245.245 64.8519C245.786 65.4255 246.319 65.9892 246.84 66.5424C247.336 67.116 247.822 67.6785 248.297 68.228C250.991 71.1217 253.075 73.8558 254.736 75.958C256.284 78.1464 257.48 79.6681 257.964 80.4789C258.701 81.7094 259.769 83.4191 260.867 85.5132C261.921 87.6315 263.187 90.0329 264.297 92.6515C264.648 93.4437 265.058 94.2254 265.407 95.038C265.751 95.8532 266.096 96.6745 266.442 97.4953C266.782 98.3179 267.156 99.1318 267.462 99.9606C267.736 100.801 268.007 101.634 268.274 102.455C270.277 109.072 270.896 115.109 270.988 117.057C271.041 117.851 271.228 119.126 271.225 120.692C271.163 122.255 271.243 124.12 270.943 126.042C270.586 129.106 269.653 132.276 269.025 134.913Z" fill="black"/>
<path d="M122.399 42.387C123.698 42.8799 125 43.2189 126.168 43.7193C127.63 44.3395 128.901 45.1218 130.158 45.6929C131.631 46.3771 133.069 46.8408 134.298 47.417C136.117 48.2551 137.569 49.1299 138.889 49.6663C141.558 50.7651 143.282 51.1749 144.173 50.862C145.478 50.4243 145.037 48.3315 142.414 45.5855C141.188 44.3321 139.368 43.1574 137.165 41.8202C135.372 40.7331 133.643 39.456 131.72 38.5266C129.724 37.5557 127.574 36.9292 125.512 36.1706C123.547 35.4486 121.634 34.567 119.61 34.0734C118.138 33.7245 116.612 33.7028 115.143 33.5047C113.634 33.3116 112.121 32.9385 110.517 33.0093C109.475 33.0577 108.417 33.2434 107.318 33.6121C106.325 33.9238 104.817 34.6092 103.815 35.5286C102.824 36.3922 102.04 37.4781 101.678 38.7135C101.434 39.3151 101.421 39.9682 101.328 40.6021C101.303 40.9119 101.345 41.2968 101.352 41.5774C101.365 41.8394 101.392 42.0728 101.432 42.274C101.744 44.0788 102.462 45.4173 102.95 46.7999C103.468 48.2452 103.769 49.7383 104.374 51.1333C104.823 52.185 105.545 53.1293 106.042 54.2008C106.599 55.4164 106.948 56.7723 107.579 58.0748C108.309 59.5772 109.335 61.035 110.185 62.7156C110.736 63.8113 111.049 64.9667 111.601 65.9445C112.45 67.4544 113.537 68.6979 114.354 69.9352C114.951 70.8342 115.291 71.7921 115.858 72.5564C116.852 73.8999 118.029 74.9087 118.883 75.8493C119.907 76.9761 120.573 77.9533 121.315 78.5418C123.843 80.5186 123.919 79.7996 121.718 74.8212C121.17 73.533 120.648 72.3043 120.143 71.116C119.635 69.8812 118.993 68.7693 118.53 67.591C118.043 66.3543 117.737 65.0573 117.271 63.843C116.777 62.5622 116.119 61.3621 115.612 60.0534C115.157 58.8794 114.856 57.6036 114.369 56.3688C113.803 54.944 113.046 53.5396 112.416 51.9751C111.725 50.2592 111.168 48.37 110.434 46.4354C109.957 45.1553 109.37 44.0595 109.082 43.0587C108.866 42.3528 108.756 41.7028 108.713 41.2049L108.694 40.8753L108.709 40.8703L108.717 40.8467L108.637 40.689L108.647 40.5679L108.698 40.5108L108.915 40.4065C109.754 40.1011 111.051 40.1321 112.56 40.2085C114.246 40.2724 116.337 40.4065 118.938 41.1031C120.015 41.4005 121.125 41.9332 122.399 42.387Z" fill="black"/>
<path d="M189.959 48.1571C186.385 47.1284 182.899 46.3058 179.711 46.1891C177.723 46.0252 175.896 46.284 174.17 46.384C171.143 46.6534 168.498 47.0402 166.441 47.7536C164.146 48.4514 162.527 49.4397 161.573 50.2108C160.622 51.0105 160.354 51.7238 160.795 52.2707C161.695 53.4329 165.329 53.536 172.308 53.4565C174.707 53.441 178.983 53.2759 184.502 54.1078C185.862 54.3089 187.276 54.6485 188.765 54.9658C190.226 55.4016 191.796 55.7238 193.378 56.2708C196.673 57.2306 200.236 58.5039 203.764 60.3428C206.904 61.9886 209.991 64.0591 213.028 66.4698C215.294 68.3336 217.717 70.2457 219.767 72.5844C221.804 74.8765 223.638 77.3971 225.283 80.1077C226.851 82.6463 228.431 85.3059 229.518 88.1797C230.399 90.3471 230.902 92.6168 231.465 94.8947C232.089 97.7933 232.613 100.777 232.677 103.776C232.688 106.969 232.237 110.154 231.562 113.165C230.989 115.945 229.736 118.584 228.041 120.92C226.296 123.357 223.848 125.206 221.357 126.945C220.379 127.572 219.445 128.28 218.394 128.826C217.373 129.416 216.352 130.015 215.251 130.449L213.497 131.185C212.905 131.408 212.292 131.58 211.69 131.778L209.883 132.356L208.038 132.839C206.008 133.441 203.911 133.965 201.831 134.349C198.795 134.822 195.772 135.018 192.738 135.1C189.113 135.29 185.465 135.205 181.891 134.911C180.479 134.73 179.081 134.514 177.694 134.296L173.565 133.459L169.134 132.441C167.681 132.023 166.216 131.656 164.806 131.159C163.04 130.493 161.297 129.882 159.673 129.105C158.011 128.41 156.449 127.612 154.91 126.856C151.173 124.941 147.642 123.073 144.809 120.879C141.425 118.334 138.751 115.73 136.721 113.362C135.48 112.093 134.446 110.862 133.583 109.795C132.803 108.901 132.351 108.01 131.877 107.335C131.424 106.648 131.049 106.119 130.73 105.774C129.985 105.733 129.857 106.476 130.61 109.025C130.83 109.911 131.278 110.941 131.882 112.189C132.193 112.808 132.495 113.515 132.93 114.212C133.376 114.9 133.873 115.64 134.425 116.426C134.65 116.739 134.879 117.059 135.114 117.389C135.383 117.692 135.657 118.003 135.941 118.324C136.516 118.956 137.123 119.622 137.764 120.326C138.432 120.998 139.193 121.649 139.965 122.365C140.724 123.097 141.582 123.792 142.507 124.492C143.547 125.317 144.634 126.218 145.872 127.028C146.483 127.448 147.108 127.878 147.747 128.318C148.4 128.738 149.101 129.11 149.803 129.51C151.868 130.709 154.208 131.618 156.7 132.671C157.901 133.126 159.12 133.689 160.412 134.158C161.711 134.607 163.041 135.102 164.43 135.502C165.738 135.843 167.061 136.148 168.395 136.458C169.746 136.698 171.109 136.94 172.49 137.222C174.02 137.485 175.579 137.753 177.154 138.023C178.739 138.215 180.34 138.444 181.952 138.573C183.405 138.644 184.858 138.713 186.324 138.725C187.788 138.704 189.261 138.685 190.758 138.664C192.005 138.612 193.27 138.596 194.544 138.581C195.815 138.511 197.093 138.423 198.364 138.311C200.886 138.008 203.356 137.507 205.873 136.964C209.537 136.166 213.302 135.259 216.815 133.689C220.437 132.103 223.83 130.032 226.881 127.454C229.469 125.204 231.878 122.599 233.557 119.549C234.979 116.814 235.717 113.805 236.185 110.927C236.779 107.371 237.088 103.732 236.871 100.195C236.646 97.5022 236.179 94.9096 235.539 92.3642C234.643 88.5088 233.43 84.7472 231.81 81.3288C229.975 77.5213 227.67 74.1862 225.291 71.1056C222.849 67.9766 220.325 65.0196 217.589 62.6567C215.001 60.3813 212.357 58.5523 209.808 56.9394C208.047 55.7598 206.282 54.7857 204.647 53.8241C202.954 52.9835 201.403 52.1068 199.893 51.5233C197.64 50.5188 195.599 49.9066 193.937 49.3255C192.24 48.8555 190.904 48.465 189.959 48.1571Z" fill="black"/>
<path d="M332.281 316.14C331.773 320.137 331.421 323.96 330.73 327.532C329.902 331.998 328.754 336.073 327.717 339.854C326.511 344.303 325.346 348.346 324.03 351.92C322.031 357.176 319.927 361.443 318.137 364.936C316.384 368.522 314.753 371.203 313.685 373.326C312.487 375.349 311.801 376.782 311.607 377.633C311.32 378.889 312.118 378.902 313.908 377.622C315.726 376.369 318.486 373.754 321.595 369.539C322.303 368.555 323.031 367.49 323.784 366.347C324.489 365.18 325.176 363.915 325.909 362.587C326.67 361.271 327.342 359.833 328.033 358.324C328.73 356.817 329.494 355.255 330.13 353.57C332.454 348.177 334.379 342.578 335.908 336.885C337.339 330.933 338.216 324.89 338.899 318.935C339.282 316.103 339.506 313.275 339.844 310.478C340.015 307.673 340.286 304.892 340.299 302.135C340.302 300.139 340.255 298.16 340.174 296.204C340.037 294.249 339.898 292.317 339.827 290.404C339.74 288.444 339.653 286.507 339.569 284.596C339.52 282.681 339.379 280.798 339.157 278.951C338.898 276.542 338.555 274.193 338.106 271.917C337.694 269.637 337.316 267.411 336.872 265.258C336.163 261.141 335.492 257.198 334.596 253.404C333.515 249.477 332.229 245.731 330.943 242.01L330.016 239.05L329.013 236.11C328.331 234.151 327.719 232.15 326.85 230.223C326.226 228.767 325.536 227.324 324.837 225.867C324.134 224.412 323.32 222.987 322.612 221.488C321.807 219.793 321.041 218.042 320.143 216.309C319.259 214.568 318.421 212.752 317.378 210.992C316.15 208.976 314.874 206.911 313.476 204.835C312.035 202.787 310.549 200.675 309.009 198.488C306.913 195.708 305.192 192.824 303.059 190.437C301.466 188.56 299.885 186.79 298.209 185.23C296.544 183.663 295.051 182.062 293.453 180.691C291.16 178.656 289.32 176.501 287.092 174.846C283.261 171.918 279.397 170.134 276.123 168.789C272.181 167.196 268.946 166.231 266.461 165.951C264.361 165.724 262.884 165.773 262.113 165.908C261.342 166.053 261.29 166.243 261.84 166.452C262.961 166.94 267.11 167.533 273.693 170.923C277.055 172.678 280.037 174.754 282.694 177.013C285.444 179.305 287.959 181.855 290.384 184.379C291.661 185.696 292.744 187.173 293.899 188.56L295.604 190.658L297.231 192.811C298.366 194.329 299.603 195.766 300.735 197.3C301.844 198.853 302.958 200.414 304.087 201.996C305.068 203.436 305.916 204.991 306.839 206.521C307.294 207.288 307.756 208.062 308.219 208.841C308.655 209.638 309.095 210.44 309.539 211.251C311.68 214.933 313.877 218.805 315.917 223.076C316.98 225.445 318.14 227.86 319.105 230.473C319.617 231.765 320.139 233.082 320.67 234.422C321.163 235.778 321.664 237.16 322.175 238.57C322.529 239.502 322.875 240.41 323.211 241.296C323.525 242.192 323.829 243.065 324.127 243.917C324.711 245.625 325.324 247.235 325.776 248.813C326.394 251.039 326.933 253.13 327.438 255.103C327.862 257.097 328.263 258.973 328.692 260.755C329.198 262.797 329.558 264.755 330.006 266.63C330.461 268.506 330.792 270.339 331.08 272.164C331.451 274.355 331.745 276.534 331.94 278.787C332.179 281.037 332.414 283.35 332.577 285.818C333.085 291.282 333.462 297.515 333.217 305.417C333.132 307.055 333.041 308.766 332.867 310.549C332.665 312.329 332.454 314.188 332.281 316.14Z" fill="black"/>
<path d="M102.737 232.944C103.591 229.419 104.224 226.018 105.157 222.877C105.681 220.898 106.353 219.04 106.968 217.236C107.561 215.422 108.233 213.714 108.824 212.046C109.485 210.071 110.177 208.211 110.823 206.425C111.437 204.625 112.13 202.957 112.796 201.373C113.74 199.012 114.849 196.952 115.75 194.996C116.732 193.084 117.627 191.342 118.438 189.765C121.701 183.353 123.877 179.79 124.12 178.194C124.313 177.028 123.541 176.993 121.903 178.129C120.254 179.254 117.76 181.592 114.927 185.322C112.254 188.754 109.588 193.527 106.813 199.343C104.518 204.063 102.337 208.894 100.602 213.88C98.8355 219.072 97.6081 224.408 96.4136 229.652C95.799 232.142 95.316 234.643 94.7361 237.104C94.237 239.58 93.7943 242.048 93.4199 244.495C92.994 248.058 92.8152 251.583 92.5986 255.015C92.259 258.525 91.9486 261.958 91.7865 265.299C91.7785 267.478 91.8381 269.613 91.8939 271.695C91.9753 273.776 92.1497 275.804 92.1963 277.778C92.2199 279.656 92.3161 281.49 92.3769 283.296C92.4614 285.099 92.4552 286.88 92.6936 288.617C92.9071 290.435 93.1865 292.219 93.4671 293.985C93.7589 295.75 94.1562 297.484 94.4294 299.231C94.9608 302.908 95.5829 306.563 96.3521 310.275C97.0835 313.027 98.0035 315.777 98.8404 318.632C99.8493 321.844 100.518 325.289 101.822 328.724C103.172 332.739 105.157 336.76 106.999 341.176C108.328 343.997 109.305 346.841 110.623 349.378C112.715 353.259 114.91 356.714 116.995 359.843C117.729 360.995 118.387 362.143 119.026 363.252C119.686 364.35 120.381 365.375 121.082 366.345C122.33 368.041 123.558 369.589 124.74 371.001C125.975 372.369 127.121 373.639 128.177 374.809C130.603 377.676 132.581 379.91 134.235 381.416C137.037 383.959 138.277 384.85 137.814 383.741C137.582 383.188 136.922 382.132 135.814 380.53C134.735 378.908 133.077 376.835 131.236 373.958C129.284 371.044 127.416 368.278 125.826 365.467C124.974 364.031 124.103 362.645 123.242 361.278C122.441 359.875 121.664 358.483 120.927 357.087C119.327 354.182 118.141 351.138 116.777 348.198L115.664 345.885L114.624 343.53C113.924 341.957 113.216 340.376 112.541 338.76C111.453 335.806 110.467 332.743 109.403 329.59C108.817 327.761 108.168 325.91 107.497 324.009C106.845 322.103 106.295 320.108 105.698 318.063C105.012 315.829 104.557 313.453 104 311.014C103.406 308.583 102.991 306.021 102.449 303.379C102.065 301.628 101.739 299.957 101.454 298.359C101.155 296.763 100.863 295.243 100.628 293.787C100.144 289.662 99.848 286.07 99.6469 282.784C99.2725 279.022 99.0528 275.653 98.8733 272.335C98.8653 270.34 98.9 268.365 98.9342 266.333C98.9745 264.301 99.1465 262.218 99.2067 259.994C99.2787 257.528 99.5109 254.906 99.6636 252.002C99.9772 249.117 100.191 245.936 100.803 242.435C101.217 239.509 102.04 236.4 102.737 232.944Z" fill="black"/>
<path d="M-15.5307 130.918C-16.0826 130.875 -16.6271 130.853 -17.1567 130.9L-17.9594 130.927L-18.8733 131.027L-19.7213 131.121L-20.2329 131.196L-20.5725 131.25L-20.7954 131.295C-21.0841 131.362 -21.4268 131.487 -21.5422 131.79C-21.6205 132.097 -21.469 132.401 -21.3113 132.666C-21.3051 132.774 -19.5866 134.946 -18.3021 136.445C-16.9332 138.067 -15.5301 139.72 -14.1841 141.424C-12.5048 143.555 -10.9676 145.805 -9.45338 148.055C-7.69456 150.657 -5.97795 153.293 -4.55128 156.077C-2.50874 159.993 -1.04169 164.063 0.121756 168.372C0.480598 170.08 0.938775 171.794 1.25664 173.464C1.55154 175.126 1.90665 176.808 2.12021 178.436C2.58025 181.611 2.8621 184.724 3.27681 187.775C4.069 193.754 5.12627 199.462 6.42319 204.935C6.68518 206.031 6.94407 207.122 7.2042 208.209C7.51275 209.273 7.82007 210.335 8.12863 211.391C8.68241 213.53 9.48948 215.536 10.2488 217.545C12.8445 223.944 16.4167 229.599 20.5813 234.483L22.5723 236.685C23.2223 237.427 23.8618 238.174 24.6242 238.8C26.1086 240.108 27.4651 241.449 29.0259 242.695C30.5258 243.811 32.0164 244.92 33.499 246.022C35.0132 247.055 36.5193 248.082 38.0155 249.102C39.6651 250.247 41.4363 251.294 43.2045 252.466C45.021 253.516 46.873 254.628 48.8031 255.586C52.6591 257.544 56.7597 258.986 60.7759 260.165C67.0923 261.901 73.3912 262.449 78.921 262.232C82.6988 262.019 86.0711 261.645 88.8233 261.434C93.4119 261.154 96.259 261.488 96.1355 263.448C96.0281 264.755 93.7813 266.558 89.8644 268.215C87.1824 269.385 83.8926 270.23 79.869 270.988C75.9398 271.666 71.214 272.057 66.5993 271.654C64.9032 271.412 63.2282 271.223 61.6041 270.831C59.9918 270.395 58.3298 270.085 56.707 269.533C54.7842 268.921 52.7889 268.355 50.9363 267.566C50.0007 267.191 49.0713 266.82 48.1612 266.456C47.2895 266.025 46.4334 265.601 45.6058 265.19C41.3742 263.045 38.0578 260.642 35.1423 258.569C33.427 257.441 31.1777 255.825 28.7763 254.038C27.5868 253.133 26.4562 252.091 25.2071 251.029C23.9661 249.966 22.6437 248.851 21.2326 247.451C20.0101 246.269 18.6102 245.083 17.2661 243.743C15.9971 242.326 14.6859 240.856 13.4119 239.358C12.3081 238.013 11.4383 236.504 10.4462 235.046C9.97993 234.297 9.43423 233.584 9.01331 232.779C8.57996 231.981 8.13854 231.168 7.68471 230.334C7.25137 229.57 6.80875 228.784 6.35616 227.986C5.89488 227.192 5.55466 226.328 5.13871 225.489C4.37322 223.786 3.455 222.098 2.90122 220.326C1.45592 216.434 0.478107 212.533 -0.476114 208.349C-0.90511 206.381 -1.43033 204.349 -1.79228 202.291C-2.20699 200.235 -2.60001 198.163 -2.86634 196.135C-3.44186 192.294 -3.67527 188.637 -4.14772 184.802C-4.54071 181.55 -5.13177 178.132 -5.65513 174.992C-6.12883 172.242 -6.49882 169.725 -7.29225 167.199C-8.44141 163.532 -10.3406 159.876 -12.208 156.549C-13.775 153.771 -15.2699 151.202 -17.1207 148.644C-19.7195 145.039 -22.8038 141.684 -25.5336 138.17C-26.5592 136.824 -28.2888 134.422 -28.8091 132.292C-29.0537 131.211 -29.1009 130.11 -28.7172 129.06C-28.3261 128.007 -27.5413 127.193 -26.6107 126.614C-24.9239 125.498 -22.5058 124.957 -20.7016 124.648C-19.8548 124.526 -19.144 124.409 -18.3208 124.342C-17.4994 124.311 -16.6824 124.208 -15.907 124.271C-11.1892 124.468 -7.45491 125.988 -4.07944 127.512C-0.965962 128.932 2.2661 130.675 5.10206 132.617C7.02168 133.923 8.59921 135.302 10.4294 136.733C12.3068 138.211 14.4257 139.775 16.2323 141.357C18.7051 143.526 20.8458 145.723 23.2236 147.997C25.7932 150.459 28.5838 153.02 31.0659 155.543C32.9148 157.425 34.4755 159.257 36.2952 161.132C38.6804 163.587 41.3171 166.073 43.6868 168.407C45.0012 169.719 46.3155 171.022 47.4007 171.936C48.6324 172.815 49.9424 173.613 51.4684 174.095C53.8697 174.928 56.7274 175.03 59.3579 174.948C61.8164 174.866 64.1011 174.71 66.5348 174.266C69.3316 173.75 72.2365 172.803 74.8856 172.006C78.3076 170.971 81.4478 170.038 84.6035 168.858C87.3103 167.829 90.0619 166.57 92.5458 165.537C94.6442 164.669 96.5136 164.046 98.4443 163.209C101.962 161.685 105.393 160.127 108.414 159.024C111.435 157.924 114.035 157.271 116.479 156.607C120.112 155.602 123.226 154.872 125.332 154.735C128.382 154.574 129.662 155.15 128.902 156.323C128.143 157.506 125.351 159.217 120.255 161.658C117.436 163 113.869 164.461 109.555 166.251C106.369 167.572 102.801 169.126 98.7032 170.651C96.6905 171.402 94.6684 172.023 92.724 172.734C89.1567 174.035 85.7266 175.365 82.3058 176.476C77.0231 178.196 71.8218 179.536 66.5664 180.427C63.258 180.974 59.8993 181.413 56.4319 181.209C53.8344 181.084 51.1623 180.556 48.6126 179.55C46.0727 178.569 43.6372 176.972 41.6946 175.149C39.2361 172.838 36.8099 170.557 34.4588 168.161C31.8519 165.499 29.3264 162.722 26.635 159.996C24.0499 157.381 21.312 154.822 18.5245 152.168C16.4571 150.207 14.3972 148.152 12.1566 146.19C9.6869 144.03 7.01423 141.982 4.25153 139.941C0.846255 137.465 -2.75519 134.925 -6.76391 133.155C-9.57939 131.908 -12.5979 131.053 -15.5307 130.918Z" fill="black"/>
<path d="M230.841 290.764C231.311 283.128 230.941 275.849 230.271 268.999C229.466 260.435 228.018 252.497 225.929 245.312C223.476 236.864 220.177 229.5 216.645 223.15C211.503 213.719 205.571 206.559 199.751 201.673C193.765 196.806 188.113 194.184 183.744 193.097C182.642 192.874 181.635 192.671 180.723 192.486C179.801 192.36 178.963 192.321 178.231 192.268C176.772 192.12 175.659 192.35 174.941 192.439C172.799 192.845 173.856 193.497 177.347 194.485C180.798 195.615 186.757 197.754 193.361 203.327C199.435 208.455 206.191 216.303 211.712 227.247C216.162 236.164 219.155 245.888 221.156 255.749C222.23 260.869 223.052 266.048 223.535 271.248C224.044 276.443 224.285 281.661 224.093 286.837C223.864 296.737 222.081 306.314 219.871 315.636C218.254 322.371 216.528 328.969 213.985 335.04C212.728 338.175 211.153 341.09 209.536 343.895C207.847 346.65 206.018 349.226 204.068 351.59C201.506 354.651 198.662 357.288 195.55 359.338C192.438 361.382 189.026 362.762 185.543 363.509C178.855 364.893 172.111 363.958 165.535 362.688C159.379 361.6 154.07 357.811 149.896 352.748C145.585 347.345 142.548 340.881 139.832 334.148C137.808 329.076 135.838 323.809 134.355 318.195C132.688 311.838 131.569 305.106 130.462 298.031C129.208 289.86 128.008 281.17 127.629 271.778C127.403 265.665 127.599 259.805 127.924 254.267C128.32 245.717 129.092 237.787 130.829 230.71C131.52 228.161 132.206 225.685 133.164 223.413C133.966 221.067 135.057 218.967 135.991 216.87C139.404 209.577 143.93 203.955 148.834 200.319C150.373 199.359 151.773 198.299 153.241 197.559C154.738 196.88 156.138 196.175 157.497 195.617C158.902 195.168 160.217 194.749 161.443 194.359C162.05 194.13 162.656 193.989 163.245 193.886C163.831 193.761 164.395 193.639 164.935 193.524C165.855 193.315 166.703 193.121 167.483 192.943C168.269 192.779 168.995 192.748 169.644 192.651C170.946 192.489 171.961 192.345 172.67 192.218C174.088 191.962 174.277 191.774 173.087 191.638C172.493 191.571 171.556 191.516 170.255 191.476C169.605 191.461 168.865 191.446 168.035 191.427C167.203 191.43 166.286 191.581 165.271 191.672C164.256 191.786 163.147 191.911 161.945 192.046C160.763 192.332 159.488 192.642 158.119 192.974C157.442 193.171 156.708 193.264 156.011 193.567C155.306 193.845 154.58 194.132 153.828 194.428C153.077 194.729 152.303 195.039 151.505 195.357C150.755 195.776 149.983 196.209 149.19 196.653C142.64 200.329 137.604 205.718 133.945 211.487C130.14 217.494 127.794 223.94 125.963 230.298C124.134 237.001 122.848 243.693 122.118 250.454C121.865 254.02 121.579 257.599 121.534 261.191C121.491 264.781 121.488 268.395 121.588 272.044C121.725 278.597 121.973 285.298 122.739 292.226C123.615 300.221 125.124 308.496 127.165 317.227C129.474 326.771 132.348 336.993 137.847 347.356C141.551 354.199 146.126 359.916 151.534 364.1C155.297 367.051 159.701 369.04 163.961 369.874C167.78 370.653 171.509 371.216 175.156 371.366C179.333 371.567 183.4 371.18 187.233 370.308C191.067 369.393 194.652 367.931 197.919 366.045C201.866 363.794 205.315 360.894 208.343 357.557C211.376 354.218 214.001 350.436 216.307 346.221C221.39 336.836 225.041 325.476 228.052 310.941C229.324 304.871 230.405 298.183 230.841 290.764Z" fill="black"/>
<path d="M151.699 143.165C159.361 144.148 173.471 155.844 173.471 155.844H177.91C189.37 148.613 207.884 146.7 207.884 158.824C207.884 170.948 207.884 185.58 198.946 184.327C190.007 183.072 173.47 173.501 173.47 173.501C173.47 173.501 153.155 183.711 147.638 179.244C142.121 174.777 144.037 142.183 151.699 143.165Z" fill="#0A61F5"/>
<path d="M173.471 73.4311C185.576 70.065 188.03 88.8334 178.722 93.0525C169.413 97.2717 161.366 76.7979 173.471 73.4311Z" fill="black"/>
<path d="M237.56 219.895C237.504 217.989 238.573 216.386 239.855 215.622C241.168 214.84 242.822 214.849 244.333 215.795C245.614 216.593 246.492 217.269 247.458 217.983C249.128 219.222 250.554 220.453 251.262 222.004C251.806 223.261 251.752 224.72 251.656 226.672C251.533 228.103 251.733 229.978 251.605 232.088C251.529 234.095 251.175 236.35 251.15 238.726C251.145 240.613 251.359 242.551 251.43 244.518C251.46 246.698 251.29 248.915 251.418 251.033C251.516 253.505 251.842 255.849 251.842 257.981C251.87 260.11 251.711 262.029 251.931 263.49C252.063 264.417 252.523 265.619 252.753 267.13C252.974 268.506 252.915 270.163 253.243 271.928C253.597 273.852 254.166 275.945 254.661 278.206C254.933 279.514 255.021 280.921 255.396 282.299C255.814 283.742 256.539 285.147 256.997 286.647C257.574 288.608 258.009 290.658 258.545 292.7C258.933 294.219 259.566 295.671 259.933 297.205C260.327 298.837 260.41 300.577 260.859 302.18C261.322 303.906 262.033 305.529 262.616 307.155C262.934 308.001 263.009 308.931 263.321 309.758C263.938 311.384 264.765 312.877 265.418 314.359C266.44 316.784 267.181 319.142 268.198 321.086C269.006 322.678 270.211 324.221 271.33 325.889C272.186 327.179 272.796 328.658 273.677 330.037C274.463 331.25 275.445 332.387 276.131 333.711C276.854 335.141 277.448 336.669 278.198 338.137C278.909 339.545 279.897 340.791 280.699 342.154C281.558 343.638 282.185 345.295 283.172 346.69C283.696 347.463 284.419 348.087 284.926 348.858C285.908 350.415 286.828 351.986 287.852 353.45C289.131 355.296 290.789 356.716 292.129 358.299C293.002 359.29 293.771 360.324 294.653 361.192C296.319 362.875 298.258 363.966 299.802 365.14C301.012 366.108 302.123 366.938 303.182 367.57C304.972 368.642 306.527 369.5 307.749 370.426C309.179 371.57 310.417 372.291 311.14 373.258C312.257 374.742 312.537 376.148 312.079 377.105C311.479 378.374 309.41 379.045 306.244 378.165C305.006 377.851 303.878 376.891 302.468 375.975C301.895 375.6 301.292 375.205 300.658 374.789C300.062 374.322 299.457 373.803 298.888 373.181C297.84 372.02 296.755 370.637 295.531 369.224C294.407 367.951 292.901 366.916 291.663 365.451C290.662 364.315 289.75 363.013 288.669 361.818C287.562 360.533 286.345 359.283 285.085 358.021C283.883 356.71 282.668 355.363 281.475 353.973C280.493 352.825 279.817 351.44 278.887 350.243C277.094 347.991 275.419 345.647 273.854 343.311C272.7 341.357 271.757 339.334 270.623 337.522C269.681 335.936 268.577 334.5 267.76 333.003C267.354 332.289 267.258 331.44 266.909 330.745C265.675 328.231 264.383 326.058 263.546 324.114C263.088 323.07 262.082 320.979 260.666 318.194C260.157 317.222 259.37 316.257 258.798 315.112C258.05 313.499 257.504 311.637 256.719 309.75C255.723 307.228 254.577 304.541 253.698 301.678C253.024 299.365 252.499 296.953 251.772 294.61C251.309 293.226 250.846 291.842 250.387 290.469C249.962 289.087 249.559 287.708 249.223 286.338C248.593 283.89 248.37 281.427 247.762 279.209C247.051 276.521 246.147 274.085 245.496 271.925C244.388 267.863 243.718 264.884 243.574 263.792C243.421 262.787 242.981 261.647 242.772 260.339C242.585 259.029 242.649 257.555 242.429 256.035C242.03 253.227 241.39 250.146 241.027 247.025C240.67 244.085 240.652 241.125 240.31 238.421C239.948 235.17 239.23 232.255 238.615 230.058C238.118 228.46 238.122 226.767 237.985 225.075C237.796 223.325 237.566 221.533 237.56 219.895Z" fill="black"/>
<path d="M130.421 66.8C130.658 67.1372 130.984 67.3886 131.204 67.6891C131.478 68.0647 131.649 68.4744 131.899 68.7911C132.197 69.1611 132.592 69.4175 132.868 69.7055C133.271 70.1339 133.554 70.5362 133.913 70.7883C134.632 71.3073 135.261 71.4799 135.778 71.3539C136.539 71.167 137.106 70.2941 137.04 69.0841C137.011 68.5222 136.677 67.9989 136.331 67.3458C136.039 66.8205 135.873 66.2028 135.539 65.6968C135.183 65.1784 134.673 64.7699 134.293 64.2819C133.928 63.8194 133.717 63.2532 133.346 62.8205C133.078 62.5039 132.673 62.304 132.417 62.0022C132.149 61.6968 132.032 61.287 131.783 60.994C131.46 60.611 131.002 60.3626 130.718 60.0094C130.45 59.6723 130.325 59.2414 130.059 58.9391C129.779 58.6237 129.374 58.4318 129.096 58.1351C128.804 57.8234 128.649 57.3963 128.349 57.0803C128.123 56.8431 127.752 56.7295 127.512 56.4849C127.241 56.2099 127.095 55.8001 126.795 55.5046C126.447 55.1631 125.959 54.9179 125.566 54.5349C125.31 54.284 125.186 53.9277 124.933 53.716C124.54 53.3913 124.016 53.2504 123.639 53.0194C123.365 52.8512 123.221 52.5786 122.956 52.4582C122.49 52.244 121.927 52.2223 121.528 52.1242C121.045 52.0099 120.742 51.8342 120.392 51.8423C119.202 51.8727 119.133 52.2117 120.068 53.4807C120.306 53.8066 120.521 54.1313 120.73 54.4436C120.943 54.7664 121.232 54.9955 121.422 55.3115C121.625 55.6424 121.734 56.0528 121.931 56.3744C122.137 56.7177 122.431 56.9729 122.65 57.3156C122.848 57.6192 122.955 58.0184 123.172 58.3331C123.419 58.6969 123.781 58.9831 124.073 59.3718C124.397 59.7946 124.664 60.3117 125.061 60.7767C125.327 61.0853 125.666 61.2759 125.885 61.531C126.195 61.8862 126.376 62.2673 126.633 62.5399C126.92 62.8584 127.28 63.0595 127.544 63.3315C127.863 63.6561 128.069 64.0584 128.416 64.4278C128.804 64.8364 129.316 65.2455 129.837 65.8651C130.051 66.1246 130.175 66.4847 130.421 66.8Z" fill="black"/>
</g>
</g>
<defs>
<clipPath id="clip0_288_9295">
<rect width="356" height="356" fill="white"/>
</clipPath>
<clipPath id="clip1_288_9295">
<rect width="369.299" height="447" fill="white" transform="matrix(-1 0 0 1 340.299 33)"/>
</clipPath>
</defs>
</svg>
