<svg width="80" height="80" viewBox="0 0 80 80" fill="none" xmlns="http://www.w3.org/2000/svg">
<g clip-path="url(#clip0_147_1563)">
<path d="M67.6429 18.6478C66.5879 18.5159 61.8401 17.3289 58.2791 17.8565C54.7184 18.384 48.9156 19.9667 47.4648 19.703C46.0142 19.4392 44.1678 18.648 43.1126 16.4059C42.0576 14.1639 42.3213 12.3175 42.0576 11.79C41.7938 11.2625 42.5851 7.56968 42.1895 5.32765C41.7938 3.08562 39.9474 2.29437 39.2881 2.1625C38.6287 2.03062 32.4301 4.5364 32.4301 4.5364C30.1881 6.25093 28.0779 8.09718 28.7375 10.7348C29.3968 13.3725 29.6606 17.197 27.5506 19.9667C25.4404 22.7362 19.1101 29.4623 16.8681 33.8143C14.6261 38.1665 11.7247 45.6837 11.5928 48.5853C11.4609 51.4867 14.0986 52.4098 15.0217 51.8823C15.9448 51.3548 17.1318 48.849 17.9231 47.7939C18.2981 47.2939 19.8162 45.1361 21.4698 42.9754C22.1278 48.5378 22.3731 54.3585 22.1434 55.0475C21.7478 56.2343 22.0115 59.7953 22.1434 62.8285C22.2367 64.9734 23.4623 66.6531 24.5173 67.3126C25.5723 67.972 28.3418 66.7851 29.1332 66.2576C29.9245 65.7301 32.0346 64.5431 32.2984 62.8287C32.5621 61.1142 32.9578 60.5867 32.9578 60.5867L32.5621 59.136C32.5621 59.136 32.5832 59.0726 33.749 59.0042C34.9148 58.9357 34.1159 60.8721 34.0128 62.1693C33.9098 63.4665 34.4084 64.4113 35.991 64.807C37.5737 65.2026 39.6837 65.3345 41.662 63.752C43.6403 62.1693 43.904 61.1143 43.7721 60.3231C43.6403 59.5318 44.1678 58.081 44.1678 58.081C44.1678 58.081 47.7285 55.0478 48.7837 50.5637C49.8387 46.0796 49.4431 42.387 49.0474 40.2768C48.6518 38.1667 47.5968 34.6059 47.3329 33.8145C47.2862 33.6743 47.332 33.5007 47.4473 33.3026C47.4229 33.3009 47.3985 33.3001 47.374 33.2986C49.054 32.0193 52.869 28.9808 53.5313 28.539C54.3226 28.0115 58.411 24.9783 61.3124 24.055C64.2138 23.1319 65.0051 22.2086 66.0602 21.4173C67.1152 20.6259 68.6979 18.7797 67.6429 18.6478Z" fill="white"/>
<path d="M43.7721 10.6025C42.1895 11.3937 41.1345 11.6575 40.4751 10.8662C39.8157 10.075 42.6046 6.7673 43.396 5.97605C44.1874 5.1848 44.5635 5.85465 46.4099 5.98668C48.2563 6.11855 49.8388 6.64605 49.9707 7.04168C50.1026 7.4373 50.762 7.9648 48.7838 8.62433C46.8055 9.28371 45.4868 9.94324 45.0912 9.94324C44.6952 9.94292 43.7721 10.6025 43.7721 10.6025Z" fill="#F7B52C"/>
<path d="M24.913 67.4441C25.4405 69.1586 24.2536 72.7194 23.858 73.5106C23.4624 74.3019 21.3522 75.8845 21.2203 76.6758C21.0885 77.467 20.873 78.198 22.0116 77.8627C23.0888 77.5455 25.7758 76.5302 26.2319 76.5439C26.688 76.5575 27.6827 78.5222 28.8695 79.4453C30.0564 80.3684 30.1883 79.3134 29.6608 77.3352C31.2434 77.467 31.6259 76.938 32.4303 77.467C33.2347 77.9961 34.6724 77.8627 34.013 76.6758C33.3536 75.4889 32.1666 74.8294 30.1884 73.9063C28.4983 73.1175 27.6827 72.3236 27.8145 70.3455C27.9464 68.3672 27.6827 67.1803 27.6827 67.1803L26.6277 66.2572L24.6494 66.6528L24.913 67.4441Z" fill="#F7B52C"/>
<path d="M36.5186 65.5977C36.6504 67.1803 36.6389 69.2992 36.1229 70.3455C35.607 71.3917 34.5403 71.6642 34.1447 72.3238C33.749 72.9831 33.3534 73.9064 34.4084 73.9064C35.4634 73.9064 36.9142 72.9833 37.7054 73.247C38.4967 73.5108 39.2881 73.9064 40.2112 74.8297C41.1343 75.7528 41.7939 76.2805 42.1895 75.7528C42.5851 75.2253 42.8489 74.302 41.9257 73.6427C41.0026 72.9833 42.2731 73.6339 43.2445 73.3789C44.1189 73.1494 46.1265 74.3972 45.8821 73.9064C45.6378 73.4156 46.1459 72.9833 45.2228 72.4556C44.2997 71.9281 42.0576 71.1369 41.3981 70.7411C40.7387 70.3455 40.0793 69.4224 39.9473 68.3672C39.8154 67.3122 39.5517 65.3339 39.5517 65.3339C39.5517 65.3339 37.8372 65.4658 37.0459 65.202C36.2547 64.9383 36.5186 65.5977 36.5186 65.5977Z" fill="#F7B52C"/>
<path d="M41.5267 5.24525C42.8195 3.11135 41.2429 1.16994 39.1979 0.446817C36.6501 -0.453963 33.6793 0.108224 31.2937 1.214C29.0584 2.2501 27.0875 3.94353 26.2582 6.32275C25.3765 8.85228 26.0417 11.4679 26.4003 14.026C26.7629 16.6129 26.5861 18.9643 25.2306 21.2577C23.8625 23.5724 21.8898 25.4626 20.1003 27.4437C16.8626 31.0274 14.9844 35.3319 13.3312 39.8249C12.4761 42.1491 11.6453 44.5152 11.0359 46.9172C10.5376 48.8813 9.70295 52.8014 12.3876 53.6038C12.6453 53.6808 14.9112 53.7166 14.6528 53.0572C14.6033 52.9308 13.3111 52.9779 13.1328 52.9425C12.4504 52.8074 11.9976 52.4322 11.74 51.7765C10.9195 49.6886 11.7345 46.8322 12.3112 44.7907C13.0247 42.2654 13.9875 39.818 14.9783 37.3912C15.7834 35.4188 16.5701 33.4008 17.6973 31.5851C20.3592 27.2971 25.3248 24.3618 26.9506 19.4382C28.6323 14.3449 24.8237 8.46447 28.8976 4.05525C30.7442 2.05666 33.6367 0.956348 36.3371 1.09682C37.566 1.16072 38.7726 1.48963 39.7371 2.28619C40.7218 3.09916 40.9929 4.15119 41.5267 5.24525Z" fill="#231815"/>
<path d="M48.4056 9.14517C49.4596 8.79923 51.6206 7.71751 49.8637 6.70283C48.8465 6.11533 47.3874 5.67627 46.2279 5.45392C45.7895 5.36986 44.7026 5.21767 44.4378 5.73627C44.107 6.38408 45.2382 6.52408 45.617 6.57236C46.9159 6.73767 48.1838 6.60205 49.4337 7.15001C50.9437 7.81204 48.7252 8.55111 48.0263 8.75533C46.5204 9.19533 44.7038 9.47595 43.3937 10.3917C43.1542 10.5592 42.3598 11.3494 42.956 11.5406C43.3307 11.6609 44.2382 10.7399 44.4893 10.5927C45.6915 9.88782 47.092 9.57157 48.4056 9.14517Z" fill="#231815"/>
<path d="M41.0979 9.34207C41.4806 8.65739 41.9423 7.94879 42.5129 7.40176C42.8528 7.07583 43.6134 6.7038 43.2743 6.10755C42.5289 4.79708 41.2226 8.17426 41.009 8.5452C40.7825 8.93864 39.1256 11.5488 40.8928 11.3085C41.1098 11.2789 41.3184 11.2043 41.3684 10.9657C41.4514 10.5699 41.1351 10.6429 40.9807 10.5089C40.7775 10.3327 40.8567 10.7816 40.6692 10.3436C40.5825 10.1405 41.0106 9.50004 41.0979 9.34207Z" fill="#231815"/>
<path d="M42.1101 13.5325C42.996 15.165 43.6134 17.1498 45.2096 18.2543C46.4174 19.0903 48.124 18.9736 49.5131 18.8161C51.7267 18.5651 53.8815 17.9687 56.071 17.5786C57.9913 17.2364 59.8317 17.2428 61.7701 17.3584C63.1548 17.4411 71.6248 17.8409 68.9824 20.6937C67.6709 22.1098 65.1635 22.6248 63.4541 23.4082C61.5393 24.2859 59.5576 25.0201 57.7299 26.0781C55.7965 27.1975 54.0348 28.5707 52.301 29.9726C51.8454 30.341 48.3003 33.4318 47.8957 32.9429C47.5862 32.5689 55.9249 26.5721 56.5918 26.1648C60.0327 24.0626 63.9687 23.0628 67.5223 21.2153C68.3998 20.759 69.9534 19.7061 68.4393 18.8312C66.9584 17.9756 64.7865 17.9831 63.126 17.9909C61.0674 18.0006 59.0173 17.8839 56.9798 18.2392C54.7129 18.6347 52.5001 19.2957 50.2253 19.6506C48.2315 19.9617 45.7787 20.1632 44.0912 18.8222C42.4857 17.5467 42.1979 15.4498 42.1101 13.5325Z" fill="#231815"/>
<path d="M47.4429 30.082C47.204 31.1427 47.4138 31.9069 47.7571 32.8898C48.1288 33.9542 48.3621 35.0794 48.6302 36.1728C49.2088 38.533 49.9376 41.0609 50.109 43.4951C50.4282 48.028 49.0949 53.1525 46.1855 56.6989C45.4359 57.6128 44.5527 58.23 43.4249 58.6022C42.9301 58.7654 42.3609 58.9189 41.8334 58.8922C40.7802 58.8387 41.4245 58.257 42.0473 58.0608C43.2441 57.6837 44.2851 57.7579 45.2619 56.8397C46.1991 55.9589 46.9285 54.7842 47.4048 53.5994C48.3421 51.2675 48.4868 48.8436 48.8615 46.394C49.2035 44.158 49.5077 41.9209 49.0302 39.6853C48.4955 37.1828 47.8619 34.7577 46.5062 32.5939C45.9696 31.7375 45.2719 30.603 45.9815 29.6053C46.1629 29.3503 46.7035 28.9053 47.0465 28.9856C47.5213 29.0969 47.2082 29.6164 47.4429 30.082Z" fill="#231815"/>
<path d="M29.0968 35.3352C28.9738 36.5196 28.5545 37.1466 27.6038 37.7683C26.3766 38.5708 25.2413 39.593 24.1402 40.5552C23.0813 41.4804 21.9996 42.3907 21.1631 43.53C20.0399 45.0596 19.1295 46.7482 18.1245 48.3553C17.3606 49.5771 16.5729 51.0889 15.4512 52.0291C15.0674 52.3507 14.0896 52.7994 14.674 51.9697C15.0101 51.4925 15.5199 51.0853 15.8909 50.6299C18.0757 47.9472 19.744 44.8632 21.7534 42.0513C22.767 40.6327 24.0832 39.455 25.3974 38.3177C26.5971 37.2794 27.7638 36.2033 29.0968 35.3352Z" fill="#231815"/>
<path d="M43.9085 56.037C45.0697 56.8273 44.9771 57.524 44.8161 58.6985C44.5943 60.3196 44.0283 62.0334 42.8475 63.207C41.625 64.4221 40.0075 65.3023 38.2776 65.479C37.1027 65.599 34.2554 65.2215 34.0519 63.5973C33.9332 62.6503 34.5415 63.4634 34.8122 63.7612C35.3222 64.3223 35.9516 64.7109 36.6888 64.9024C38.3302 65.3292 40.2241 64.8204 41.5441 63.7924C43.9043 61.9545 43.7446 58.7017 43.9085 56.037Z" fill="#231815"/>
<path d="M36.7428 58.0995C36.9218 58.6987 37.0309 59.1325 36.5575 59.3796C36.1056 59.6156 35.2618 59.5118 34.7932 59.4625C33.8526 59.3634 32.6935 59.359 31.8567 59.311C31.604 59.2965 31.0992 59.186 31.3598 58.7582C31.632 58.3115 32.6637 58.8456 33.0418 58.9065C34.3517 59.1182 35.5835 58.6401 36.7428 58.0995Z" fill="#231815"/>
<path d="M32.3794 59.6464C34.7111 60.2387 32.7604 63.3509 31.8481 64.4857C30.5854 66.0565 28.0837 68.2215 26.0233 66.446C25.7784 66.2351 25.3537 65.6989 25.8948 65.679C26.1853 65.6684 26.7584 66.1871 27.038 66.3018C28.1683 66.7653 29.3459 66.4603 30.2539 65.6773C31.8353 64.3139 32.5665 61.6587 32.3794 59.6464Z" fill="#231815"/>
<path d="M22.1147 61.4863C21.5197 62.0113 21.1086 62.669 20.4506 61.9023C20.1836 61.5913 20.0854 61.1807 20.022 60.7863C19.7875 59.3271 19.9742 57.771 19.9592 56.2996C19.9309 53.5303 19.6589 50.7734 19.167 48.0481C19.0615 47.4639 18.9501 47.1568 19.1358 46.6326C19.317 46.1209 19.6154 45.6167 19.8707 45.1392C20.1968 44.5292 20.5636 44.0032 21.0023 43.4748C22.3518 41.8489 23.7728 40.2304 25.3636 38.835C26.2254 38.0789 27.1851 37.2839 26.9404 38.932C26.3298 43.0432 24.3898 46.9196 23.5604 50.9981C22.8567 54.4577 22.6134 57.9951 22.1147 61.4863Z" fill="#231815"/>
<path d="M21.6937 57.0079C22.8147 57.3326 22.887 57.6922 22.8386 58.7047C22.7879 59.7625 22.609 60.8154 22.5662 61.8698C22.5179 63.0575 22.7115 64.4909 23.3103 65.534C23.4814 65.832 25.0808 67.3011 23.9665 67.0331C22.1279 66.5911 22.2536 62.8264 22.0137 61.439C21.7701 60.0304 21.774 58.4398 21.6937 57.0079Z" fill="#231815"/>
<path d="M27.3076 67.2483C27.6077 67.5191 28.1104 67.9549 28.1862 68.3909C28.2548 68.7855 28.0265 69.3033 28.0091 69.7172C27.9571 70.9569 28.3416 72.3225 29.262 73.1955C30.2882 74.1689 31.7979 74.3233 32.9374 75.1158C33.3424 75.3973 34.9016 77.3263 33.8291 77.7653C33.3491 77.9617 33.5052 77.4056 33.4704 77.0694C33.4052 76.4408 33.206 75.9923 32.7166 75.5758C31.6541 74.6711 30.1709 74.3777 29.0432 73.5439C27.0705 72.0852 26.6576 69.5434 27.3076 67.2483Z" fill="#231815"/>
<path d="M24.7375 76.4097C25.4911 75.9719 25.9308 75.9201 26.4341 76.5575C26.9515 77.2126 27.4966 77.8505 28.0341 78.4894C28.2549 78.7519 29.2366 79.8692 29.6654 79.5592C29.9263 79.3706 29.6452 78.1037 29.5649 77.8636C29.4179 77.4239 29.1155 77.2178 28.8999 76.8478C28.6196 76.3665 28.7522 76.1425 29.2821 76.4116C29.6716 76.6094 29.9119 77.1959 30.0246 77.5726C30.1983 78.1533 30.1933 78.7833 30.1074 79.3787C30.0365 79.8698 30.0696 79.9567 29.6647 79.9962C28.9707 80.0639 27.6727 79.1037 27.1885 78.6811C26.3538 77.9519 25.5513 77.1636 24.7375 76.4097Z" fill="#231815"/>
<path d="M30.9912 77.7462C31.1145 77.2418 31.1636 76.6921 31.5753 76.7204C31.9867 76.7487 32.269 77.1988 32.5957 77.3863C32.9071 77.5651 33.6931 77.6398 33.8939 77.931C33.9923 78.0737 34.0667 78.3282 33.8165 78.4503C33.5493 78.5806 33.2215 78.1324 32.9809 77.9957C32.4032 77.6674 31.639 77.702 30.9912 77.7462Z" fill="#231815"/>
<path d="M24.4339 67.4224C25.6912 67.8936 25.557 68.4949 25.3015 69.5744C25.0392 70.6835 24.649 71.8531 24.2825 72.8953C24.0067 73.6794 23.3458 74.3378 22.8022 74.9433C22.3317 75.4672 21.354 76.1899 21.1392 76.8802C21.0206 77.2614 21.6187 78.3634 20.8219 77.893C19.4456 77.0806 22.1279 75.0359 22.6308 74.5572C23.5598 73.6728 23.6237 72.887 23.8728 71.6936C24.1811 70.2177 24.4276 68.9317 24.4339 67.4224Z" fill="#231815"/>
<path d="M25.1938 76.5559C24.9372 77.6618 24.9916 77.719 23.9615 77.5133C23.5324 77.4276 23.2563 77.3489 22.8354 77.545C22.5152 77.694 22.1843 78.3086 21.9099 78.3717C21.5594 78.4523 21.4021 78.2523 21.4975 77.96C21.6225 77.5778 22.4168 77.2947 22.7377 77.1645C23.56 76.8309 24.2819 76.5868 25.1938 76.5559Z" fill="#231815"/>
<path d="M39.0321 65.1659C40.0487 65.5703 40.2004 65.9606 40.1004 66.9471C39.9938 67.9982 40.0457 69.3985 40.778 70.244C41.716 71.3271 46.2782 71.3564 45.9648 73.429C45.8623 74.1071 45.6224 73.7518 45.3843 73.4151C45.0896 72.9984 44.981 72.6365 44.5135 72.3326C43.3965 71.6067 41.9609 71.5887 40.8371 70.8375C38.9644 69.5853 39.0385 67.2187 39.0321 65.1659Z" fill="#231815"/>
<path d="M40.4539 73.7294C40.9617 72.5805 41.7801 72.9369 42.3073 73.7899C42.5495 74.1816 43.1359 75.886 42.4628 76.2535C41.9204 76.5496 40.2819 75.2352 39.8848 74.9626C39.3742 74.6119 38.8634 74.2279 38.2856 73.9916C38.0011 73.8752 37.4153 73.8605 37.2017 73.6194C36.4001 72.7143 38.6628 73.569 38.8962 73.7151C39.4795 74.0799 40.8873 75.6837 41.6489 75.5241C41.9634 75.4583 41.8761 75.4255 41.8936 75.1376C41.9389 74.389 41.0609 73.8696 40.4539 73.7294Z" fill="#231815"/>
<path d="M35.7084 65.4038C36.9148 65.9597 36.9081 66.4433 36.8559 67.6115C36.7911 69.0643 36.5734 70.4699 35.3534 71.3916C34.8186 71.7957 33.4859 72.4488 33.8665 73.3569C34.2765 74.3351 36.4044 72.4904 37.2258 73.1015C37.8919 73.5969 36.8451 73.6026 36.5064 73.6582C35.8198 73.7708 35.1606 74.0352 34.4615 74.0782C34.0401 74.1041 33.6747 74.1657 33.4964 73.8486C33.2628 73.4333 33.5005 72.5399 33.7162 72.2116C34.0201 71.7491 34.5417 71.5516 34.9342 71.1896C35.3423 70.8132 35.5592 70.3388 35.7104 69.8058C36.1314 68.324 35.7222 66.8918 35.7084 65.4038Z" fill="#231815"/>
<path d="M42.3131 73.7364C42.2925 73.1812 42.2087 72.6656 42.6586 72.6028C43.1018 72.5409 43.5089 72.9648 43.8656 73.149C44.2045 73.324 45.0329 73.3703 45.26 73.6764C45.3659 73.8194 45.4689 74.0642 45.217 74.2064C44.9517 74.3562 44.5625 73.8794 44.3134 73.752C43.71 73.4436 42.9367 73.5115 42.3131 73.7364Z" fill="#231815"/>
<path d="M15.4682 50.4485C15.578 50.5876 16.0074 49.9315 16.0377 49.8755C16.3138 49.3643 16.3712 48.7401 15.9452 48.289C15.2748 47.5788 13.9201 47.8065 13.2912 47.0755C12.6637 46.346 13.6355 45.0543 13.9202 44.3229C14.4249 43.0263 15.0787 41.8637 15.4696 40.5098C15.8948 39.037 16.1846 37.4812 16.834 36.0841C17.2501 35.1888 17.9366 34.4374 18.5504 33.6718C20.1838 31.6343 21.9455 29.709 23.5597 27.6549C25.5802 25.084 28.0458 22.7703 30.6133 20.7456C32.184 19.507 35.0493 18.8656 35.9588 16.9473C36.5529 15.6945 35.6972 14.3773 35.1283 13.2895C34.4283 11.9509 33.864 10.4093 33.6765 8.90183C33.4219 6.85543 34.4783 5.35793 36.4914 4.90137C37.2943 4.71933 38.1666 4.7009 38.9682 4.8998C39.2691 4.97449 39.58 5.07386 39.8424 5.24371C40.0235 5.36105 40.2443 5.75621 40.3929 5.82136C41.1396 6.14918 42.8661 5.29636 42.9722 4.50246C43.1052 3.50793 41.9155 2.51215 41.2018 2.01418C40.1852 1.30481 38.9721 0.909338 37.7504 0.746682C35.2411 0.41262 32.7919 1.06231 30.663 2.38856C28.634 3.65262 26.4768 5.63433 26.1955 8.14839C26.0441 9.50214 26.6777 10.6753 26.9577 11.9664C27.2822 13.4635 27.3182 15.0178 27.0751 16.5298C26.1201 22.4704 21.2896 26.1067 17.8683 30.6134C16.3433 32.6221 15.3693 35.1046 14.4577 37.4352C13.5804 39.6785 12.7907 41.9587 12.2501 44.3079C11.7555 46.4566 11.1583 48.7937 11.1646 51.0146C11.1679 52.1579 11.6305 53.0357 12.7755 53.3373C13.6626 53.5709 14.1227 52.9166 14.5674 52.2168C14.9213 51.6599 15.2146 51.0576 15.4682 50.4485Z" fill="#231815"/>
<path d="M43.3597 16.1476C42.2694 21.3885 49.1485 20.7824 52.2546 20.1077C56.3077 19.2271 61.2249 17.4829 65.3077 19.0198C64.8356 19.6588 64.1269 19.7398 64.0116 20.6315C63.9266 21.2884 64.1981 22.3932 65.0797 22.3195C65.4042 22.2923 65.9216 21.9009 66.2042 21.7609C66.9058 21.4132 67.6075 21.0657 68.3114 20.723C68.7988 20.4857 69.5769 20.2987 69.4263 19.632C69.2716 18.9471 68.1874 18.4473 67.6063 18.2577C66.4717 17.8877 65.2031 17.7724 64.0269 17.6124C62.5403 17.4102 61.0136 17.2113 59.51 17.2598C58.4617 17.2937 57.4247 17.5893 56.4053 17.8149C53.8977 18.3701 51.39 19.0632 48.8522 19.4665C46.2146 19.8855 43.6994 19.2041 43.3597 16.1476Z" fill="#231815"/>
<path d="M37.3066 8.90736C38.1062 9.0697 38.6362 8.05299 37.9087 7.59314C37.2298 7.16424 36.2174 8.19517 37.3066 8.90736Z" fill="#231815"/>
</g>
<defs>
<clipPath id="clip0_147_1563">
<rect width="79.9999" height="79.9999" fill="white"/>
</clipPath>
</defs>
</svg>
