<svg width="80" height="80" viewBox="0 0 80 80" fill="none" xmlns="http://www.w3.org/2000/svg">
<g clip-path="url(#clip0_141_304)">
<path d="M69.7001 41.6908C69.5652 41.1516 67.9477 40.4777 66.4649 39.8037C64.9821 39.1298 62.2862 37.2426 59.9948 36.299C57.7032 35.3554 57.1641 34.1423 55.5465 31.8507C53.929 29.5591 48.8066 21.741 48.1327 20.1235C47.4587 18.506 48.5371 15.2708 49.3459 14.3273C50.1546 13.3837 51.3326 9.9246 51.5026 9.4746C51.6727 9.0246 51.5026 7.8571 50.6938 6.50913C49.8851 5.16116 48.1327 3.13929 45.8412 3.40882C43.5496 3.67835 38.697 7.8571 38.023 8.93538C37.3491 10.0138 30.3398 15.9448 28.857 17.9666C27.3741 19.9885 19.1516 29.6938 16.8601 32.7941C14.5685 35.8944 11.1987 46.5433 11.3335 48.4305C11.4684 50.3177 11.603 50.7221 12.951 51.8004C14.299 52.8788 14.8382 51.8004 15.7816 50.8568C16.7252 49.9132 18.882 46.678 19.2863 45.1954C19.4705 44.5199 20.5223 43.1171 21.6763 41.7262C22.6307 47.9337 23.7087 55.5176 23.4651 56.2487C23.0607 57.4618 21.9823 60.4272 22.3866 62.5841C22.791 64.7408 23.7346 66.4932 24.813 67.1672C25.8915 67.8412 28.7221 66.628 29.5309 66.0888C30.3396 65.5496 32.4963 64.3365 32.766 62.5841C33.0357 60.8318 33.4399 60.2926 33.4399 60.2926L33.0355 58.8097C33.0355 58.8097 33.0571 58.7449 34.2487 58.6749C35.4402 58.6051 34.6235 60.5841 34.5182 61.9101C34.4129 63.2358 34.9226 64.2016 36.5401 64.606C38.1576 65.0104 40.3143 65.1452 42.3363 63.5277C44.3582 61.9102 44.6279 60.8318 44.493 60.023C44.3582 59.2143 44.8974 57.7315 44.8974 57.7315C44.8974 57.7315 48.537 54.6312 49.6152 50.0482C50.3816 46.791 50.3979 43.9462 50.1988 41.7965C51.7441 42.593 53.1199 43.3085 53.1199 43.3085C53.1199 43.3085 57.703 44.5216 59.0509 44.6565C60.3987 44.7913 66.4646 44.7913 67.543 44.2521C68.6216 43.7129 69.8349 42.2301 69.7001 41.6908Z" fill="white"/>
<path d="M49.3458 14.3273C48.5637 14.7487 46.7847 13.5186 46.7847 12.8445C46.7847 12.1706 49.5159 10.3726 50.4242 10.1486C51.3325 9.92452 52.5809 9.87905 53.794 10.6878C55.0072 11.4966 55.9508 12.575 56.7595 13.3837C57.5683 14.1925 55.9126 14.6901 55.2767 14.8666C54.6408 15.043 51.5023 14.1926 51.098 14.1926C50.6937 14.1925 49.3458 14.3273 49.3458 14.3273Z" fill="#F7B52C"/>
<path d="M24.8129 67.1673C25.3521 68.9196 24.139 72.5591 23.7345 73.3679C23.3301 74.1766 21.1734 75.7943 21.0385 76.603C20.9037 77.4118 20.6835 78.1588 21.8473 77.8162C22.9484 77.4919 25.6946 76.4543 26.1607 76.4682C26.6268 76.4821 27.6435 78.4901 28.8567 79.4337C30.0698 80.3773 30.2046 79.2988 29.6654 77.2769C31.2829 77.4118 31.674 76.871 32.4962 77.4118C33.3182 77.9526 34.7878 77.8162 34.1137 76.603C33.4398 75.3899 32.0918 74.0419 30.2046 73.7723C28.3174 73.5026 27.6435 72.1548 27.7782 70.1327C27.9131 68.1109 27.6434 66.8976 27.6434 66.8976L26.5649 65.954L24.5429 66.3584L24.8129 67.1673Z" fill="#F7B52C"/>
<path d="M36.675 65.2801C36.8099 66.8976 36.798 69.0634 36.2707 70.1328C35.7433 71.2022 34.6532 71.4808 34.2488 72.1547C33.8444 72.8287 33.44 73.7722 34.5183 73.7722C35.5967 73.7722 37.0794 72.8286 37.8882 73.0981C38.6969 73.3676 39.5057 73.7722 40.4492 74.7156C41.3928 75.6592 42.0667 76.1984 42.4711 75.6592C42.8755 75.12 43.4147 74.1764 42.4711 73.5025C41.5275 72.8286 42.5566 73.4936 43.5496 73.2329C44.4433 72.9984 46.4952 74.2737 46.2455 73.7722C45.9958 73.2706 46.515 72.8286 45.5714 72.2894C44.6278 71.7501 42.3363 70.9414 41.6624 70.537C40.9883 70.1326 40.3144 69.189 40.1796 68.1106C40.0447 67.0322 39.7752 65.0103 39.7752 65.0103C39.7752 65.0103 38.0228 65.1451 37.2141 64.8754C36.4053 64.6061 36.675 65.2801 36.675 65.2801Z" fill="#F7B52C"/>
<path d="M50.1269 8.33874C52.3637 6.83093 51.5828 4.17781 49.8925 2.5914C47.8787 0.7014 44.8615 -0.0440683 42.1644 0.00186923C39.4406 0.0484317 36.7078 0.992494 34.9662 3.17374C33.2073 5.37671 32.8162 8.28015 31.7798 10.8295C31.3301 11.9356 30.7484 12.9884 29.9414 13.8755C28.9622 14.9519 27.6714 15.6837 26.6316 16.6989C24.5784 18.7033 22.9084 21.1117 21.3241 23.492C18.4112 27.868 15.8403 32.3562 13.8973 37.2516C12.9566 39.6222 12.0978 42.0473 11.3584 44.4887C10.6995 46.6644 9.30593 50.7137 11.395 52.5387C12.053 53.1136 13.6186 53.4566 14.3711 52.7884C14.7692 52.435 14.61 52.5081 14.1578 52.4173C13.4148 52.2683 12.7 52.4961 12.0755 51.912C11.2042 51.0973 11.3334 49.5117 11.385 48.4292C11.46 46.8561 11.8336 45.3014 12.2667 43.7933C13.7633 38.5806 15.9444 33.3725 18.7814 28.7491C21.7016 23.99 24.7445 19.0386 29.2397 15.6187C31.7175 13.7336 32.7586 11.0378 33.767 8.19046C34.7401 5.44296 35.9651 2.82546 38.8101 1.62218C41.3883 0.531713 44.5978 0.775463 47.0511 2.07124C48.2664 2.71328 49.3206 3.66265 49.8606 4.95124C50.343 6.10249 50.157 7.14281 50.1269 8.33874Z" fill="#231815"/>
<path d="M54.641 15.0429C55.7415 15.2045 58.2635 15.1945 57.0885 13.4738C56.4055 12.4738 55.3002 11.4123 54.3323 10.6734C53.9812 10.4054 53.1104 9.78618 52.648 10.0649C51.924 10.5015 52.8807 11.1621 53.2633 11.4177C54.3429 12.1391 55.4016 12.5966 56.3482 13.544C57.7149 14.9116 55.3358 14.6671 54.4718 14.5132C52.8899 14.2316 51.1069 13.6573 49.4879 13.8977C49.1985 13.9407 48.0891 14.2896 48.5637 14.7488C48.8354 15.0118 50.1216 14.5998 50.3985 14.581C51.8198 14.4846 53.2451 14.834 54.641 15.0429Z" fill="#231815"/>
<path d="M47.8667 11.891C48.5106 11.4516 49.2326 11.0293 49.9773 10.7866C50.4539 10.6315 51.3711 10.6366 51.3323 9.92459C51.2487 8.38959 48.6739 10.7688 48.3 11.0197C47.7337 11.3999 45.4047 12.5641 46.6022 13.4726C46.8361 13.6501 47.3831 13.7958 47.4603 13.3474C47.5437 12.8622 47.3231 13.1347 47.2273 12.9046C47.1287 12.668 46.9784 13.1163 47.0178 12.6113C47.0356 12.3818 47.7103 11.9985 47.8667 11.891Z" fill="#231815"/>
<path d="M48.1103 28.9805C47.8661 30.0645 48.0806 30.8456 48.4314 31.8502C48.8114 32.938 49.0499 34.088 49.3238 35.2056C49.9152 37.618 50.66 40.2017 50.8352 42.6897C51.1614 47.3227 49.7988 52.5603 46.825 56.1852C46.0588 57.1192 45.1561 57.75 44.0035 58.1305C43.4977 58.2974 42.9158 58.4542 42.3767 58.4269C41.3003 58.3724 41.9588 57.7777 42.5955 57.5772C43.8188 57.1919 44.8828 57.2677 45.8813 56.3292C46.8391 55.4289 47.5847 54.2285 48.0714 53.0174C49.0296 50.6341 49.1774 48.1566 49.5603 45.6528C49.9099 43.3674 50.221 41.081 49.7327 38.796C49.1863 36.2383 48.5386 33.7595 47.153 31.548C46.6045 30.6727 45.8916 29.513 46.6167 28.4933C46.8022 28.2325 47.3547 27.7778 47.7052 27.86C48.1903 27.9736 47.8703 28.5045 48.1103 28.9805Z" fill="#231815"/>
<path d="M29.3589 34.3495C29.2332 35.5601 28.8045 36.2009 27.8328 36.8364C26.5786 37.6567 25.4181 38.7014 24.2926 39.6848C23.2103 40.6304 22.1048 41.5607 21.2497 42.7253C20.1017 44.2884 19.1712 46.0145 18.144 47.6571C17.3632 48.9057 16.5582 50.451 15.4117 51.412C15.0195 51.7407 14.0201 52.1993 14.6173 51.3514C14.9609 50.8635 15.4818 50.4476 15.8611 49.9818C18.0942 47.2398 19.7993 44.0878 21.8531 41.2139C22.8892 39.764 24.2343 38.5601 25.5776 37.3978C26.804 36.3367 27.9964 35.2365 29.3589 34.3495Z" fill="#231815"/>
<path d="M44.4978 55.5088C45.6847 56.3166 45.59 57.0286 45.4256 58.2293C45.1987 59.8861 44.6203 61.6378 43.4136 62.8374C42.164 64.0794 40.5109 64.9791 38.7426 65.1596C37.5419 65.2821 34.6317 64.8964 34.4236 63.2363C34.3023 62.2683 34.9237 63.0994 35.2006 63.4039C35.7219 63.9774 36.3653 64.3746 37.1187 64.5703C38.7964 65.0064 40.7322 64.4866 42.0812 63.4358C44.4934 61.5569 44.3303 58.2322 44.4978 55.5088Z" fill="#231815"/>
<path d="M37.1737 57.6165C37.3568 58.2288 37.4682 58.6722 36.9843 58.9249C36.5225 59.1661 35.6601 59.0601 35.1812 59.0096C34.22 58.9083 33.0351 58.9038 32.18 58.8549C31.9217 58.84 31.4056 58.7272 31.6722 58.2899C31.9504 57.8333 33.0048 58.3791 33.3914 58.4416C34.7298 58.6577 35.9889 58.1691 37.1737 57.6165Z" fill="#231815"/>
<path d="M32.7139 59.1976C35.0972 59.8029 33.1033 62.984 32.1709 64.1439C30.8803 65.7494 28.3234 67.9623 26.2175 66.1475C25.9672 65.9319 25.5331 65.3837 26.0862 65.3634C26.3831 65.3525 26.9689 65.8828 27.2545 65.9998C28.4098 66.4736 29.6134 66.1617 30.5415 65.3615C32.1573 63.9686 32.9061 61.254 32.7139 59.1976Z" fill="#231815"/>
<path d="M22.2225 61.0786C21.6144 61.6152 21.1942 62.2874 20.5217 61.5038C20.2489 61.186 20.1484 60.7663 20.0836 60.3631C19.8439 58.8716 20.0349 57.2813 20.0194 55.7774C19.9905 52.9469 19.7125 50.1289 19.2097 47.3436C19.1019 46.7466 18.988 46.4327 19.1778 45.8969C19.3631 45.3739 19.6681 44.8586 19.9291 44.3705C20.2624 43.7471 20.6372 43.2096 21.0856 42.6694C22.465 41.0075 23.9174 39.3533 25.5433 37.9271C26.4242 37.1542 27.4052 36.3417 27.1549 38.0263C26.5306 42.2283 24.5478 46.1903 23.7 50.3589C22.9809 53.8949 22.7322 57.5105 22.2225 61.0786Z" fill="#231815"/>
<path d="M21.7921 56.5013C22.9377 56.8332 23.012 57.2006 22.9623 58.2356C22.9104 59.3167 22.7276 60.3929 22.6838 61.4706C22.6346 62.6845 22.8324 64.1496 23.4445 65.2157C23.6193 65.5202 25.2538 67.0217 24.1152 66.7479C22.236 66.2962 22.3645 62.4482 22.1193 61.0302C21.8702 59.5906 21.8743 57.9648 21.7921 56.5013Z" fill="#231815"/>
<path d="M27.5301 66.9678C27.837 67.2445 28.3506 67.6901 28.4281 68.1357C28.4983 68.5389 28.265 69.0681 28.2472 69.4914C28.1939 70.7584 28.587 72.1542 29.5276 73.0465C30.5765 74.0415 32.1197 74.1992 33.2844 75.0092C33.6983 75.297 35.292 77.2684 34.1958 77.7173C33.7053 77.9181 33.8647 77.3497 33.829 77.0059C33.7625 76.3634 33.5587 75.9051 33.0586 75.4792C31.9726 74.5545 30.4565 74.2545 29.304 73.4025C27.2879 71.9117 26.8656 69.3137 27.5301 66.9678Z" fill="#231815"/>
<path d="M24.9034 76.3309C25.6738 75.8834 26.1231 75.8306 26.6375 76.482C27.1663 77.1517 27.7234 77.8036 28.2728 78.4565C28.4984 78.7248 29.5017 79.8668 29.94 79.55C30.2067 79.3572 29.9195 78.0625 29.8373 77.8168C29.687 77.3675 29.3781 77.1567 29.1578 76.7786C28.8713 76.2867 29.0069 76.0576 29.5484 76.3326C29.9466 76.5348 30.1922 77.1342 30.3073 77.5193C30.4848 78.1128 30.4798 78.7568 30.3919 79.3653C30.3194 79.8673 30.3533 79.9561 29.9394 79.9964C29.2298 80.0654 27.9033 79.0842 27.4084 78.6522C26.5553 77.9073 25.7353 77.1015 24.9034 76.3309Z" fill="#231815"/>
<path d="M31.2952 77.6973C31.4213 77.1819 31.4714 76.6201 31.8922 76.6489C32.3127 76.6776 32.6013 77.1379 32.9353 77.3297C33.2538 77.5123 34.0569 77.5887 34.2622 77.8864C34.3628 78.0322 34.4388 78.2925 34.1831 78.417C33.91 78.5501 33.5752 78.0923 33.3291 77.9525C32.7383 77.6169 31.9572 77.6522 31.2952 77.6973Z" fill="#231815"/>
<path d="M24.5928 67.1456C25.878 67.6273 25.7406 68.2419 25.4797 69.3452C25.2116 70.4788 24.8128 71.6742 24.4381 72.7395C24.1563 73.5408 23.4808 74.2139 22.9252 74.8327C22.4444 75.3681 21.445 76.1067 21.2255 76.8123C21.1044 77.202 21.7156 78.3283 20.9013 77.8477C19.4945 77.0174 22.2363 74.9275 22.7502 74.4383C23.6997 73.5344 23.765 72.7314 24.0197 71.5114C24.3345 70.0027 24.5869 68.6883 24.5928 67.1456Z" fill="#231815"/>
<path d="M25.3695 76.4811C25.1074 77.6114 25.1627 77.6698 24.1099 77.4595C23.6714 77.372 23.3892 77.2915 22.9589 77.4919C22.6317 77.6442 22.2933 78.2723 22.013 78.3369C21.6547 78.4194 21.4939 78.215 21.5916 77.9161C21.7192 77.5255 22.5311 77.2361 22.8591 77.1031C23.6997 76.762 24.4377 76.5126 25.3695 76.4811Z" fill="#231815"/>
<path d="M39.5138 64.8395C40.5527 65.2528 40.708 65.6518 40.6057 66.6599C40.4968 67.7343 40.5499 69.1654 41.2983 70.0296C42.2571 71.1367 46.9199 71.1667 46.5996 73.285C46.4947 73.9781 46.2497 73.615 46.0063 73.2707C45.705 72.8448 45.5941 72.475 45.1163 72.1643C43.9746 71.4223 42.5072 71.404 41.3588 70.636C39.4446 69.3565 39.5204 66.9376 39.5138 64.8395Z" fill="#231815"/>
<path d="M40.9669 73.5919C41.4859 72.4175 42.3223 72.7819 42.8614 73.6538C43.1089 74.0542 43.7083 75.7961 43.0203 76.1719C42.4661 76.4745 40.7911 75.1311 40.3853 74.8523C39.8634 74.4939 39.3414 74.1016 38.7508 73.86C38.4598 73.7411 37.8611 73.7261 37.643 73.4795C36.8237 72.5544 39.1363 73.428 39.375 73.5772C39.9711 73.9502 41.41 75.5892 42.1884 75.4263C42.51 75.3589 42.4206 75.3255 42.4384 75.0311C42.4845 74.2659 41.5872 73.7352 40.9669 73.5919Z" fill="#231815"/>
<path d="M36.1166 65.0822C37.3497 65.6504 37.3427 66.1447 37.2894 67.3386C37.2232 68.8234 37.0007 70.2601 35.7538 71.2023C35.2071 71.6154 33.8449 72.2829 34.234 73.2111C34.653 74.2107 36.8277 72.3253 37.6676 72.9498C38.3483 73.4562 37.2785 73.462 36.9322 73.5189C36.2305 73.634 35.5566 73.9042 34.8422 73.9482C34.4116 73.9748 34.038 74.0376 33.8557 73.7137C33.6169 73.2893 33.8599 72.3761 34.0804 72.0406C34.391 71.5679 34.9241 71.3661 35.3252 70.9961C35.7422 70.6114 35.9641 70.1264 36.1187 69.5817C36.549 68.0668 36.1305 66.6031 36.1166 65.0822Z" fill="#231815"/>
<path d="M42.867 73.5988C42.8459 73.0315 42.7604 72.5044 43.2201 72.4402C43.6732 72.3769 44.0892 72.8102 44.4539 72.9985C44.8003 73.1774 45.6471 73.2246 45.879 73.5374C45.9873 73.6835 46.0924 73.9338 45.8351 74.0791C45.5639 74.2322 45.166 73.7449 44.9117 73.6147C44.2948 73.2996 43.5045 73.369 42.867 73.5988Z" fill="#231815"/>
<path d="M15.4291 49.7968C15.5683 49.9731 16.0955 49.044 16.1122 49.0015C16.3549 48.3871 16.2377 47.8034 15.6871 47.4163C14.9275 46.8826 13.091 46.9481 12.9897 45.8121C12.941 45.2653 13.3863 44.5721 13.6024 44.0903C13.883 43.4648 14.0779 42.8218 14.4138 42.2228C15.3149 40.6157 15.6413 38.774 16.155 37.0171C16.8682 34.5787 18.3866 32.8265 20.0057 30.929C22.2255 28.3276 24.3374 25.6443 26.6558 23.1321C28.3102 21.3393 30.0483 18.8163 32.3274 17.7798C34.5389 16.7738 37.5735 18.0309 39.6189 16.5643C40.8852 15.6565 40.6094 13.8859 40.6013 12.5381C40.5918 10.9685 40.8049 9.21119 41.4124 7.75181C42.3988 5.38181 44.931 5.13275 47.0194 6.24056C47.918 6.71713 48.3189 7.26088 48.8071 8.08681C49.0566 8.509 49.3563 8.59431 49.9582 8.71853C52.7805 9.30166 51.9949 6.19322 50.9597 4.67572C47.9266 0.228532 40.6864 -0.517405 36.3644 2.4265C35.3827 3.09525 34.5885 4.01603 34.2377 5.16525C33.9338 6.16088 33.8738 7.09447 33.3866 8.04385C32.218 10.3215 30.3625 12.2635 28.621 14.1087C24.868 18.0848 20.3569 21.7412 18.7296 27.1709C18.4886 27.9748 18.3124 28.7992 17.8741 29.5248C17.1924 30.6535 16.4982 31.7323 15.9271 32.9292C14.6297 35.6476 13.536 38.5099 12.685 41.4001C11.9116 44.0271 11.343 46.8079 11.0843 49.5356C10.9841 50.5909 10.9479 51.8187 11.9586 52.4523C12.9819 53.0935 13.6657 52.8059 14.3193 51.8893C14.7757 51.249 15.1274 50.521 15.4291 49.7968Z" fill="#231815"/>
<path d="M44.597 9.76429C45.2542 10.2774 46.2026 9.58897 45.7469 8.83679C45.3214 8.13491 43.9253 8.61616 44.597 9.76429Z" fill="#231815"/>
<path d="M47.739 20.1636C50.489 21.7962 51.5693 24.7187 53.0615 27.3678C54.1117 29.2322 55.184 31.1409 56.5464 32.7986C57.9159 34.465 59.5954 35.6875 61.4676 36.7347C63.0857 37.6397 64.746 38.4631 66.3182 39.4484C67.5396 40.2137 70.4432 40.6248 69.4285 42.5964C68.4217 44.5528 66.6146 44.9406 64.5703 44.9137C62.5245 44.8869 60.4634 44.9834 58.4312 44.7017C56.5145 44.4359 54.655 43.8958 52.8467 43.2164C51.9965 42.897 51.1464 42.5614 50.3295 42.1628C49.9439 41.9747 48.5328 41.4453 48.3845 40.9745C48.3026 40.7145 48.3125 40.8331 48.6098 40.832C49.2825 40.8297 50.2115 41.4444 50.8045 41.7042C52.6923 42.5314 54.6057 43.3053 56.6106 43.8023C58.6875 44.3173 60.7114 44.3873 62.8356 44.4089C64.8887 44.4297 67.1689 44.8986 68.6126 43.0873C69.0862 42.4933 69.6684 41.7062 68.8957 41.124C68.191 40.5931 67.1914 40.4369 66.4212 39.9854C64.9898 39.1465 63.5621 38.4209 62.05 37.7453C58.2298 36.0386 55.7257 33.5256 53.5381 30.03C51.5148 26.7969 49.6464 23.4656 47.739 20.1636Z" fill="#231815"/>
</g>
<defs>
<clipPath id="clip0_141_304">
<rect width="80" height="80" fill="white"/>
</clipPath>
</defs>
</svg>
