<svg width="100" height="100" viewBox="0 0 100 100" fill="none" xmlns="http://www.w3.org/2000/svg">
<g clip-path="url(#clip0_288_5276)">
<path d="M58.089 27.3899C58.0544 27.3224 57.823 27.3595 57.3402 27.5712C56.8628 27.7878 56.135 28.1939 55.1967 28.92C53.3144 30.3783 51.6266 32.1993 49.8978 33.6478C48.1674 35.1266 46.5206 36.4404 45.3186 37.3897C42.9165 39.2905 40.4837 41.1803 36.996 44.2218C36.1251 44.9775 35.035 45.9857 33.8136 47.0809C32.5923 48.1783 31.2285 49.35 29.7826 50.4136C29.4222 50.6808 29.054 50.9369 28.686 51.1905C28.3004 51.454 27.9139 51.7234 27.5407 51.9976C26.7916 52.546 26.0775 53.1113 25.412 53.6745C24.0793 54.7998 22.9455 55.9186 22.0759 56.8464C21.1421 57.8508 20.9091 58.4244 21.029 58.6513C21.1528 58.8825 21.6387 58.787 22.2134 58.5362C22.79 58.2866 23.1441 58.2321 23.5282 57.9517C23.9178 57.6749 24.3257 57.1722 25.1022 56.0783C25.8834 54.9855 27.092 53.901 28.3671 52.9987C28.6855 52.7728 29.0069 52.556 29.3259 52.3506C29.6453 52.1388 29.9705 51.9349 30.2711 51.7274C30.8789 51.3177 31.4252 50.9157 31.8766 50.5509C32.79 49.8316 34.5632 48.1931 36.189 46.5716C37.8175 44.9508 39.3973 43.4353 39.9748 42.9367C40.5393 42.4242 42.7104 40.5636 45.0023 38.7655C47.2914 36.966 49.6354 35.1416 50.3697 34.5213C51.1191 33.9214 52.2468 32.8609 53.3595 31.7463C54.4746 30.6316 55.6511 29.517 56.5585 28.802C57.45 28.0723 58.1623 27.536 58.089 27.3899Z" fill="white"/>
<path d="M92.6837 34.5817C92.4038 34.6869 91.8251 34.9369 90.9985 35.4363C90.1713 35.9326 89.1138 36.7033 87.8762 37.7599C87.263 38.2856 86.5858 38.8661 85.8439 39.5021C85.1064 40.1273 84.2787 40.7817 83.3753 41.488C81.568 42.8975 79.6409 44.361 77.7262 45.9092C75.8106 47.4542 73.9098 49.0953 72.1258 50.7876C70.3409 52.474 68.6424 54.1644 66.9325 55.6384C66.0789 56.3764 65.224 57.0623 64.3713 57.6802C63.5284 58.2872 62.6386 58.8625 61.8495 59.4618C61.8495 59.4618 60.9578 60.222 59.8821 61.2871C59.0183 62.1303 58.058 63.1772 57.2563 64.1098C56.8987 64.026 56.4797 63.9461 55.9848 63.8748C53.6374 63.5414 51.9832 63.3139 50.2425 62.9962C48.5052 62.683 46.6865 62.2457 43.9806 61.6253C41.127 60.9694 37.9437 60.3707 35.1616 59.8878C32.3782 59.4062 29.9861 59.1004 28.747 58.8793C27.5084 58.6528 25.9334 58.5361 24.705 58.6423C23.475 58.7415 22.6069 59.0583 22.7485 59.5519C22.8641 59.9648 23.8454 60.1445 25.0074 60.2362C26.1707 60.33 27.5236 60.3479 28.3898 60.2842C29.2537 60.2149 32.274 60.3476 35.5686 60.7994C38.8647 61.236 42.4235 61.9111 44.3958 62.4307C46.3731 62.9348 48.5426 63.4747 50.6014 63.8836C52.6551 64.2953 54.5698 64.6594 56.0129 64.9953C56.1615 65.0291 56.3059 65.0578 56.4474 65.0837C55.8043 65.9107 55.8676 66.0555 56.7409 65.2396C56.7721 65.211 56.8074 65.1781 56.8407 65.1473C57.1898 65.1957 57.5076 65.2187 57.7839 65.2198C57.8002 65.2737 57.8626 65.3428 57.977 65.4233C58.2879 65.6572 58.9656 65.9952 59.846 66.962C60.2806 67.4503 60.5267 67.862 60.6904 68.1723C60.8588 68.4809 60.9369 68.7004 60.9995 68.8623C61.116 69.193 61.1445 69.3152 61.3567 69.7085C61.565 70.1031 61.8062 70.6663 61.9993 71.3812C62.1822 72.0939 62.3317 72.9669 62.2638 73.9208C62.1967 74.8702 62.0756 75.5179 61.9475 75.9936C61.8143 76.465 61.6718 76.7578 61.531 76.9049C61.4615 76.9783 61.4718 77.0042 61.5607 76.9684C61.646 76.9297 61.8301 76.8425 62.0461 76.6294C62.498 76.2298 63.0652 75.2739 63.1868 73.8411C63.3133 72.4116 63.0037 70.8672 62.4673 69.4846C61.9298 68.0976 61.1522 66.8638 60.2968 65.9654C60.2968 65.9654 60.2197 65.9137 60.0853 65.8379C59.9557 65.7581 59.7696 65.6546 59.5523 65.5542C59.2123 65.3894 58.7971 65.2533 58.4328 65.17C58.629 65.132 58.7693 65.0746 58.835 64.9999C58.9933 64.8267 58.7114 64.531 57.7957 64.2528C58.1577 63.9141 58.579 63.5232 59.0742 63.0754C60.1729 62.0919 61.619 60.8436 63.5665 59.4619C65.5721 58.1053 66.9322 56.97 67.9108 56.1401C68.8912 55.3004 69.5179 54.7427 69.9947 54.3227C70.9469 53.4817 71.2956 53.1782 72.4306 52.0367C73.5623 50.8943 75.1292 49.3934 77.1426 47.6874C79.1457 45.9703 81.6004 44.0756 84.3073 41.9162C85.6605 40.8369 86.7569 39.829 87.648 38.9543C88.545 38.0805 89.2787 37.3587 89.9135 36.7783C91.182 35.6192 92.0371 35.0103 92.6449 34.677C92.9491 34.5118 92.9635 34.4749 92.6837 34.5817Z" fill="white"/>
<path d="M77.0512 37.006C76.7809 36.9453 76.0796 36.8853 75.1543 36.8001C74.229 36.7108 73.0754 36.6034 71.9039 36.3494C71.5183 36.264 70.5655 36.0533 69.3374 35.7815C68.1037 35.5039 66.5834 35.2208 65.0779 34.9551C62.0642 34.4167 59.0819 34.0958 58.5541 33.9611C58.1182 33.8486 57.6498 34.0768 57.6252 34.3465C57.5998 34.6173 57.5746 34.8861 58.5063 34.9114C58.9721 34.927 60.9752 35.0689 63.5485 35.4102C64.8352 35.5798 66.2657 35.8031 67.7215 36.0501C69.1696 36.297 70.6442 36.623 72.0452 36.8651C72.5809 36.9632 73.6709 37.1809 74.6945 37.39C75.7193 37.5982 76.6727 37.822 76.9569 37.8885C77.5263 38.0175 77.6516 37.9163 77.7375 37.5861C77.8233 37.2601 77.5912 37.1254 77.0512 37.006Z" fill="white"/>
<path d="M67.0246 42.2476C67.5607 42.3459 68.6506 42.5635 69.6742 42.7727C70.6991 42.9808 71.6525 43.2047 71.9367 43.2712C72.506 43.4002 72.6313 43.2992 72.7173 42.9688C72.8032 42.6428 72.5712 42.5081 72.0311 42.3887C71.7608 42.328 71.0592 42.268 70.1342 42.1828C69.2089 42.0935 68.0552 41.9861 66.8838 41.7321C66.4982 41.6466 65.5454 41.4359 64.3174 41.1642C63.0836 40.8866 61.563 40.6034 60.0578 40.3377C57.0438 39.7994 54.0619 39.4785 53.534 39.3438C53.0981 39.2313 52.6297 39.4595 52.6048 39.7292C52.5797 40 52.5545 40.2688 53.4862 40.2939C53.952 40.3097 55.9551 40.4516 58.5284 40.7929C59.8151 40.9626 61.2456 41.1858 62.7014 41.4328C64.1492 41.6795 65.6241 42.0055 67.0246 42.2476Z" fill="white"/>
<path d="M60.6115 50.8114C60.6974 50.4847 60.5558 50.3748 60.2171 50.2999C60.0477 50.2619 59.603 50.2556 59.0233 50.2346C58.4419 50.2085 57.7272 50.1814 56.9991 50.0144C56.7593 49.9638 56.1679 49.8384 55.4049 49.6767C54.6442 49.5091 53.705 49.3256 52.7692 49.1658C50.8999 48.8333 49.0511 48.6279 48.7269 48.5133C48.4588 48.4179 48.1588 48.6618 48.134 48.9317C48.1085 49.2022 48.0832 49.4719 48.6606 49.4614C48.9496 49.4583 50.1867 49.5262 51.7791 49.7112C52.5751 49.8036 53.4611 49.9255 54.3651 50.0647C55.2688 50.2153 56.1897 50.3688 57.054 50.5128C57.7209 50.625 59.7439 51.0786 60.0863 51.1746C60.4361 51.2539 60.5256 51.1408 60.6115 50.8114Z" fill="white"/>
<path d="M56.2455 53.0126C55.6641 52.9867 54.9494 52.9595 54.2214 52.7926C53.9816 52.7418 53.3899 52.6165 52.6272 52.4548C51.8664 52.2873 50.9272 52.1035 49.9915 51.9439C48.1222 51.6113 46.2734 51.4061 45.9493 51.2913C45.6811 51.1959 45.3808 51.4399 45.356 51.7099C45.3308 51.9804 45.3057 52.2498 45.8829 52.2396C46.1719 52.2363 47.4091 52.3042 49.0011 52.4894C49.7974 52.5818 50.6834 52.7035 51.5874 52.8427C52.4911 52.9933 53.4117 53.1468 54.2763 53.2908C54.9434 53.403 56.9662 53.8566 57.3086 53.9527C57.6585 54.032 57.748 53.9189 57.834 53.5895C57.9199 53.2629 57.7783 53.153 57.4396 53.078C57.2697 53.0399 56.8253 53.0336 56.2455 53.0126Z" fill="white"/>
<path d="M97.2323 34.2495C97.2323 34.2495 97.2115 34.2354 97.1696 34.2142C97.1275 34.1936 97.0661 34.1642 96.9899 34.1273C96.913 34.0915 96.8252 34.0457 96.7223 34.0023C96.6176 33.9645 96.5011 33.9227 96.3779 33.8783C96.1038 33.7864 95.7933 33.7312 95.4938 33.7013C95.5952 33.4059 95.3778 32.9869 94.847 32.8466C94.4082 32.7269 92.6756 32.4752 90.9215 32.2513C89.1655 32.0233 87.3844 31.7756 86.8263 31.5672C85.7143 31.1734 82.4614 30.8386 81.8476 30.8425C81.2371 30.8506 80.9296 30.4418 80.3545 30.2969C79.7788 30.152 79.0971 30.4779 78.8793 30.0975C78.6611 29.7144 77.8179 29.8476 77.4658 30.096C77.112 30.3462 76.6651 29.588 75.8912 29.4228C75.5053 29.3378 73.4371 28.8488 71.272 28.4242C69.11 27.986 66.8415 27.6595 66.1479 27.5815C65.4545 27.505 64.2245 27.5328 63.0007 27.6175C61.7764 27.7019 60.5621 27.8221 59.869 27.8269C59.569 27.8247 59.0929 28.4601 59.6801 28.4644C60.2664 28.4708 60.8542 28.4606 62.4169 28.5441C63.9838 28.6164 66.7856 29.0568 69.2208 29.2941C71.6622 29.503 75.1592 30.0762 75.6387 30.1856C76.1197 30.2885 76.5358 30.7076 76.9515 30.6369C77.3698 30.5641 78.003 30.8739 78.479 30.9875C78.9549 31.1018 79.4673 31.0623 80.0396 31.2064C80.6117 31.3507 80.9558 31.6035 81.5287 31.7503C82.0984 31.9002 85.5654 32.2932 86.8282 32.5491C87.4568 32.6902 89.2542 33.0201 90.9976 33.33C92.4989 33.5939 93.9507 33.8735 94.6098 33.9735C94.6382 33.9878 94.6665 34.0022 94.7023 34.0168C95.0746 34.1918 95.9015 34.3442 96.8684 35.293C97.3397 35.7818 97.5901 36.2228 97.7516 36.5542C97.9109 36.8892 97.9902 37.12 98.0416 37.2982C98.0928 37.4757 98.1281 37.597 98.1666 37.73C98.2113 37.861 98.2667 38.0009 98.3573 38.2212C98.5416 38.6588 98.7482 39.281 98.8873 40.064C99.0292 40.8451 99.1022 41.788 99.0159 42.8231C98.9178 43.8539 98.8368 44.5738 98.7553 45.1003C98.7378 45.2149 98.7203 45.3163 98.7026 45.413C98.4198 45.3072 97.8561 45.5042 97.0343 46.3096C96.5222 46.8245 96.1477 47.2015 95.3139 48.0401C94.8968 48.4524 94.3725 48.9805 93.6543 49.673C92.936 50.3693 92.0166 51.2055 90.7526 52.234C88.0672 54.4324 84.0743 57.4135 80.8584 60.2791C79.2419 61.7046 77.8268 63.0825 76.7145 64.1288C75.6059 65.1797 74.8024 65.9043 74.5213 66.1559C73.9205 66.6935 73.2964 67.2183 72.6738 67.7065C72.2353 68.049 71.586 68.5401 70.825 69.062C70.4354 69.3219 70.0217 69.5977 69.6003 69.8788C69.1745 70.1667 68.7458 70.4693 68.3291 70.7734C66.6562 71.9837 65.2084 73.261 64.7167 73.593C64.0469 74.0386 63.3201 74.726 62.9052 75.392C62.4869 76.0568 62.3837 76.6892 62.8858 77.0101C63.299 77.2758 63.8792 76.9726 64.4283 76.4988C64.9791 76.0248 65.511 75.3799 65.7846 74.9007C65.9617 74.5873 67.2035 73.2156 68.7441 71.8797C69.5115 71.2024 70.3456 70.56 71.1177 69.9749C71.8872 69.3843 72.534 68.8384 72.948 68.467C73.8248 67.6889 74.6338 66.9411 75.2141 66.4644C75.4266 66.2906 76.1879 65.6136 77.269 64.6032C78.353 63.5964 79.7503 62.2507 81.3451 60.8575C84.5235 58.0507 88.5343 55.0873 91.2874 52.8943C92.6446 51.8224 93.6748 50.9103 94.4679 50.1828C95.263 49.4545 95.8465 48.9213 96.3042 48.5283C97.2176 47.7411 97.5997 47.4789 97.9664 47.2101C98.5952 46.7551 98.9184 46.1688 98.9157 45.7809C98.9258 45.7667 98.9353 45.7559 98.9456 45.7411C99.3136 45.2347 99.7737 44.2404 99.939 42.754C100.101 41.2703 99.9405 39.6199 99.4895 38.0956C99.0355 36.5757 98.2641 35.1652 97.2323 34.2495Z" fill="white"/>
<path d="M57.495 66.8957C56.8139 66.8588 55.6278 66.5609 50.6318 65.7297C45.3012 64.843 35.4769 63.127 34.3176 62.926C33.6984 62.8184 33.0718 62.7035 32.4637 62.5842C30.7527 62.2475 24.7228 61.3795 24.2856 61.198C23.6927 60.9524 22.7595 60.8379 22.7248 61.404C22.6961 61.8669 23.6313 62.0377 24.0874 61.9738C24.3861 61.9321 30.4415 63.0431 32.1427 63.2343C33.0392 63.3352 33.8811 63.4581 34.4464 63.5879C35.2733 63.7772 45.1554 65.518 50.4998 66.4912C55.7563 67.4479 57.0176 67.5141 57.4443 67.6161C58.3059 67.8215 58.9021 66.9715 57.495 66.8957Z" fill="white"/>
<path d="M24.1678 64.2432C24.4808 64.2003 30.8626 65.288 32.6528 65.4727C33.5962 65.5699 34.4831 65.6896 35.0791 65.8174C35.9513 66.0037 46.3647 67.7064 51.9968 68.6593C57.5364 69.5959 58.8618 69.6569 59.3125 69.7573C60.2215 69.9598 60.8299 69.106 59.3503 69.036C58.6345 69.002 57.3829 68.7081 52.1197 67.8963C46.5039 67.03 36.1518 65.3518 34.9304 65.1553C34.2778 65.0502 33.6176 64.9374 32.9763 64.8206C31.1725 64.4904 24.8228 63.6456 24.3598 63.4657C23.9293 63.2986 23.332 63.1942 22.9913 63.3279C22.9916 63.3225 22.9916 63.3159 22.9918 63.3106C23.0472 62.2241 22.1077 61.6807 22.2735 63.4008C22.305 63.7276 22.3101 64.1576 22.3066 65.0229C22.3033 65.9283 22.2982 67.2728 22.2902 69.372C22.0734 69.5516 21.8856 69.7709 21.7607 70.0295C21.6577 70.2316 21.6121 70.4631 21.6108 70.7086C21.6175 70.8311 21.6354 70.9588 21.6614 71.0844C21.6999 71.2066 21.7489 71.3375 21.7949 71.4526L21.8122 71.4709C21.894 71.5555 21.9841 71.6482 22.0822 71.7493C22.1328 71.7976 22.199 71.8448 22.2593 71.8948C22.2924 71.9187 22.3178 71.9471 22.3586 71.9684C22.4036 71.9874 22.4491 72.0068 22.4957 72.0264C22.5899 72.0647 22.6795 72.1088 22.7837 72.1451C22.8938 72.1764 23.0074 72.2085 23.1239 72.2415C23.3542 72.3142 23.5988 72.3548 23.8491 72.4172C24.1475 72.4743 24.4723 72.5364 24.8182 72.6026C25.1515 72.6634 25.5056 72.7277 25.8755 72.795C27.344 73.0548 29.0666 73.3594 30.7515 73.6573C34.114 74.245 37.3209 74.8016 38.0502 74.9088C38.7799 75.0119 42.062 75.4754 45.3747 75.9431C48.689 76.3907 52.0339 76.8422 52.8853 76.9571C54.5887 77.1801 56.779 77.4671 57.9959 77.6263C59.2148 77.7848 61.8371 76.6004 59.9391 75.979C58.0422 75.3574 55.2094 75.6866 52.6706 74.8406C51.7242 74.5263 47.6862 75.1235 45.7412 74.8542C43.796 74.5902 38.9672 73.7174 37.2414 73.6499C36.3784 73.6184 34.0325 73.1298 31.8193 72.613C29.6043 72.0995 27.5304 71.5442 27.1723 71.4762C26.9432 71.4333 26.2995 71.3128 25.495 71.1623C25.2958 71.1224 25.0864 71.0804 24.8711 71.0372C24.6675 70.994 24.4582 70.9494 24.247 70.9045L23.9622 70.8414C23.8705 70.8167 23.7696 70.7982 23.6871 70.744C23.6235 70.6516 23.6153 70.5299 23.6596 70.4378C23.7011 70.345 23.7673 70.2696 23.8364 70.208C23.9713 70.0909 24.0634 70.0229 24.2425 69.9175C24.5846 69.9658 24.9549 70.0179 25.3419 70.0724C31.9205 70.9797 44.0502 72.7332 45.4813 72.9388C46.2462 73.0486 47.0201 73.1662 47.7717 73.2878C49.8868 73.6314 57.3193 74.5215 57.8663 74.7053C58.6078 74.954 59.757 75.0718 59.7607 74.5029C59.7641 74.0378 58.6091 73.8632 58.0561 73.926C57.6935 73.967 50.2132 72.8325 48.1201 72.6353C47.0172 72.5313 45.9793 72.4051 45.2792 72.273C44.2553 72.0803 32.0529 70.3014 25.4516 69.3072C25.1441 69.2617 24.85 69.2182 24.5735 69.1772C24.5036 69.0661 24.3851 68.9632 24.206 68.8913C24.0643 68.8352 23.8897 68.7957 23.6823 68.7939C23.5966 68.78 23.4059 68.8332 23.235 68.878C23.1842 68.894 23.1293 68.9152 23.0754 68.9345C23.0682 68.1434 23.062 67.4768 23.0564 66.9071C23.3823 67.0601 23.8719 67.109 24.1672 67.0682C24.4801 67.0253 30.862 68.113 32.6522 68.2975C33.5955 68.3947 34.4824 68.5148 35.0785 68.6424C35.9507 68.8286 46.3641 70.5313 51.9962 71.4842C57.5358 72.4209 58.8612 72.4817 59.3119 72.5822C60.2209 72.7846 60.8292 71.9309 59.3497 71.861C58.6339 71.8269 57.3823 71.533 52.119 70.7212C46.5032 69.8548 36.1512 68.1767 34.9297 67.9801C34.2772 67.8752 33.617 67.7623 32.9757 67.6455C31.1718 67.3153 24.8222 66.4706 24.3592 66.2907C23.9504 66.132 23.3927 66.0311 23.0456 66.1357C23.0352 65.583 23.0262 65.1327 23.0194 64.7734C23.0122 64.4798 23.0055 64.2466 23.0001 64.0531C23.3237 64.2284 23.8546 64.2864 24.1678 64.2432Z" fill="white"/>
<path d="M96.0918 43.8219C96.1289 43.7648 96.1512 43.7185 96.1683 43.7264C96.2606 42.8507 96.1126 41.8231 95.7415 40.9394C95.5709 40.4891 95.3274 40.0749 95.0793 39.6947C94.9392 39.5128 94.8208 39.3247 94.6695 39.1664C94.598 39.0842 94.5281 39.0032 94.4595 38.9242C94.3829 38.8506 94.3084 38.7787 94.2357 38.7083C94.2357 38.7083 94.1791 38.6841 94.0856 38.6443C93.9933 38.6045 93.8508 38.5679 93.7036 38.5207C93.5588 38.4681 93.3837 38.442 93.2223 38.4113C93.0637 38.373 92.9024 38.3658 92.7707 38.3511C92.5034 38.3195 92.4459 38.4604 92.6215 38.6639C92.7083 38.7654 92.8534 38.8714 93.0398 39.0296C93.2337 39.1714 93.4605 39.3735 93.7444 39.6285C94.2871 40.1832 94.3727 40.5485 94.4448 40.7339C94.4939 40.9405 94.5198 41.0047 94.656 41.2335C94.725 41.3477 94.8116 41.4823 94.8785 41.6498C94.914 41.7335 94.9515 41.822 94.9912 41.9152C95.0214 42.0123 95.0532 42.1141 95.0862 42.2207C95.1225 42.3272 95.1441 42.4418 95.1674 42.5613C95.19 42.6807 95.2188 42.8047 95.2269 42.935C95.2366 43.0647 95.2575 43.1997 95.2566 43.3383C95.2559 43.4077 95.2556 43.4781 95.255 43.5494L95.2535 43.6572L95.2532 43.6855C95.2528 43.7166 95.2513 43.7265 95.2501 43.743C95.2485 43.7737 95.2416 43.8071 95.2374 43.839C95.1785 44.2235 95.1527 44.5611 95.1276 44.7784C95.1887 44.8229 95.2417 44.8649 95.2849 44.9069L95.3041 44.9214L95.3468 44.9252L95.4243 44.9188C95.473 44.9107 95.5181 44.8981 95.5614 44.884C95.7324 44.829 95.8929 44.7114 96.0118 44.608C96.2549 44.3925 96.3369 44.2519 96.4179 44.209C96.5315 44.1514 96.3852 44.1389 96.2496 44.1163C96.1803 44.1039 96.1114 44.0856 96.0698 44.0485C96.0487 44.0297 96.0344 44.0078 96.0271 43.9762C96.0165 43.9651 96.0319 43.9279 96.0498 43.8984L96.0918 43.8219Z" fill="white"/>
<path d="M88.8765 44.9987C88.7056 45.1943 88.2364 45.7015 87.5608 46.414C86.8841 47.125 86.002 48.0433 84.9484 49.0056C84.6854 49.2465 84.4103 49.4884 84.1245 49.73C83.8318 49.9723 83.5328 50.2198 83.2291 50.4713C82.6135 50.9922 82.0211 51.5668 81.4451 52.1582C80.2935 53.3409 79.1856 54.5797 78.008 55.5932C77.7846 55.7896 77.4254 56.0647 76.9952 56.3562C76.5555 56.649 76.0566 56.9882 75.588 57.3386C74.6425 58.0303 73.8304 58.7925 73.6039 59.0383C73.1447 59.5265 73.1881 59.7101 73.445 59.9241C73.7078 60.1423 73.9174 59.9848 74.314 59.5723C74.5126 59.3673 74.9705 58.7876 75.7008 58.0951C76.064 57.7482 76.4941 57.3748 76.9759 57.0028C77.4616 56.6361 78.0086 56.2244 78.5207 55.7877C78.8648 55.5061 79.6831 54.7734 80.6658 53.7777C81.6556 52.7883 82.8293 51.5621 84.1705 50.5549C85.521 49.5069 86.7401 48.3414 87.6957 47.4179C88.6497 46.4916 89.349 45.8104 89.5895 45.6296C89.983 45.3293 90.1388 44.793 89.948 44.5995C89.7574 44.4072 89.563 44.2133 88.8765 44.9987Z" fill="white"/>
</g>
<path fill-rule="evenodd" clip-rule="evenodd" d="M84.0633 63.874C78.2165 78.0346 64.272 88 48 88C26.4609 88 9 70.5391 9 49C9 27.4609 26.4609 10 48 10C60.1198 10 70.9484 15.5284 78.1015 24.2011L79.1655 23.9237C71.8335 14.8228 60.5968 9 48 9C25.9086 9 8 26.9086 8 49C8 71.0914 25.9086 89 48 89C64.2292 89 78.2009 79.3349 84.4733 65.4466L84.0633 63.874Z" fill="white"/>
<defs>
<clipPath id="clip0_288_5276">
<rect width="79" height="79" fill="white" transform="translate(21 13)"/>
</clipPath>
</defs>
</svg>
